SofiaSans-Condensed.ufo
<glyph name="exclam" format="2">
  <advance width="168"/>
  <unicode hex="0021"/>
  <outline>
    <contour>
      <point x="54" y="198" type="curve" smooth="yes"/>
      <point x="114" y="198" type="line" smooth="yes"/>
      <point x="118" y="198"/>
      <point x="121" y="201"/>
      <point x="121" y="208" type="curve" smooth="yes"/>
      <point x="127" y="645" type="line" smooth="yes"/>
      <point x="127" y="651"/>
      <point x="124" y="655"/>
      <point x="119" y="655" type="curve" smooth="yes"/>
      <point x="48" y="655" type="line" smooth="yes"/>
      <point x="44" y="655"/>
      <point x="41" y="651"/>
      <point x="41" y="646" type="curve" smooth="yes"/>
      <point x="47" y="208" type="line" smooth="yes"/>
      <point x="47" y="201"/>
      <point x="49" y="198"/>
    </contour>
    <contour>
      <point x="84" y="-6" type="curve" smooth="yes"/>
      <point x="116" y="-6"/>
      <point x="133" y="11"/>
      <point x="133" y="43" type="curve" smooth="yes"/>
      <point x="133" y="52" type="line" smooth="yes"/>
      <point x="133" y="84"/>
      <point x="116" y="102"/>
      <point x="84" y="102" type="curve" smooth="yes"/>
      <point x="51" y="102"/>
      <point x="35" y="84"/>
      <point x="35" y="52" type="curve" smooth="yes"/>
      <point x="35" y="43" type="line" smooth="yes"/>
      <point x="35" y="11"/>
      <point x="51" y="-6"/>
    </contour>
  </outline>
</glyph>
<glyph name="quotedbl" format="2">
  <advance width="280"/>
  <unicode hex="0022"/>
  <outline>
    <contour>
      <point x="180" y="433" type="curve" smooth="yes"/>
      <point x="234" y="433" type="line" smooth="yes"/>
      <point x="240" y="433"/>
      <point x="244" y="437"/>
      <point x="244" y="443" type="curve" smooth="yes"/>
      <point x="244" y="673" type="line" smooth="yes"/>
      <point x="244" y="679"/>
      <point x="240" y="683"/>
      <point x="234" y="683" type="curve" smooth="yes"/>
      <point x="180" y="683" type="line" smooth="yes"/>
      <point x="174" y="683"/>
      <point x="170" y="679"/>
      <point x="170" y="673" type="curve" smooth="yes"/>
      <point x="170" y="443" type="line" smooth="yes"/>
      <point x="170" y="437"/>
      <point x="174" y="433"/>
    </contour>
    <contour>
      <point x="46" y="433" type="curve" smooth="yes"/>
      <point x="100" y="433" type="line" smooth="yes"/>
      <point x="106" y="433"/>
      <point x="110" y="437"/>
      <point x="110" y="443" type="curve" smooth="yes"/>
      <point x="110" y="673" type="line" smooth="yes"/>
      <point x="110" y="679"/>
      <point x="106" y="683"/>
      <point x="100" y="683" type="curve" smooth="yes"/>
      <point x="46" y="683" type="line" smooth="yes"/>
      <point x="40" y="683"/>
      <point x="36" y="679"/>
      <point x="36" y="673" type="curve" smooth="yes"/>
      <point x="36" y="443" type="line" smooth="yes"/>
      <point x="36" y="437"/>
      <point x="40" y="433"/>
    </contour>
  </outline>
</glyph>
<glyph name="numbersign" format="2">
  <advance width="369"/>
  <unicode hex="0023"/>
  <outline>
    <contour>
      <point x="79" y="0" type="curve" smooth="yes"/>
      <point x="124" y="0" type="line" smooth="yes"/>
      <point x="130" y="0"/>
      <point x="134" y="4"/>
      <point x="134" y="10" type="curve" smooth="yes"/>
      <point x="134" y="126" type="line"/>
      <point x="234" y="126" type="line"/>
      <point x="234" y="10" type="line" smooth="yes"/>
      <point x="234" y="4"/>
      <point x="238" y="0"/>
      <point x="244" y="0" type="curve" smooth="yes"/>
      <point x="289" y="0" type="line" smooth="yes"/>
      <point x="295" y="0"/>
      <point x="299" y="4"/>
      <point x="299" y="10" type="curve" smooth="yes"/>
      <point x="299" y="126" type="line"/>
      <point x="342" y="126" type="line" smooth="yes"/>
      <point x="348" y="126"/>
      <point x="352" y="130"/>
      <point x="352" y="136" type="curve" smooth="yes"/>
      <point x="352" y="183" type="line" smooth="yes"/>
      <point x="352" y="189"/>
      <point x="348" y="193"/>
      <point x="342" y="193" type="curve" smooth="yes"/>
      <point x="299" y="193" type="line"/>
      <point x="299" y="420" type="line"/>
      <point x="342" y="420" type="line" smooth="yes"/>
      <point x="348" y="420"/>
      <point x="352" y="424"/>
      <point x="352" y="430" type="curve" smooth="yes"/>
      <point x="352" y="477" type="line" smooth="yes"/>
      <point x="352" y="483"/>
      <point x="348" y="487"/>
      <point x="342" y="487" type="curve" smooth="yes"/>
      <point x="299" y="487" type="line"/>
      <point x="299" y="603" type="line" smooth="yes"/>
      <point x="299" y="609"/>
      <point x="295" y="613"/>
      <point x="289" y="613" type="curve" smooth="yes"/>
      <point x="244" y="613" type="line" smooth="yes"/>
      <point x="238" y="613"/>
      <point x="234" y="609"/>
      <point x="234" y="603" type="curve" smooth="yes"/>
      <point x="234" y="487" type="line"/>
      <point x="134" y="487" type="line"/>
      <point x="134" y="603" type="line" smooth="yes"/>
      <point x="134" y="609"/>
      <point x="130" y="613"/>
      <point x="124" y="613" type="curve" smooth="yes"/>
      <point x="79" y="613" type="line" smooth="yes"/>
      <point x="73" y="613"/>
      <point x="69" y="609"/>
      <point x="69" y="603" type="curve" smooth="yes"/>
      <point x="69" y="487" type="line"/>
      <point x="27" y="487" type="line" smooth="yes"/>
      <point x="21" y="487"/>
      <point x="17" y="483"/>
      <point x="17" y="477" type="curve" smooth="yes"/>
      <point x="17" y="430" type="line" smooth="yes"/>
      <point x="17" y="424"/>
      <point x="21" y="420"/>
      <point x="27" y="420" type="curve" smooth="yes"/>
      <point x="69" y="420" type="line"/>
      <point x="69" y="193" type="line"/>
      <point x="27" y="193" type="line" smooth="yes"/>
      <point x="21" y="193"/>
      <point x="17" y="189"/>
      <point x="17" y="183" type="curve" smooth="yes"/>
      <point x="17" y="136" type="line" smooth="yes"/>
      <point x="17" y="130"/>
      <point x="21" y="126"/>
      <point x="27" y="126" type="curve" smooth="yes"/>
      <point x="69" y="126" type="line"/>
      <point x="69" y="10" type="line" smooth="yes"/>
      <point x="69" y="4"/>
      <point x="73" y="0"/>
    </contour>
    <contour>
      <point x="134" y="193" type="line"/>
      <point x="134" y="420" type="line"/>
      <point x="234" y="420" type="line"/>
      <point x="234" y="193" type="line"/>
    </contour>
  </outline>
</glyph>
<glyph name="dollar" format="2">
  <advance width="420"/>
  <unicode hex="0024"/>
  <outline>
    <contour>
      <point x="207" y="-6" type="curve" smooth="yes"/>
      <point x="304" y="-6"/>
      <point x="351" y="58"/>
      <point x="351" y="160" type="curve" smooth="yes"/>
      <point x="351" y="243"/>
      <point x="332" y="291"/>
      <point x="277" y="335" type="curve" smooth="yes"/>
      <point x="198" y="398" type="line" smooth="yes"/>
      <point x="162" y="427"/>
      <point x="149" y="459"/>
      <point x="150" y="510" type="curve" smooth="yes"/>
      <point x="151" y="564"/>
      <point x="175" y="589"/>
      <point x="209" y="589" type="curve" smooth="yes"/>
      <point x="251" y="589"/>
      <point x="275" y="549"/>
      <point x="267" y="480" type="curve" smooth="yes"/>
      <point x="266" y="471"/>
      <point x="269" y="467"/>
      <point x="275" y="467" type="curve" smooth="yes"/>
      <point x="331" y="467" type="line" smooth="yes"/>
      <point x="338" y="467"/>
      <point x="340" y="471"/>
      <point x="341" y="480" type="curve" smooth="yes"/>
      <point x="353" y="591"/>
      <point x="304" y="661"/>
      <point x="208" y="661" type="curve" smooth="yes"/>
      <point x="127" y="661"/>
      <point x="76" y="605"/>
      <point x="75" y="508" type="curve" smooth="yes"/>
      <point x="74" y="432"/>
      <point x="95" y="379"/>
      <point x="149" y="336" type="curve" smooth="yes"/>
      <point x="232" y="270" type="line" smooth="yes"/>
      <point x="267" y="242"/>
      <point x="276" y="209"/>
      <point x="276" y="156" type="curve" smooth="yes"/>
      <point x="276" y="95"/>
      <point x="252" y="66"/>
      <point x="210" y="66" type="curve" smooth="yes"/>
      <point x="163" y="66"/>
      <point x="135" y="103"/>
      <point x="145" y="180" type="curve" smooth="yes"/>
      <point x="146" y="188"/>
      <point x="143" y="192"/>
      <point x="137" y="192" type="curve" smooth="yes"/>
      <point x="80" y="192" type="line" smooth="yes"/>
      <point x="75" y="192"/>
      <point x="72" y="190"/>
      <point x="71" y="180" type="curve" smooth="yes"/>
      <point x="61" y="77"/>
      <point x="100" y="-6"/>
    </contour>
    <contour>
      <point x="190" y="-89" type="curve" smooth="yes"/>
      <point x="234" y="-89" type="line" smooth="yes"/>
      <point x="240" y="-89"/>
      <point x="244" y="-85"/>
      <point x="244" y="-79" type="curve" smooth="yes"/>
      <point x="244" y="9" type="line"/>
      <point x="180" y="4" type="line"/>
      <point x="180" y="-79" type="line" smooth="yes"/>
      <point x="180" y="-85"/>
      <point x="184" y="-89"/>
    </contour>
    <contour>
      <point x="180" y="649" type="line"/>
      <point x="244" y="644" type="line"/>
      <point x="244" y="732" type="line" smooth="yes"/>
      <point x="244" y="738"/>
      <point x="240" y="742"/>
      <point x="234" y="742" type="curve" smooth="yes"/>
      <point x="190" y="742" type="line" smooth="yes"/>
      <point x="184" y="742"/>
      <point x="180" y="738"/>
      <point x="180" y="732" type="curve" smooth="yes"/>
    </contour>
  </outline>
</glyph>
<glyph name="percent" format="2">
  <advance width="593"/>
  <unicode hex="0025"/>
  <outline>
    <contour>
      <point x="155" y="0" type="curve" smooth="yes"/>
      <point x="210" y="0" type="line" smooth="yes"/>
      <point x="214" y="0"/>
      <point x="217" y="3"/>
      <point x="218" y="7" type="curve" smooth="yes"/>
      <point x="330" y="336" type="line"/>
      <point x="442" y="645" type="line" smooth="yes"/>
      <point x="445" y="652"/>
      <point x="443" y="657"/>
      <point x="437" y="657" type="curve" smooth="yes"/>
      <point x="382" y="657" type="line" smooth="yes"/>
      <point x="378" y="657"/>
      <point x="374" y="654"/>
      <point x="373" y="650" type="curve" smooth="yes"/>
      <point x="268" y="340" type="line"/>
      <point x="149" y="12" type="line" smooth="yes"/>
      <point x="147" y="5"/>
      <point x="149" y="0"/>
    </contour>
    <contour>
      <point x="147" y="324" type="curve" smooth="yes"/>
      <point x="214" y="324"/>
      <point x="251" y="370"/>
      <point x="251" y="437" type="curve" smooth="yes"/>
      <point x="251" y="546" type="line" smooth="yes"/>
      <point x="251" y="613"/>
      <point x="214" y="661"/>
      <point x="147" y="661" type="curve" smooth="yes"/>
      <point x="80" y="661"/>
      <point x="43" y="613"/>
      <point x="43" y="546" type="curve" smooth="yes"/>
      <point x="43" y="437" type="line" smooth="yes"/>
      <point x="43" y="370"/>
      <point x="80" y="324"/>
    </contour>
    <contour>
      <point x="147" y="380" type="curve" smooth="yes"/>
      <point x="116" y="380"/>
      <point x="103" y="397"/>
      <point x="103" y="435" type="curve" smooth="yes"/>
      <point x="103" y="550" type="line" smooth="yes"/>
      <point x="103" y="588"/>
      <point x="116" y="605"/>
      <point x="147" y="605" type="curve" smooth="yes"/>
      <point x="178" y="605"/>
      <point x="191" y="588"/>
      <point x="191" y="550" type="curve" smooth="yes"/>
      <point x="191" y="435" type="line" smooth="yes"/>
      <point x="191" y="397"/>
      <point x="178" y="380"/>
    </contour>
    <contour>
      <point x="446" y="-6" type="curve" smooth="yes"/>
      <point x="513" y="-6"/>
      <point x="550" y="40"/>
      <point x="550" y="107" type="curve" smooth="yes"/>
      <point x="550" y="216" type="line" smooth="yes"/>
      <point x="550" y="283"/>
      <point x="513" y="331"/>
      <point x="446" y="331" type="curve" smooth="yes"/>
      <point x="379" y="331"/>
      <point x="342" y="283"/>
      <point x="342" y="216" type="curve" smooth="yes"/>
      <point x="342" y="107" type="line" smooth="yes"/>
      <point x="342" y="40"/>
      <point x="379" y="-6"/>
    </contour>
    <contour>
      <point x="446" y="50" type="curve" smooth="yes"/>
      <point x="415" y="50"/>
      <point x="402" y="67"/>
      <point x="402" y="105" type="curve" smooth="yes"/>
      <point x="402" y="220" type="line" smooth="yes"/>
      <point x="402" y="258"/>
      <point x="415" y="275"/>
      <point x="446" y="275" type="curve" smooth="yes"/>
      <point x="477" y="275"/>
      <point x="490" y="258"/>
      <point x="490" y="220" type="curve" smooth="yes"/>
      <point x="490" y="105" type="line" smooth="yes"/>
      <point x="490" y="67"/>
      <point x="477" y="50"/>
    </contour>
  </outline>
</glyph>
<glyph name="ampersand" format="2">
  <advance width="408"/>
  <unicode hex="0026"/>
  <outline>
    <contour>
      <point x="329" y="0" type="curve" smooth="yes"/>
      <point x="395" y="0" type="line" smooth="yes"/>
      <point x="401" y="0"/>
      <point x="403" y="5"/>
      <point x="399" y="12" type="curve" smooth="yes"/>
      <point x="152" y="428" type="line" smooth="yes"/>
      <point x="132" y="462"/>
      <point x="120" y="498"/>
      <point x="120" y="535" type="curve" smooth="yes"/>
      <point x="120" y="579"/>
      <point x="134" y="594"/>
      <point x="158" y="594" type="curve" smooth="yes"/>
      <point x="178" y="594"/>
      <point x="190" y="579"/>
      <point x="190" y="538" type="curve" smooth="yes"/>
      <point x="190" y="488"/>
      <point x="177" y="452"/>
      <point x="139" y="399" type="curve"/>
      <point x="173" y="351" type="line"/>
      <point x="237" y="430"/>
      <point x="258" y="482"/>
      <point x="258" y="544" type="curve" smooth="yes"/>
      <point x="258" y="619"/>
      <point x="225" y="661"/>
      <point x="162" y="661" type="curve" smooth="yes"/>
      <point x="91" y="661"/>
      <point x="52" y="617"/>
      <point x="52" y="535" type="curve" smooth="yes"/>
      <point x="52" y="478"/>
      <point x="72" y="425"/>
      <point x="91" y="393" type="curve" smooth="yes"/>
      <point x="320" y="5" type="line" smooth="yes"/>
      <point x="322" y="1"/>
      <point x="325" y="0"/>
    </contour>
    <contour>
      <point x="158" y="-6" type="curve" smooth="yes"/>
      <point x="282" y="-6"/>
      <point x="352" y="122"/>
      <point x="352" y="353" type="curve" smooth="yes"/>
      <point x="352" y="359"/>
      <point x="348" y="363"/>
      <point x="342" y="363" type="curve" smooth="yes"/>
      <point x="294" y="363" type="line" smooth="yes"/>
      <point x="288" y="363"/>
      <point x="284" y="359"/>
      <point x="284" y="353" type="curve" smooth="yes"/>
      <point x="284" y="154"/>
      <point x="246" y="61"/>
      <point x="167" y="61" type="curve" smooth="yes"/>
      <point x="122" y="61"/>
      <point x="95" y="98"/>
      <point x="95" y="165" type="curve" smooth="yes"/>
      <point x="95" y="228"/>
      <point x="110" y="265"/>
      <point x="157" y="334" type="curve"/>
      <point x="122" y="381" type="line"/>
      <point x="58" y="315"/>
      <point x="27" y="241"/>
      <point x="27" y="161" type="curve" smooth="yes"/>
      <point x="27" y="56"/>
      <point x="75" y="-6"/>
    </contour>
  </outline>
</glyph>
<glyph name="quotesingle" format="2">
  <advance width="146"/>
  <unicode hex="0027"/>
  <outline>
    <contour>
      <point x="46" y="433" type="curve" smooth="yes"/>
      <point x="100" y="433" type="line" smooth="yes"/>
      <point x="106" y="433"/>
      <point x="110" y="437"/>
      <point x="110" y="443" type="curve" smooth="yes"/>
      <point x="110" y="673" type="line" smooth="yes"/>
      <point x="110" y="679"/>
      <point x="106" y="683"/>
      <point x="100" y="683" type="curve" smooth="yes"/>
      <point x="46" y="683" type="line" smooth="yes"/>
      <point x="40" y="683"/>
      <point x="36" y="679"/>
      <point x="36" y="673" type="curve" smooth="yes"/>
      <point x="36" y="443" type="line" smooth="yes"/>
      <point x="36" y="437"/>
      <point x="40" y="433"/>
    </contour>
  </outline>
</glyph>
<glyph name="parenleft" format="2">
  <advance width="187"/>
  <unicode hex="0028"/>
  <outline>
    <contour>
      <point x="120" y="-140" type="curve" smooth="yes"/>
      <point x="125" y="-145"/>
      <point x="129" y="-145"/>
      <point x="134" y="-140" type="curve" smooth="yes"/>
      <point x="168" y="-106" type="line" smooth="yes"/>
      <point x="173" y="-101"/>
      <point x="172" y="-97"/>
      <point x="168" y="-92" type="curve" smooth="yes"/>
      <point x="119" y="-35"/>
      <point x="108" y="-15"/>
      <point x="108" y="54" type="curve" smooth="yes"/>
      <point x="108" y="501" type="line" smooth="yes"/>
      <point x="108" y="570"/>
      <point x="121" y="588"/>
      <point x="168" y="647" type="curve" smooth="yes"/>
      <point x="172" y="652"/>
      <point x="173" y="656"/>
      <point x="168" y="661" type="curve" smooth="yes"/>
      <point x="134" y="695" type="line" smooth="yes"/>
      <point x="129" y="700"/>
      <point x="125" y="699"/>
      <point x="120" y="695" type="curve" smooth="yes"/>
      <point x="48" y="624"/>
      <point x="37" y="592"/>
      <point x="37" y="501" type="curve" smooth="yes"/>
      <point x="37" y="54" type="line" smooth="yes"/>
      <point x="37" y="-37"/>
      <point x="47" y="-67"/>
    </contour>
  </outline>
</glyph>
<glyph name="parenright" format="2">
  <advance width="187"/>
  <unicode hex="0029"/>
  <outline>
    <contour>
      <point x="53" y="-140" type="line" smooth="yes"/>
      <point x="58" y="-145"/>
      <point x="62" y="-145"/>
      <point x="67" y="-140" type="curve" smooth="yes"/>
      <point x="140" y="-67"/>
      <point x="150" y="-37"/>
      <point x="150" y="54" type="curve" smooth="yes"/>
      <point x="150" y="501" type="line" smooth="yes"/>
      <point x="150" y="592"/>
      <point x="139" y="624"/>
      <point x="67" y="695" type="curve" smooth="yes"/>
      <point x="62" y="699"/>
      <point x="58" y="700"/>
      <point x="53" y="695" type="curve" smooth="yes"/>
      <point x="19" y="661" type="line" smooth="yes"/>
      <point x="14" y="656"/>
      <point x="15" y="652"/>
      <point x="19" y="647" type="curve" smooth="yes"/>
      <point x="66" y="588"/>
      <point x="79" y="570"/>
      <point x="79" y="501" type="curve" smooth="yes"/>
      <point x="79" y="54" type="line" smooth="yes"/>
      <point x="79" y="-15"/>
      <point x="68" y="-35"/>
      <point x="19" y="-92" type="curve" smooth="yes"/>
      <point x="15" y="-97"/>
      <point x="14" y="-101"/>
      <point x="19" y="-106" type="curve" smooth="yes"/>
    </contour>
  </outline>
</glyph>
<glyph name="asterisk" format="2">
  <advance width="307"/>
  <unicode hex="002A"/>
  <outline>
    <contour>
      <point x="105" y="447" type="line" smooth="yes"/>
      <point x="109" y="444"/>
      <point x="112" y="444"/>
      <point x="116" y="450" type="curve" smooth="yes"/>
      <point x="153" y="514" type="line"/>
      <point x="190" y="451" type="line" smooth="yes"/>
      <point x="193" y="446"/>
      <point x="196" y="445"/>
      <point x="200" y="448" type="curve" smooth="yes"/>
      <point x="235" y="473" type="line" smooth="yes"/>
      <point x="239" y="476"/>
      <point x="239" y="481"/>
      <point x="236" y="484" type="curve" smooth="yes"/>
      <point x="186" y="539" type="line"/>
      <point x="260" y="555" type="line" smooth="yes"/>
      <point x="265" y="556"/>
      <point x="268" y="559"/>
      <point x="266" y="565" type="curve" smooth="yes"/>
      <point x="252" y="604" type="line" smooth="yes"/>
      <point x="250" y="610"/>
      <point x="246" y="611"/>
      <point x="241" y="609" type="curve" smooth="yes"/>
      <point x="174" y="579" type="line"/>
      <point x="181" y="655" type="line" smooth="yes"/>
      <point x="181" y="659"/>
      <point x="179" y="662"/>
      <point x="174" y="662" type="curve" smooth="yes"/>
      <point x="132" y="662" type="line" smooth="yes"/>
      <point x="128" y="662"/>
      <point x="125" y="659"/>
      <point x="125" y="655" type="curve" smooth="yes"/>
      <point x="132" y="580" type="line"/>
      <point x="66" y="609" type="line" smooth="yes"/>
      <point x="61" y="611"/>
      <point x="58" y="610"/>
      <point x="55" y="604" type="curve" smooth="yes"/>
      <point x="41" y="565" type="line" smooth="yes"/>
      <point x="39" y="559"/>
      <point x="41" y="557"/>
      <point x="47" y="555" type="curve" smooth="yes"/>
      <point x="119" y="540" type="line"/>
      <point x="70" y="485" type="line" smooth="yes"/>
      <point x="67" y="481"/>
      <point x="67" y="478"/>
      <point x="71" y="474" type="curve" smooth="yes"/>
    </contour>
  </outline>
</glyph>
<glyph name="comma" format="2">
  <advance width="172"/>
  <unicode hex="002C"/>
  <outline>
    <contour>
      <point x="23" y="-127" type="curve" smooth="yes"/>
      <point x="74" y="-127" type="line" smooth="yes"/>
      <point x="79" y="-127"/>
      <point x="81" y="-125"/>
      <point x="82" y="-120" type="curve" smooth="yes"/>
      <point x="144" y="89" type="line" smooth="yes"/>
      <point x="146" y="97"/>
      <point x="143" y="101"/>
      <point x="136" y="101" type="curve" smooth="yes"/>
      <point x="66" y="101" type="line" smooth="yes"/>
      <point x="61" y="101"/>
      <point x="58" y="97"/>
      <point x="57" y="92" type="curve" smooth="yes"/>
      <point x="16" y="-117" type="line" smooth="yes"/>
      <point x="15" y="-124"/>
      <point x="18" y="-127"/>
    </contour>
  </outline>
</glyph>
<glyph name="hyphen" format="2">
  <advance width="291"/>
  <unicode hex="002D"/>
  <outline>
    <contour>
      <point x="45" y="234" type="curve" smooth="yes"/>
      <point x="246" y="234" type="line" smooth="yes"/>
      <point x="252" y="234"/>
      <point x="256" y="238"/>
      <point x="256" y="244" type="curve" smooth="yes"/>
      <point x="256" y="286" type="line" smooth="yes"/>
      <point x="256" y="292"/>
      <point x="252" y="296"/>
      <point x="246" y="296" type="curve" smooth="yes"/>
      <point x="45" y="296" type="line" smooth="yes"/>
      <point x="39" y="296"/>
      <point x="35" y="292"/>
      <point x="35" y="286" type="curve" smooth="yes"/>
      <point x="35" y="244" type="line" smooth="yes"/>
      <point x="35" y="238"/>
      <point x="39" y="234"/>
    </contour>
  </outline>
</glyph>
<glyph name="period" format="2">
  <advance width="168"/>
  <unicode hex="002E"/>
  <outline>
    <contour>
      <point x="84" y="-6" type="curve" smooth="yes"/>
      <point x="117" y="-6"/>
      <point x="133" y="11"/>
      <point x="133" y="43" type="curve" smooth="yes"/>
      <point x="133" y="52" type="line" smooth="yes"/>
      <point x="133" y="84"/>
      <point x="117" y="102"/>
      <point x="84" y="102" type="curve" smooth="yes"/>
      <point x="52" y="102"/>
      <point x="35" y="84"/>
      <point x="35" y="52" type="curve" smooth="yes"/>
      <point x="35" y="43" type="line" smooth="yes"/>
      <point x="35" y="11"/>
      <point x="52" y="-6"/>
    </contour>
  </outline>
</glyph>
<glyph name="slash" format="2">
  <advance width="247"/>
  <unicode hex="002F"/>
  <outline>
    <contour>
      <point x="12" y="0" type="curve" smooth="yes"/>
      <point x="67" y="0" type="line" smooth="yes"/>
      <point x="71" y="0"/>
      <point x="74" y="3"/>
      <point x="75" y="8" type="curve" smooth="yes"/>
      <point x="241" y="644" type="line" smooth="yes"/>
      <point x="243" y="651"/>
      <point x="241" y="655"/>
      <point x="236" y="655" type="curve" smooth="yes"/>
      <point x="181" y="655" type="line" smooth="yes"/>
      <point x="177" y="655"/>
      <point x="173" y="652"/>
      <point x="172" y="647" type="curve" smooth="yes"/>
      <point x="6" y="10" type="line" smooth="yes"/>
      <point x="4" y="4"/>
      <point x="7" y="0"/>
    </contour>
  </outline>
</glyph>
<glyph name="zero" format="2">
  <advance width="364"/>
  <unicode hex="0030"/>
  <outline>
    <contour>
      <point x="182" y="-6" type="curve" smooth="yes"/>
      <point x="277" y="-6"/>
      <point x="327" y="58"/>
      <point x="327" y="176" type="curve" smooth="yes"/>
      <point x="327" y="478" type="line" smooth="yes"/>
      <point x="327" y="597"/>
      <point x="277" y="661"/>
      <point x="182" y="661" type="curve" smooth="yes"/>
      <point x="87" y="661"/>
      <point x="37" y="597"/>
      <point x="37" y="478" type="curve" smooth="yes"/>
      <point x="37" y="176" type="line" smooth="yes"/>
      <point x="37" y="58"/>
      <point x="87" y="-6"/>
    </contour>
    <contour>
      <point x="182" y="66" type="curve" smooth="yes"/>
      <point x="134" y="66"/>
      <point x="113" y="102"/>
      <point x="113" y="179" type="curve" smooth="yes"/>
      <point x="113" y="475" type="line" smooth="yes"/>
      <point x="113" y="553"/>
      <point x="134" y="589"/>
      <point x="182" y="589" type="curve" smooth="yes"/>
      <point x="230" y="589"/>
      <point x="251" y="553"/>
      <point x="251" y="475" type="curve" smooth="yes"/>
      <point x="251" y="179" type="line" smooth="yes"/>
      <point x="251" y="102"/>
      <point x="230" y="66"/>
    </contour>
  </outline>
</glyph>
<glyph name="one" format="2">
  <advance width="288"/>
  <unicode hex="0031"/>
  <outline>
    <contour>
      <point x="30" y="0" type="curve" smooth="yes"/>
      <point x="272" y="0" type="line" smooth="yes"/>
      <point x="278" y="0"/>
      <point x="282" y="4"/>
      <point x="282" y="10" type="curve" smooth="yes"/>
      <point x="282" y="64" type="line" smooth="yes"/>
      <point x="282" y="70"/>
      <point x="278" y="74"/>
      <point x="272" y="74" type="curve" smooth="yes"/>
      <point x="193" y="74" type="line"/>
      <point x="193" y="649" type="line" smooth="yes"/>
      <point x="193" y="655"/>
      <point x="189" y="659"/>
      <point x="183" y="659" type="curve" smooth="yes"/>
      <point x="175" y="659" type="line" smooth="yes"/>
      <point x="171" y="659"/>
      <point x="167" y="658"/>
      <point x="163" y="656" type="curve" smooth="yes"/>
      <point x="30" y="602" type="line" smooth="yes"/>
      <point x="26" y="600"/>
      <point x="24" y="597"/>
      <point x="24" y="592" type="curve" smooth="yes"/>
      <point x="24" y="538" type="line" smooth="yes"/>
      <point x="24" y="532"/>
      <point x="28" y="529"/>
      <point x="33" y="531" type="curve" smooth="yes"/>
      <point x="118" y="564" type="line"/>
      <point x="117" y="74" type="line"/>
      <point x="30" y="74" type="line" smooth="yes"/>
      <point x="24" y="74"/>
      <point x="20" y="70"/>
      <point x="20" y="64" type="curve" smooth="yes"/>
      <point x="20" y="10" type="line" smooth="yes"/>
      <point x="20" y="4"/>
      <point x="24" y="0"/>
    </contour>
  </outline>
</glyph>
<glyph name="two" format="2">
  <advance width="334"/>
  <unicode hex="0032"/>
  <guideline x="69" y="422" angle="90"/>
  <guideline x="479" y="417" angle="90"/>
  <outline>
    <contour>
      <point x="43" y="0" type="curve" smooth="yes"/>
      <point x="289" y="0" type="line" smooth="yes"/>
      <point x="295" y="0"/>
      <point x="299" y="4"/>
      <point x="299" y="10" type="curve" smooth="yes"/>
      <point x="299" y="64" type="line" smooth="yes"/>
      <point x="299" y="70"/>
      <point x="295" y="74"/>
      <point x="289" y="74" type="curve" smooth="yes"/>
      <point x="112" y="74" type="line"/>
      <point x="112" y="280"/>
      <point x="301" y="270"/>
      <point x="301" y="506" type="curve" smooth="yes"/>
      <point x="301" y="612"/>
      <point x="255" y="661"/>
      <point x="168" y="661" type="curve" smooth="yes"/>
      <point x="80" y="661"/>
      <point x="38" y="605"/>
      <point x="38" y="493" type="curve" smooth="yes"/>
      <point x="38" y="487"/>
      <point x="42" y="483"/>
      <point x="48" y="483" type="curve" smooth="yes"/>
      <point x="101" y="483" type="line" smooth="yes"/>
      <point x="107" y="483"/>
      <point x="111" y="487"/>
      <point x="111" y="493" type="curve" smooth="yes"/>
      <point x="111" y="554"/>
      <point x="124" y="589"/>
      <point x="167" y="589" type="curve" smooth="yes"/>
      <point x="209" y="589"/>
      <point x="225" y="570"/>
      <point x="225" y="512" type="curve" smooth="yes"/>
      <point x="225" y="491" type="line" smooth="yes"/>
      <point x="225" y="325"/>
      <point x="33" y="297"/>
      <point x="33" y="74" type="curve" smooth="yes"/>
      <point x="33" y="10" type="line" smooth="yes"/>
      <point x="33" y="4"/>
      <point x="37" y="0"/>
    </contour>
  </outline>
</glyph>
<glyph name="three" format="2">
  <advance width="338"/>
  <unicode hex="0033"/>
  <guideline x="488" y="561" angle="90"/>
  <outline>
    <contour>
      <point x="160" y="-6" type="curve" smooth="yes"/>
      <point x="252" y="-6"/>
      <point x="307" y="56"/>
      <point x="307" y="180" type="curve" smooth="yes"/>
      <point x="307" y="273"/>
      <point x="278" y="317"/>
      <point x="234" y="341" type="curve"/>
      <point x="234" y="343" type="line"/>
      <point x="270" y="365"/>
      <point x="298" y="414"/>
      <point x="298" y="500" type="curve" smooth="yes"/>
      <point x="298" y="614"/>
      <point x="254" y="661"/>
      <point x="167" y="661" type="curve" smooth="yes"/>
      <point x="76" y="661"/>
      <point x="31" y="606"/>
      <point x="31" y="493" type="curve" smooth="yes"/>
      <point x="31" y="487"/>
      <point x="35" y="483"/>
      <point x="41" y="483" type="curve" smooth="yes"/>
      <point x="93" y="483" type="line" smooth="yes"/>
      <point x="99" y="483"/>
      <point x="103" y="487"/>
      <point x="103" y="493" type="curve" smooth="yes"/>
      <point x="103" y="558"/>
      <point x="118" y="589"/>
      <point x="164" y="589" type="curve" smooth="yes"/>
      <point x="202" y="589"/>
      <point x="223" y="570"/>
      <point x="223" y="510" type="curve" smooth="yes"/>
      <point x="223" y="477" type="line" smooth="yes"/>
      <point x="223" y="408"/>
      <point x="197" y="372"/>
      <point x="150" y="372" type="curve" smooth="yes"/>
      <point x="118" y="372" type="line" smooth="yes"/>
      <point x="112" y="372"/>
      <point x="108" y="368"/>
      <point x="108" y="362" type="curve" smooth="yes"/>
      <point x="108" y="311" type="line" smooth="yes"/>
      <point x="108" y="305"/>
      <point x="112" y="301"/>
      <point x="118" y="301" type="curve" smooth="yes"/>
      <point x="149" y="301" type="line" smooth="yes"/>
      <point x="214" y="301"/>
      <point x="231" y="265"/>
      <point x="231" y="200" type="curve" smooth="yes"/>
      <point x="231" y="166" type="line" smooth="yes"/>
      <point x="231" y="97"/>
      <point x="208" y="66"/>
      <point x="164" y="66" type="curve" smooth="yes"/>
      <point x="118" y="66"/>
      <point x="103" y="99"/>
      <point x="103" y="162" type="curve" smooth="yes"/>
      <point x="103" y="168"/>
      <point x="99" y="172"/>
      <point x="93" y="172" type="curve" smooth="yes"/>
      <point x="41" y="172" type="line" smooth="yes"/>
      <point x="35" y="172"/>
      <point x="31" y="168"/>
      <point x="31" y="162" type="curve" smooth="yes"/>
      <point x="31" y="61"/>
      <point x="65" y="-6"/>
    </contour>
  </outline>
</glyph>
<glyph name="four" format="2">
  <advance width="346"/>
  <unicode hex="0034"/>
  <outline>
    <contour>
      <point x="222" y="0" type="curve" smooth="yes"/>
      <point x="275" y="0" type="line" smooth="yes"/>
      <point x="281" y="0"/>
      <point x="285" y="4"/>
      <point x="285" y="10" type="curve" smooth="yes"/>
      <point x="285" y="130" type="line"/>
      <point x="321" y="130" type="line" smooth="yes"/>
      <point x="327" y="130"/>
      <point x="331" y="134"/>
      <point x="331" y="140" type="curve" smooth="yes"/>
      <point x="331" y="194" type="line" smooth="yes"/>
      <point x="331" y="200"/>
      <point x="327" y="204"/>
      <point x="321" y="204" type="curve" smooth="yes"/>
      <point x="285" y="204" type="line"/>
      <point x="285" y="425" type="line" smooth="yes"/>
      <point x="285" y="431"/>
      <point x="281" y="435"/>
      <point x="275" y="435" type="curve" smooth="yes"/>
      <point x="226" y="435" type="line" smooth="yes"/>
      <point x="220" y="435"/>
      <point x="216" y="431"/>
      <point x="216" y="425" type="curve" smooth="yes"/>
      <point x="212" y="204" type="line"/>
      <point x="100" y="204" type="line"/>
      <point x="235" y="644" type="line" smooth="yes"/>
      <point x="237" y="651"/>
      <point x="233" y="655"/>
      <point x="228" y="655" type="curve" smooth="yes"/>
      <point x="173" y="655" type="line" smooth="yes"/>
      <point x="168" y="655"/>
      <point x="165" y="653"/>
      <point x="163" y="647" type="curve" smooth="yes"/>
      <point x="7" y="159" type="line" smooth="yes"/>
      <point x="6" y="155"/>
      <point x="5" y="150"/>
      <point x="5" y="145" type="curve" smooth="yes"/>
      <point x="5" y="140" type="line" smooth="yes"/>
      <point x="5" y="134"/>
      <point x="9" y="130"/>
      <point x="15" y="130" type="curve" smooth="yes"/>
      <point x="212" y="130" type="line"/>
      <point x="212" y="10" type="line" smooth="yes"/>
      <point x="212" y="4"/>
      <point x="216" y="0"/>
    </contour>
  </outline>
</glyph>
<glyph name="five" format="2">
  <advance width="327"/>
  <unicode hex="0035"/>
  <outline>
    <contour>
      <point x="153" y="-6" type="curve" smooth="yes"/>
      <point x="251" y="-6"/>
      <point x="301" y="69"/>
      <point x="301" y="207" type="curve" smooth="yes"/>
      <point x="301" y="355"/>
      <point x="258" y="415"/>
      <point x="181" y="415" type="curve" smooth="yes"/>
      <point x="158" y="415"/>
      <point x="137" y="412"/>
      <point x="111" y="402" type="curve"/>
      <point x="121" y="581" type="line"/>
      <point x="265" y="581" type="line" smooth="yes"/>
      <point x="271" y="581"/>
      <point x="275" y="585"/>
      <point x="275" y="591" type="curve" smooth="yes"/>
      <point x="275" y="645" type="line" smooth="yes"/>
      <point x="275" y="651"/>
      <point x="271" y="655"/>
      <point x="265" y="655" type="curve" smooth="yes"/>
      <point x="64" y="655" type="line" smooth="yes"/>
      <point x="58" y="655"/>
      <point x="54" y="651"/>
      <point x="54" y="645" type="curve" smooth="yes"/>
      <point x="35" y="316" type="line" smooth="yes"/>
      <point x="35" y="309"/>
      <point x="41" y="305"/>
      <point x="49" y="310" type="curve" smooth="yes"/>
      <point x="84" y="332"/>
      <point x="123" y="346"/>
      <point x="155" y="346" type="curve" smooth="yes"/>
      <point x="204" y="346"/>
      <point x="225" y="318"/>
      <point x="225" y="238" type="curve" smooth="yes"/>
      <point x="225" y="183" type="line" smooth="yes"/>
      <point x="225" y="103"/>
      <point x="205" y="66"/>
      <point x="156" y="66" type="curve" smooth="yes"/>
      <point x="106" y="66"/>
      <point x="93" y="105"/>
      <point x="95" y="162" type="curve" smooth="yes"/>
      <point x="95" y="168"/>
      <point x="91" y="172"/>
      <point x="85" y="172" type="curve" smooth="yes"/>
      <point x="33" y="172" type="line" smooth="yes"/>
      <point x="27" y="172"/>
      <point x="23" y="168"/>
      <point x="23" y="162" type="curve" smooth="yes"/>
      <point x="20" y="54"/>
      <point x="62" y="-6"/>
    </contour>
  </outline>
</glyph>
<glyph name="six" format="2">
  <advance width="359"/>
  <unicode hex="0036"/>
  <outline>
    <contour>
      <point x="183" y="-6" type="curve" smooth="yes"/>
      <point x="281" y="-6"/>
      <point x="327" y="71"/>
      <point x="327" y="225" type="curve" smooth="yes"/>
      <point x="327" y="358"/>
      <point x="293" y="417"/>
      <point x="217" y="417" type="curve" smooth="yes"/>
      <point x="181" y="417"/>
      <point x="145" y="402"/>
      <point x="103" y="366" type="curve"/>
      <point x="103" y="295" type="line"/>
      <point x="133" y="327"/>
      <point x="166" y="345"/>
      <point x="194" y="345" type="curve" smooth="yes"/>
      <point x="237" y="345"/>
      <point x="251" y="317"/>
      <point x="251" y="232" type="curve" smooth="yes"/>
      <point x="251" y="212" type="line" smooth="yes"/>
      <point x="251" y="107"/>
      <point x="231" y="66"/>
      <point x="180" y="66" type="curve" smooth="yes"/>
      <point x="132" y="66"/>
      <point x="113" y="98"/>
      <point x="113" y="178" type="curve" smooth="yes"/>
      <point x="113" y="478" type="line" smooth="yes"/>
      <point x="113" y="560"/>
      <point x="132" y="589"/>
      <point x="184" y="589" type="curve" smooth="yes"/>
      <point x="220" y="589"/>
      <point x="242" y="566"/>
      <point x="242" y="531" type="curve" smooth="yes"/>
      <point x="242" y="525"/>
      <point x="246" y="521"/>
      <point x="252" y="521" type="curve" smooth="yes"/>
      <point x="304" y="521" type="line" smooth="yes"/>
      <point x="310" y="521"/>
      <point x="314" y="525"/>
      <point x="314" y="531" type="curve" smooth="yes"/>
      <point x="314" y="612"/>
      <point x="263" y="661"/>
      <point x="184" y="661" type="curve" smooth="yes"/>
      <point x="85" y="661"/>
      <point x="37" y="601"/>
      <point x="37" y="476" type="curve" smooth="yes"/>
      <point x="37" y="176" type="line" smooth="yes"/>
      <point x="37" y="50"/>
      <point x="83" y="-6"/>
    </contour>
  </outline>
</glyph>
<glyph name="seven" format="2">
  <advance width="324"/>
  <unicode hex="0037"/>
  <outline>
    <contour>
      <point x="82" y="0" type="curve" smooth="yes"/>
      <point x="143" y="0" type="line" smooth="yes"/>
      <point x="148" y="0"/>
      <point x="151" y="2"/>
      <point x="153" y="7" type="curve" smooth="yes"/>
      <point x="318" y="626" type="line" smooth="yes"/>
      <point x="319" y="630"/>
      <point x="320" y="634"/>
      <point x="320" y="639" type="curve" smooth="yes"/>
      <point x="320" y="645" type="line" smooth="yes"/>
      <point x="320" y="651"/>
      <point x="316" y="655"/>
      <point x="310" y="655" type="curve" smooth="yes"/>
      <point x="30" y="655" type="line" smooth="yes"/>
      <point x="24" y="655"/>
      <point x="20" y="651"/>
      <point x="20" y="645" type="curve" smooth="yes"/>
      <point x="20" y="504" type="line" smooth="yes"/>
      <point x="20" y="498"/>
      <point x="24" y="494"/>
      <point x="30" y="494" type="curve" smooth="yes"/>
      <point x="85" y="494" type="line" smooth="yes"/>
      <point x="91" y="494"/>
      <point x="95" y="498"/>
      <point x="95" y="504" type="curve" smooth="yes"/>
      <point x="95" y="581" type="line"/>
      <point x="227" y="581" type="line"/>
      <point x="76" y="12" type="line" smooth="yes"/>
      <point x="74" y="5"/>
      <point x="76" y="0"/>
    </contour>
  </outline>
</glyph>
<glyph name="eight" format="2">
  <advance width="354"/>
  <unicode hex="0038"/>
  <guideline x="55" y="520" angle="90"/>
  <outline>
    <contour>
      <point x="177" y="-6" type="curve" smooth="yes"/>
      <point x="276.195" y="-6"/>
      <point x="328" y="56.44"/>
      <point x="328" y="176" type="curve" smooth="yes"/>
      <point x="328" y="262.458"/>
      <point x="303.714" y="321.15"/>
      <point x="256" y="350" type="curve"/>
      <point x="294.245" y="381.291"/>
      <point x="310" y="423.889"/>
      <point x="310" y="496" type="curve" smooth="yes"/>
      <point x="310" y="600.466"/>
      <point x="261.206" y="661"/>
      <point x="177" y="661" type="curve" smooth="yes"/>
      <point x="92.794" y="661"/>
      <point x="44" y="600.466"/>
      <point x="44" y="496" type="curve" smooth="yes"/>
      <point x="44" y="423.889"/>
      <point x="59.755" y="381.291"/>
      <point x="98" y="350" type="curve"/>
      <point x="50.286" y="321.15"/>
      <point x="26" y="262.458"/>
      <point x="26" y="176" type="curve" smooth="yes"/>
      <point x="26" y="56.44"/>
      <point x="77.805" y="-6"/>
    </contour>
    <contour>
      <point x="177" y="63" type="curve" smooth="yes"/>
      <point x="124.113" y="63"/>
      <point x="102" y="94.253"/>
      <point x="102" y="169" type="curve" smooth="yes"/>
      <point x="102" y="191" type="line" smooth="yes"/>
      <point x="102" y="280.68"/>
      <point x="124.039" y="318"/>
      <point x="177" y="318" type="curve" smooth="yes"/>
      <point x="229.961" y="318"/>
      <point x="252" y="280.68"/>
      <point x="252" y="191" type="curve" smooth="yes"/>
      <point x="252" y="169" type="line" smooth="yes"/>
      <point x="252" y="94.253"/>
      <point x="229.887" y="63"/>
    </contour>
    <contour>
      <point x="177" y="381" type="curve" smooth="yes"/>
      <point x="137.429" y="381"/>
      <point x="118" y="413.602"/>
      <point x="118" y="480" type="curve" smooth="yes"/>
      <point x="118" y="501" type="line" smooth="yes"/>
      <point x="118" y="563.847"/>
      <point x="136.253" y="592"/>
      <point x="177" y="592" type="curve" smooth="yes"/>
      <point x="217.747" y="592"/>
      <point x="236" y="563.847"/>
      <point x="236" y="501" type="curve" smooth="yes"/>
      <point x="236" y="480" type="line" smooth="yes"/>
      <point x="236" y="413.602"/>
      <point x="216.571" y="381"/>
    </contour>
  </outline>
</glyph>
<glyph name="nine" format="2">
  <advance width="360"/>
  <unicode hex="0039"/>
  <outline>
    <contour>
      <point x="176" y="-6" type="curve" smooth="yes"/>
      <point x="275" y="-6"/>
      <point x="323" y="55"/>
      <point x="323" y="180" type="curve" smooth="yes"/>
      <point x="323" y="479" type="line" smooth="yes"/>
      <point x="323" y="598"/>
      <point x="278" y="661"/>
      <point x="179" y="661" type="curve" smooth="yes"/>
      <point x="79" y="661"/>
      <point x="33" y="600"/>
      <point x="33" y="435" type="curve" smooth="yes"/>
      <point x="33" y="302"/>
      <point x="68" y="238"/>
      <point x="144" y="238" type="curve" smooth="yes"/>
      <point x="180" y="238"/>
      <point x="215" y="253"/>
      <point x="257" y="289" type="curve"/>
      <point x="257" y="360" type="line"/>
      <point x="227" y="328"/>
      <point x="194" y="310"/>
      <point x="166" y="310" type="curve" smooth="yes"/>
      <point x="123" y="310"/>
      <point x="109" y="343"/>
      <point x="109" y="428" type="curve" smooth="yes"/>
      <point x="109" y="448" type="line" smooth="yes"/>
      <point x="109" y="562"/>
      <point x="129" y="589"/>
      <point x="180" y="589" type="curve" smooth="yes"/>
      <point x="228" y="589"/>
      <point x="247" y="551"/>
      <point x="247" y="471" type="curve" smooth="yes"/>
      <point x="247" y="177" type="line" smooth="yes"/>
      <point x="247" y="95"/>
      <point x="227" y="66"/>
      <point x="175" y="66" type="curve" smooth="yes"/>
      <point x="130" y="66"/>
      <point x="114" y="103"/>
      <point x="114" y="146" type="curve" smooth="yes"/>
      <point x="114" y="152"/>
      <point x="110" y="156"/>
      <point x="104" y="156" type="curve" smooth="yes"/>
      <point x="52" y="156" type="line" smooth="yes"/>
      <point x="46" y="156"/>
      <point x="42" y="152"/>
      <point x="42" y="146" type="curve" smooth="yes"/>
      <point x="42" y="56"/>
      <point x="85" y="-6"/>
    </contour>
  </outline>
</glyph>
<glyph name="colon" format="2">
  <advance width="168"/>
  <unicode hex="003A"/>
  <outline>
    <contour>
      <point x="84" y="359" type="curve" smooth="yes"/>
      <point x="117" y="359"/>
      <point x="133" y="376"/>
      <point x="133" y="408" type="curve" smooth="yes"/>
      <point x="133" y="417" type="line" smooth="yes"/>
      <point x="133" y="449"/>
      <point x="117" y="467"/>
      <point x="84" y="467" type="curve" smooth="yes"/>
      <point x="52" y="467"/>
      <point x="35" y="449"/>
      <point x="35" y="417" type="curve" smooth="yes"/>
      <point x="35" y="408" type="line" smooth="yes"/>
      <point x="35" y="376"/>
      <point x="52" y="359"/>
    </contour>
    <contour>
      <point x="84" y="-6" type="curve" smooth="yes"/>
      <point x="117" y="-6"/>
      <point x="133" y="11"/>
      <point x="133" y="43" type="curve" smooth="yes"/>
      <point x="133" y="52" type="line" smooth="yes"/>
      <point x="133" y="84"/>
      <point x="117" y="102"/>
      <point x="84" y="102" type="curve" smooth="yes"/>
      <point x="52" y="102"/>
      <point x="35" y="84"/>
      <point x="35" y="52" type="curve" smooth="yes"/>
      <point x="35" y="43" type="line" smooth="yes"/>
      <point x="35" y="11"/>
      <point x="52" y="-6"/>
    </contour>
  </outline>
</glyph>
<glyph name="semicolon" format="2">
  <advance width="175"/>
  <unicode hex="003B"/>
  <outline>
    <contour>
      <point x="17" y="-127" type="curve" smooth="yes"/>
      <point x="68" y="-127" type="line" smooth="yes"/>
      <point x="73" y="-127"/>
      <point x="75" y="-125"/>
      <point x="76" y="-120" type="curve" smooth="yes"/>
      <point x="138" y="89" type="line" smooth="yes"/>
      <point x="140" y="97"/>
      <point x="137" y="101"/>
      <point x="130" y="101" type="curve" smooth="yes"/>
      <point x="60" y="101" type="line" smooth="yes"/>
      <point x="55" y="101"/>
      <point x="52" y="97"/>
      <point x="51" y="92" type="curve" smooth="yes"/>
      <point x="10" y="-117" type="line" smooth="yes"/>
      <point x="9" y="-124"/>
      <point x="12" y="-127"/>
    </contour>
    <contour>
      <point x="91" y="359" type="curve" smooth="yes"/>
      <point x="124" y="359"/>
      <point x="140" y="376"/>
      <point x="140" y="408" type="curve" smooth="yes"/>
      <point x="140" y="417" type="line" smooth="yes"/>
      <point x="140" y="449"/>
      <point x="124" y="467"/>
      <point x="91" y="467" type="curve" smooth="yes"/>
      <point x="59" y="467"/>
      <point x="42" y="449"/>
      <point x="42" y="417" type="curve" smooth="yes"/>
      <point x="42" y="408" type="line" smooth="yes"/>
      <point x="42" y="376"/>
      <point x="59" y="359"/>
    </contour>
  </outline>
</glyph>
<glyph name="less" format="2">
  <advance width="420"/>
  <unicode hex="003C"/>
  <outline>
    <contour>
      <point x="327" y="145" type="line" smooth="yes"/>
      <point x="334" y="142"/>
      <point x="337" y="146"/>
      <point x="337" y="152" type="curve" smooth="yes"/>
      <point x="337" y="224" type="line" smooth="yes"/>
      <point x="337" y="230"/>
      <point x="335" y="233"/>
      <point x="331" y="235" type="curve" smooth="yes"/>
      <point x="159" y="297" type="line"/>
      <point x="331" y="357" type="line" smooth="yes"/>
      <point x="335" y="358"/>
      <point x="337" y="363"/>
      <point x="337" y="369" type="curve" smooth="yes"/>
      <point x="337" y="440" type="line" smooth="yes"/>
      <point x="337" y="447"/>
      <point x="333" y="451"/>
      <point x="326" y="448" type="curve" smooth="yes"/>
      <point x="88" y="336" type="line" smooth="yes"/>
      <point x="85" y="334"/>
      <point x="83" y="330"/>
      <point x="83" y="325" type="curve" smooth="yes"/>
      <point x="83" y="268" type="line" smooth="yes"/>
      <point x="83" y="263"/>
      <point x="85" y="259"/>
      <point x="88" y="257" type="curve" smooth="yes"/>
    </contour>
  </outline>
</glyph>
<glyph name="equal" format="2">
  <advance width="420"/>
  <unicode hex="003D"/>
  <outline>
    <contour>
      <point x="89" y="340" type="curve" smooth="yes"/>
      <point x="331" y="340" type="line" smooth="yes"/>
      <point x="337" y="340"/>
      <point x="341" y="344"/>
      <point x="341" y="350" type="curve" smooth="yes"/>
      <point x="341" y="399" type="line" smooth="yes"/>
      <point x="341" y="405"/>
      <point x="337" y="409"/>
      <point x="331" y="409" type="curve" smooth="yes"/>
      <point x="89" y="409" type="line" smooth="yes"/>
      <point x="83" y="409"/>
      <point x="79" y="405"/>
      <point x="79" y="399" type="curve" smooth="yes"/>
      <point x="79" y="350" type="line" smooth="yes"/>
      <point x="79" y="344"/>
      <point x="83" y="340"/>
    </contour>
    <contour>
      <point x="89" y="192" type="curve" smooth="yes"/>
      <point x="331" y="192" type="line" smooth="yes"/>
      <point x="337" y="192"/>
      <point x="341" y="196"/>
      <point x="341" y="202" type="curve" smooth="yes"/>
      <point x="341" y="251" type="line" smooth="yes"/>
      <point x="341" y="257"/>
      <point x="337" y="261"/>
      <point x="331" y="261" type="curve" smooth="yes"/>
      <point x="89" y="261" type="line" smooth="yes"/>
      <point x="83" y="261"/>
      <point x="79" y="257"/>
      <point x="79" y="251" type="curve" smooth="yes"/>
      <point x="79" y="202" type="line" smooth="yes"/>
      <point x="79" y="196"/>
      <point x="83" y="192"/>
    </contour>
  </outline>
</glyph>
<glyph name="greater" format="2">
  <advance width="420"/>
  <unicode hex="003E"/>
  <outline>
    <contour>
      <point x="93" y="145" type="curve" smooth="yes"/>
      <point x="332" y="257" type="line" smooth="yes"/>
      <point x="335" y="259"/>
      <point x="337" y="263"/>
      <point x="337" y="268" type="curve" smooth="yes"/>
      <point x="337" y="325" type="line" smooth="yes"/>
      <point x="337" y="330"/>
      <point x="335" y="334"/>
      <point x="332" y="336" type="curve" smooth="yes"/>
      <point x="94" y="448" type="line" smooth="yes"/>
      <point x="87" y="451"/>
      <point x="83" y="447"/>
      <point x="83" y="440" type="curve" smooth="yes"/>
      <point x="83" y="369" type="line" smooth="yes"/>
      <point x="83" y="363"/>
      <point x="85" y="358"/>
      <point x="89" y="357" type="curve" smooth="yes"/>
      <point x="261" y="297" type="line"/>
      <point x="89" y="235" type="line" smooth="yes"/>
      <point x="85" y="233"/>
      <point x="83" y="230"/>
      <point x="83" y="224" type="curve" smooth="yes"/>
      <point x="83" y="152" type="line" smooth="yes"/>
      <point x="83" y="146"/>
      <point x="86" y="142"/>
    </contour>
  </outline>
</glyph>
<glyph name="question" format="2">
  <advance width="297"/>
  <unicode hex="003F"/>
  <outline>
    <contour>
      <point x="103" y="198" type="curve" smooth="yes"/>
      <point x="164" y="198" type="line" smooth="yes"/>
      <point x="168" y="198"/>
      <point x="171" y="203"/>
      <point x="171" y="208" type="curve" smooth="yes"/>
      <point x="172" y="249" type="line" smooth="yes"/>
      <point x="174" y="325"/>
      <point x="273" y="383"/>
      <point x="273" y="529" type="curve" smooth="yes"/>
      <point x="273" y="617"/>
      <point x="237" y="661"/>
      <point x="151" y="661" type="curve" smooth="yes"/>
      <point x="64" y="661"/>
      <point x="18" y="608"/>
      <point x="25" y="486" type="curve" smooth="yes"/>
      <point x="25" y="480"/>
      <point x="27" y="474"/>
      <point x="33" y="474" type="curve" smooth="yes"/>
      <point x="90" y="474" type="line" smooth="yes"/>
      <point x="95" y="474"/>
      <point x="97" y="479"/>
      <point x="97" y="485" type="curve" smooth="yes"/>
      <point x="94" y="558"/>
      <point x="103" y="592"/>
      <point x="148" y="592" type="curve" smooth="yes"/>
      <point x="184" y="592"/>
      <point x="197" y="575"/>
      <point x="197" y="524" type="curve" smooth="yes"/>
      <point x="197" y="391"/>
      <point x="97" y="354"/>
      <point x="97" y="247" type="curve" smooth="yes"/>
      <point x="97" y="208" type="line" smooth="yes"/>
      <point x="97" y="203"/>
      <point x="99" y="198"/>
    </contour>
    <contour>
      <point x="136" y="-6" type="curve" smooth="yes"/>
      <point x="168" y="-6"/>
      <point x="185" y="11"/>
      <point x="185" y="43" type="curve" smooth="yes"/>
      <point x="185" y="52" type="line" smooth="yes"/>
      <point x="185" y="84"/>
      <point x="168" y="102"/>
      <point x="136" y="102" type="curve" smooth="yes"/>
      <point x="103" y="102"/>
      <point x="87" y="84"/>
      <point x="87" y="52" type="curve" smooth="yes"/>
      <point x="87" y="43" type="line" smooth="yes"/>
      <point x="87" y="11"/>
      <point x="103" y="-6"/>
    </contour>
  </outline>
</glyph>
<glyph name="at" format="2">
  <advance width="593"/>
  <unicode hex="0040"/>
  <outline>
    <contour>
      <point x="296" y="-185" type="curve" smooth="yes"/>
      <point x="377" y="-185" type="line" smooth="yes"/>
      <point x="383" y="-185"/>
      <point x="387" y="-181"/>
      <point x="387" y="-175" type="curve" smooth="yes"/>
      <point x="387" y="-127" type="line" smooth="yes"/>
      <point x="387" y="-121"/>
      <point x="383" y="-117"/>
      <point x="377" y="-117" type="curve" smooth="yes"/>
      <point x="297" y="-117" type="line" smooth="yes"/>
      <point x="170.223" y="-117"/>
      <point x="100" y="-16.477"/>
      <point x="100" y="165" type="curve" smooth="yes"/>
      <point x="100" y="339" type="line" smooth="yes"/>
      <point x="100" y="521"/>
      <point x="170" y="621"/>
      <point x="296" y="621" type="curve" smooth="yes"/>
      <point x="423.468" y="621"/>
      <point x="492" y="522.398"/>
      <point x="492" y="339" type="curve" smooth="yes"/>
      <point x="492" y="256" type="line" smooth="yes"/>
      <point x="492" y="138.5"/>
      <point x="470.569" y="82"/>
      <point x="428" y="82" type="curve" smooth="yes"/>
      <point x="399" y="82"/>
      <point x="383" y="107"/>
      <point x="389" y="167" type="curve" smooth="yes"/>
      <point x="420" y="454" type="line" smooth="yes"/>
      <point x="421" y="462"/>
      <point x="419" y="466"/>
      <point x="414" y="467" type="curve" smooth="yes"/>
      <point x="376" y="475"/>
      <point x="339" y="489"/>
      <point x="300" y="489" type="curve" smooth="yes"/>
      <point x="231" y="489"/>
      <point x="196" y="439"/>
      <point x="186" y="340" type="curve" smooth="yes"/>
      <point x="166" y="143" type="line" smooth="yes"/>
      <point x="157" y="58"/>
      <point x="183" y="13"/>
      <point x="233" y="13" type="curve" smooth="yes"/>
      <point x="272" y="13"/>
      <point x="304" y="32"/>
      <point x="354" y="85" type="curve"/>
      <point x="350" y="158" type="line"/>
      <point x="324" y="115"/>
      <point x="284" y="82"/>
      <point x="259" y="82" type="curve" smooth="yes"/>
      <point x="236" y="82"/>
      <point x="227" y="100"/>
      <point x="232" y="146" type="curve" smooth="yes"/>
      <point x="251" y="332" type="line" smooth="yes"/>
      <point x="258" y="397"/>
      <point x="270" y="422"/>
      <point x="302" y="422" type="curve" smooth="yes"/>
      <point x="323" y="422"/>
      <point x="338" y="419"/>
      <point x="352" y="414" type="curve"/>
      <point x="323" y="151" type="line" smooth="yes"/>
      <point x="314" y="67"/>
      <point x="357" y="14"/>
      <point x="421" y="14" type="curve" smooth="yes"/>
      <point x="508.227" y="14"/>
      <point x="562" y="105"/>
      <point x="562" y="256" type="curve" smooth="yes"/>
      <point x="562" y="339" type="line" smooth="yes"/>
      <point x="562" y="559.211"/>
      <point x="463.36" y="689"/>
      <point x="296" y="689" type="curve" smooth="yes"/>
      <point x="129.64" y="689"/>
      <point x="30" y="557.895"/>
      <point x="30" y="339" type="curve" smooth="yes"/>
      <point x="30" y="165" type="line" smooth="yes"/>
      <point x="30" y="-53.895"/>
      <point x="129.64" y="-185"/>
    </contour>
  </outline>
</glyph>
<glyph name="B" format="2">
  <advance width="365"/>
  <unicode hex="0042"/>
  <anchor x="181" y="0" name="bottom"/>
  <anchor x="181" y="655" name="top"/>
  <outline>
    <contour>
      <point x="59" y="0" type="curve" smooth="yes"/>
      <point x="174" y="0" type="line" smooth="yes"/>
      <point x="282" y="0"/>
      <point x="338" y="65"/>
      <point x="338" y="184" type="curve" smooth="yes"/>
      <point x="338" y="272"/>
      <point x="308" y="327"/>
      <point x="252" y="346" type="curve"/>
      <point x="252" y="348" type="line"/>
      <point x="299" y="379"/>
      <point x="321" y="425"/>
      <point x="321" y="495" type="curve" smooth="yes"/>
      <point x="321" y="603"/>
      <point x="269" y="655"/>
      <point x="157" y="655" type="curve" smooth="yes"/>
      <point x="59" y="655" type="line" smooth="yes"/>
      <point x="52" y="655"/>
      <point x="49" y="651"/>
      <point x="49" y="645" type="curve" smooth="yes"/>
      <point x="49" y="10" type="line" smooth="yes"/>
      <point x="49" y="4"/>
      <point x="52" y="0"/>
    </contour>
    <contour>
      <point x="124" y="72" type="line"/>
      <point x="124" y="305" type="line"/>
      <point x="173" y="305" type="line" smooth="yes"/>
      <point x="235" y="305"/>
      <point x="263" y="270"/>
      <point x="263" y="190" type="curve" smooth="yes"/>
      <point x="263" y="109"/>
      <point x="233" y="72"/>
      <point x="172" y="72" type="curve" smooth="yes"/>
    </contour>
    <contour>
      <point x="124" y="375" type="line"/>
      <point x="124" y="583" type="line"/>
      <point x="164" y="583" type="line" smooth="yes"/>
      <point x="221" y="583"/>
      <point x="246" y="555"/>
      <point x="246" y="484" type="curve" smooth="yes"/>
      <point x="246" y="411"/>
      <point x="219" y="375"/>
      <point x="165" y="375" type="curve" smooth="yes"/>
    </contour>
  </outline>
</glyph>
<glyph name="C" format="2">
  <advance width="393"/>
  <unicode hex="0043"/>
  <anchor x="209" y="0" name="bottom"/>
  <anchor x="199" y="655" name="top"/>
  <outline>
    <contour>
      <point x="200" y="-6" type="curve" smooth="yes"/>
      <point x="308" y="-6"/>
      <point x="361" y="74"/>
      <point x="352" y="212" type="curve" smooth="yes"/>
      <point x="351" y="221"/>
      <point x="346" y="223"/>
      <point x="341" y="223" type="curve" smooth="yes"/>
      <point x="286" y="223" type="line" smooth="yes"/>
      <point x="280" y="223"/>
      <point x="277" y="218"/>
      <point x="278" y="212" type="curve" smooth="yes"/>
      <point x="286" y="125"/>
      <point x="264" y="66"/>
      <point x="200" y="66" type="curve" smooth="yes"/>
      <point x="145" y="66"/>
      <point x="115" y="106"/>
      <point x="115" y="199" type="curve" smooth="yes"/>
      <point x="115" y="456" type="line" smooth="yes"/>
      <point x="115" y="549"/>
      <point x="145" y="589"/>
      <point x="200" y="589" type="curve" smooth="yes"/>
      <point x="259" y="589"/>
      <point x="285" y="538"/>
      <point x="276" y="443" type="curve" smooth="yes"/>
      <point x="275" y="436"/>
      <point x="278" y="432"/>
      <point x="284" y="432" type="curve" smooth="yes"/>
      <point x="343" y="432" type="line" smooth="yes"/>
      <point x="348" y="432"/>
      <point x="350" y="435"/>
      <point x="351" y="441" type="curve" smooth="yes"/>
      <point x="369" y="574"/>
      <point x="312" y="661"/>
      <point x="200" y="661" type="curve" smooth="yes"/>
      <point x="96" y="661"/>
      <point x="40" y="596"/>
      <point x="40" y="461" type="curve" smooth="yes"/>
      <point x="40" y="194" type="line" smooth="yes"/>
      <point x="40" y="59"/>
      <point x="96" y="-6"/>
    </contour>
  </outline>
</glyph>
<glyph name="D" format="2">
  <advance width="400"/>
  <unicode hex="0044"/>
  <anchor x="169" y="0" name="bottom"/>
  <anchor x="201" y="327" name="center"/>
  <anchor x="169" y="656" name="top"/>
  <outline>
    <contour>
      <point x="59" y="0" type="curve" smooth="yes"/>
      <point x="164" y="0" type="line" smooth="yes"/>
      <point x="300" y="0"/>
      <point x="364" y="98"/>
      <point x="364" y="298" type="curve" smooth="yes"/>
      <point x="364" y="394" type="line" smooth="yes"/>
      <point x="364" y="569"/>
      <point x="298" y="655"/>
      <point x="159" y="655" type="curve" smooth="yes"/>
      <point x="58" y="655" type="line" smooth="yes"/>
      <point x="52" y="655"/>
      <point x="49" y="651"/>
      <point x="49" y="645" type="curve" smooth="yes"/>
      <point x="49" y="10" type="line" smooth="yes"/>
      <point x="49" y="4"/>
      <point x="52" y="0"/>
    </contour>
    <contour>
      <point x="124" y="72" type="line"/>
      <point x="124" y="583" type="line"/>
      <point x="155" y="583" type="line" smooth="yes"/>
      <point x="249" y="583"/>
      <point x="289" y="524"/>
      <point x="289" y="397" type="curve" smooth="yes"/>
      <point x="289" y="292" type="line" smooth="yes"/>
      <point x="289" y="140"/>
      <point x="251" y="72"/>
      <point x="158" y="72" type="curve" smooth="yes"/>
    </contour>
  </outline>
</glyph>
<glyph name="F" format="2">
  <advance width="327"/>
  <unicode hex="0046"/>
  <anchor x="165" y="0" name="bottom"/>
  <anchor x="175" y="655" name="top"/>
  <outline>
    <contour>
      <point x="56" y="0" type="curve" smooth="yes"/>
      <point x="117" y="0" type="line" smooth="yes"/>
      <point x="121" y="0"/>
      <point x="124" y="4"/>
      <point x="124" y="10" type="curve" smooth="yes"/>
      <point x="124" y="289" type="line"/>
      <point x="265" y="289" type="line" smooth="yes"/>
      <point x="270" y="289"/>
      <point x="273" y="293"/>
      <point x="273" y="299" type="curve" smooth="yes"/>
      <point x="273" y="348" type="line" smooth="yes"/>
      <point x="273" y="354"/>
      <point x="270" y="358"/>
      <point x="265" y="358" type="curve" smooth="yes"/>
      <point x="124" y="358" type="line"/>
      <point x="124" y="583" type="line"/>
      <point x="287" y="583" type="line" smooth="yes"/>
      <point x="292" y="583"/>
      <point x="295" y="587"/>
      <point x="295" y="593" type="curve" smooth="yes"/>
      <point x="295" y="645" type="line" smooth="yes"/>
      <point x="295" y="651"/>
      <point x="292" y="655"/>
      <point x="287" y="655" type="curve" smooth="yes"/>
      <point x="57" y="655" type="line" smooth="yes"/>
      <point x="52" y="655"/>
      <point x="49" y="651"/>
      <point x="49" y="645" type="curve" smooth="yes"/>
      <point x="49" y="10" type="line" smooth="yes"/>
      <point x="49" y="4"/>
      <point x="52" y="0"/>
    </contour>
  </outline>
</glyph>
<glyph name="G" format="2">
  <advance width="407"/>
  <unicode hex="0047"/>
  <guideline x="573" y="376" angle="90"/>
  <anchor x="197" y="0" name="bottom"/>
  <anchor x="199" y="655" name="top"/>
  <anchor x="48" y="655" name="topleft"/>
  <outline>
    <contour>
      <point x="180" y="-6" type="curve" smooth="yes"/>
      <point x="235" y="-6"/>
      <point x="275" y="22"/>
      <point x="293" y="71" type="curve"/>
      <point x="294" y="71" type="line"/>
      <point x="295" y="38"/>
      <point x="296" y="21"/>
      <point x="298" y="8" type="curve" smooth="yes"/>
      <point x="299" y="2"/>
      <point x="301" y="0"/>
      <point x="307" y="0" type="curve" smooth="yes"/>
      <point x="355" y="0" type="line" smooth="yes"/>
      <point x="360" y="0"/>
      <point x="363" y="4"/>
      <point x="362" y="11" type="curve" smooth="yes"/>
      <point x="358" y="39"/>
      <point x="357" y="65"/>
      <point x="357" y="125" type="curve" smooth="yes"/>
      <point x="357" y="323" type="line" smooth="yes"/>
      <point x="357" y="329"/>
      <point x="354" y="333"/>
      <point x="349" y="333" type="curve" smooth="yes"/>
      <point x="207" y="333" type="line" smooth="yes"/>
      <point x="201" y="333"/>
      <point x="199" y="330"/>
      <point x="199" y="323" type="curve" smooth="yes"/>
      <point x="199" y="271" type="line" smooth="yes"/>
      <point x="199" y="264"/>
      <point x="201" y="261"/>
      <point x="207" y="261" type="curve" smooth="yes"/>
      <point x="284" y="261" type="line"/>
      <point x="284" y="204" type="line" smooth="yes"/>
      <point x="284" y="111"/>
      <point x="254" y="66"/>
      <point x="195" y="66" type="curve" smooth="yes"/>
      <point x="136" y="66"/>
      <point x="115" y="101"/>
      <point x="115" y="192" type="curve" smooth="yes"/>
      <point x="115" y="460" type="line" smooth="yes"/>
      <point x="115" y="548"/>
      <point x="143" y="589"/>
      <point x="201" y="589" type="curve" smooth="yes"/>
      <point x="257" y="589"/>
      <point x="286" y="537"/>
      <point x="277" y="451" type="curve" smooth="yes"/>
      <point x="276" y="445"/>
      <point x="279" y="442"/>
      <point x="284" y="442" type="curve" smooth="yes"/>
      <point x="344" y="442" type="line" smooth="yes"/>
      <point x="349" y="442"/>
      <point x="352" y="446"/>
      <point x="352" y="451" type="curve" smooth="yes"/>
      <point x="364" y="581"/>
      <point x="306" y="661"/>
      <point x="199" y="661" type="curve" smooth="yes"/>
      <point x="96" y="661"/>
      <point x="40" y="590"/>
      <point x="40" y="464" type="curve" smooth="yes"/>
      <point x="40" y="186" type="line" smooth="yes"/>
      <point x="40" y="58"/>
      <point x="84" y="-6"/>
    </contour>
  </outline>
</glyph>
<glyph name="H" format="2">
  <advance width="413"/>
  <unicode hex="0048"/>
  <anchor x="207" y="0" name="bottom"/>
  <anchor x="207" y="356" name="center"/>
  <anchor x="207" y="655" name="top"/>
  <anchor x="24" y="655" name="topleft"/>
  <outline>
    <contour>
      <point x="57" y="0" type="curve" smooth="yes"/>
      <point x="116" y="0" type="line" smooth="yes"/>
      <point x="121" y="0"/>
      <point x="124" y="4"/>
      <point x="124" y="10" type="curve" smooth="yes"/>
      <point x="124" y="303" type="line"/>
      <point x="289" y="303" type="line"/>
      <point x="289" y="10" type="line" smooth="yes"/>
      <point x="289" y="4"/>
      <point x="291" y="0"/>
      <point x="297" y="0" type="curve" smooth="yes"/>
      <point x="356" y="0" type="line" smooth="yes"/>
      <point x="361" y="0"/>
      <point x="364" y="4"/>
      <point x="364" y="10" type="curve" smooth="yes"/>
      <point x="364" y="645" type="line" smooth="yes"/>
      <point x="364" y="652"/>
      <point x="361" y="655"/>
      <point x="356" y="655" type="curve" smooth="yes"/>
      <point x="297" y="655" type="line" smooth="yes"/>
      <point x="291" y="655"/>
      <point x="289" y="652"/>
      <point x="289" y="645" type="curve" smooth="yes"/>
      <point x="289" y="375" type="line"/>
      <point x="124" y="375" type="line"/>
      <point x="124" y="645" type="line" smooth="yes"/>
      <point x="124" y="651"/>
      <point x="121" y="655"/>
      <point x="116" y="655" type="curve" smooth="yes"/>
      <point x="57" y="655" type="line" smooth="yes"/>
      <point x="52" y="655"/>
      <point x="49" y="651"/>
      <point x="49" y="645" type="curve" smooth="yes"/>
      <point x="49" y="10" type="line" smooth="yes"/>
      <point x="49" y="4"/>
      <point x="52" y="0"/>
    </contour>
  </outline>
</glyph>
<glyph name="I" format="2">
  <advance width="173"/>
  <unicode hex="0049"/>
  <anchor x="88" y="0" name="bottom"/>
  <anchor x="130" y="10" name="ogonek"/>
  <anchor x="88" y="655" name="top"/>
  <anchor x="19" y="655" name="topleft"/>
  <outline>
    <contour>
      <point x="57" y="0" type="curve" smooth="yes"/>
      <point x="116" y="0" type="line" smooth="yes"/>
      <point x="121" y="0"/>
      <point x="124" y="4"/>
      <point x="124" y="10" type="curve" smooth="yes"/>
      <point x="124" y="645" type="line" smooth="yes"/>
      <point x="124" y="651"/>
      <point x="121" y="655"/>
      <point x="116" y="655" type="curve" smooth="yes"/>
      <point x="57" y="655" type="line" smooth="yes"/>
      <point x="52" y="655"/>
      <point x="49" y="651"/>
      <point x="49" y="645" type="curve" smooth="yes"/>
      <point x="49" y="10" type="line" smooth="yes"/>
      <point x="49" y="4"/>
      <point x="53" y="0"/>
    </contour>
  </outline>
</glyph>
<glyph name="J" format="2">
  <advance width="173"/>
  <unicode hex="004A"/>
  <anchor x="86" y="0" name="bottom"/>
  <anchor x="86" y="655" name="top"/>
  <outline>
    <contour>
      <point x="24" y="-138" type="curve" smooth="yes"/>
      <point x="88" y="-119"/>
      <point x="124" y="-68"/>
      <point x="124" y="74" type="curve" smooth="yes"/>
      <point x="124" y="645" type="line" smooth="yes"/>
      <point x="124" y="651"/>
      <point x="121" y="655"/>
      <point x="117" y="655" type="curve" smooth="yes"/>
      <point x="57" y="655" type="line" smooth="yes"/>
      <point x="52" y="655"/>
      <point x="49" y="651"/>
      <point x="49" y="645" type="curve" smooth="yes"/>
      <point x="49" y="73" type="line" smooth="yes"/>
      <point x="49" y="-17"/>
      <point x="32" y="-51"/>
      <point x="0" y="-61" type="curve" smooth="yes"/>
      <point x="-8" y="-63"/>
      <point x="-9" y="-68"/>
      <point x="-7" y="-76" type="curve" smooth="yes"/>
      <point x="9" y="-131" type="line" smooth="yes"/>
      <point x="11" y="-138"/>
      <point x="15" y="-141"/>
    </contour>
  </outline>
</glyph>
<glyph name="K" format="2">
  <advance width="373"/>
  <unicode hex="004B"/>
  <anchor x="199" y="0" name="bottom"/>
  <anchor x="191" y="655" name="top"/>
  <outline>
    <contour>
      <point x="57" y="0" type="curve" smooth="yes"/>
      <point x="116" y="0" type="line" smooth="yes"/>
      <point x="121" y="0"/>
      <point x="124" y="4"/>
      <point x="124" y="10" type="curve" smooth="yes"/>
      <point x="124" y="207" type="line"/>
      <point x="177" y="307" type="line"/>
      <point x="285" y="7" type="line"/>
      <point x="286" y="3"/>
      <point x="290" y="0"/>
      <point x="294" y="0" type="curve" smooth="yes"/>
      <point x="364" y="0" type="line" smooth="yes"/>
      <point x="370" y="0"/>
      <point x="372" y="5"/>
      <point x="369" y="12" type="curve"/>
      <point x="224" y="393" type="line"/>
      <point x="357" y="643" type="line" smooth="yes"/>
      <point x="361" y="650"/>
      <point x="358" y="655"/>
      <point x="352" y="655" type="curve" smooth="yes"/>
      <point x="283" y="655" type="line" smooth="yes"/>
      <point x="279" y="655"/>
      <point x="276" y="654"/>
      <point x="275" y="651" type="curve"/>
      <point x="176" y="447" type="line" smooth="yes"/>
      <point x="157" y="407"/>
      <point x="138" y="365"/>
      <point x="122" y="321" type="curve"/>
      <point x="120" y="321" type="line"/>
      <point x="123" y="364"/>
      <point x="124" y="405"/>
      <point x="124" y="448" type="curve" smooth="yes"/>
      <point x="124" y="645" type="line" smooth="yes"/>
      <point x="124" y="651"/>
      <point x="121" y="655"/>
      <point x="116" y="655" type="curve" smooth="yes"/>
      <point x="57" y="655" type="line" smooth="yes"/>
      <point x="52" y="655"/>
      <point x="49" y="651"/>
      <point x="49" y="645" type="curve" smooth="yes"/>
      <point x="49" y="10" type="line" smooth="yes"/>
      <point x="49" y="4"/>
      <point x="52" y="0"/>
    </contour>
  </outline>
</glyph>
<glyph name="L" format="2">
  <advance width="304"/>
  <unicode hex="004C"/>
  <anchor x="171" y="0" name="bottom"/>
  <anchor x="157" y="356" name="center"/>
  <anchor x="87" y="655" name="top"/>
  <anchor x="291" y="655" name="topright"/>
  <outline>
    <contour>
      <point x="57" y="0" type="curve" smooth="yes"/>
      <point x="280" y="0" type="line" smooth="yes"/>
      <point x="286" y="0"/>
      <point x="289" y="4"/>
      <point x="289" y="10" type="curve" smooth="yes"/>
      <point x="289" y="62" type="line" smooth="yes"/>
      <point x="289" y="68"/>
      <point x="286" y="72"/>
      <point x="280" y="72" type="curve" smooth="yes"/>
      <point x="124" y="72" type="line"/>
      <point x="124" y="645" type="line" smooth="yes"/>
      <point x="124" y="651"/>
      <point x="121" y="655"/>
      <point x="116" y="655" type="curve" smooth="yes"/>
      <point x="57" y="655" type="line" smooth="yes"/>
      <point x="51" y="655"/>
      <point x="49" y="651"/>
      <point x="49" y="645" type="curve" smooth="yes"/>
      <point x="49" y="10" type="line" smooth="yes"/>
      <point x="49" y="4"/>
      <point x="52" y="0"/>
    </contour>
  </outline>
</glyph>
<glyph name="M" format="2">
  <advance width="486"/>
  <unicode hex="004D"/>
  <anchor x="243" y="0" name="bottom"/>
  <anchor x="243" y="655" name="top"/>
  <outline>
    <contour>
      <point x="48" y="0" type="curve" smooth="yes"/>
      <point x="107" y="0" type="line" smooth="yes"/>
      <point x="112" y="0"/>
      <point x="115" y="3"/>
      <point x="115" y="10" type="curve" smooth="yes"/>
      <point x="119" y="413" type="line" smooth="yes"/>
      <point x="119" y="452"/>
      <point x="119" y="502"/>
      <point x="117" y="545" type="curve"/>
      <point x="119" y="545" type="line"/>
      <point x="126" y="504"/>
      <point x="135" y="462"/>
      <point x="146" y="421" type="curve" smooth="yes"/>
      <point x="231" y="92" type="line" smooth="yes"/>
      <point x="232" y="87"/>
      <point x="236" y="85"/>
      <point x="240" y="85" type="curve" smooth="yes"/>
      <point x="245" y="85" type="line" smooth="yes"/>
      <point x="249" y="85"/>
      <point x="254" y="87"/>
      <point x="255" y="92" type="curve" smooth="yes"/>
      <point x="339" y="421" type="line" smooth="yes"/>
      <point x="350" y="462"/>
      <point x="360" y="504"/>
      <point x="367" y="545" type="curve"/>
      <point x="369" y="545" type="line"/>
      <point x="367" y="502"/>
      <point x="367" y="452"/>
      <point x="367" y="413" type="curve" smooth="yes"/>
      <point x="371" y="10" type="line" smooth="yes"/>
      <point x="371" y="3"/>
      <point x="374" y="0"/>
      <point x="379" y="0" type="curve" smooth="yes"/>
      <point x="438" y="0" type="line" smooth="yes"/>
      <point x="442" y="0"/>
      <point x="445" y="4"/>
      <point x="445" y="10" type="curve" smooth="yes"/>
      <point x="437" y="645" type="line" smooth="yes"/>
      <point x="437" y="652"/>
      <point x="434" y="655"/>
      <point x="429" y="655" type="curve" smooth="yes"/>
      <point x="338" y="655" type="line" smooth="yes"/>
      <point x="333" y="655"/>
      <point x="329" y="653"/>
      <point x="328" y="647" type="curve" smooth="yes"/>
      <point x="243" y="275" type="line"/>
      <point x="158" y="647" type="line" smooth="yes"/>
      <point x="157" y="653"/>
      <point x="153" y="655"/>
      <point x="148" y="655" type="curve" smooth="yes"/>
      <point x="57" y="655" type="line" smooth="yes"/>
      <point x="52" y="655"/>
      <point x="49" y="652"/>
      <point x="49" y="645" type="curve" smooth="yes"/>
      <point x="41" y="10" type="line" smooth="yes"/>
      <point x="41" y="4"/>
      <point x="44" y="0"/>
    </contour>
  </outline>
</glyph>
<glyph name="N" format="2">
  <advance width="414"/>
  <unicode hex="004E"/>
  <guideline x="190" y="372" angle="0"/>
  <anchor x="207" y="0" name="bottom"/>
  <anchor x="207" y="655" name="top"/>
  <outline>
    <contour>
      <point x="56" y="0" type="curve" smooth="yes"/>
      <point x="115" y="0" type="line" smooth="yes"/>
      <point x="120" y="0"/>
      <point x="122" y="4"/>
      <point x="122" y="10" type="curve" smooth="yes"/>
      <point x="122" y="372" type="line" smooth="yes"/>
      <point x="122" y="424"/>
      <point x="120" y="507"/>
      <point x="118" y="559" type="curve"/>
      <point x="120" y="559" type="line"/>
      <point x="128" y="507"/>
      <point x="138" y="444"/>
      <point x="156" y="378" type="curve" smooth="yes"/>
      <point x="255" y="6" type="line" smooth="yes"/>
      <point x="256" y="2"/>
      <point x="259" y="0"/>
      <point x="263" y="0" type="curve" smooth="yes"/>
      <point x="357" y="0" type="line" smooth="yes"/>
      <point x="362" y="0"/>
      <point x="365" y="4"/>
      <point x="365" y="10" type="curve" smooth="yes"/>
      <point x="365" y="646" type="line" smooth="yes"/>
      <point x="365" y="652"/>
      <point x="362" y="655"/>
      <point x="357" y="655" type="curve" smooth="yes"/>
      <point x="300" y="655" type="line" smooth="yes"/>
      <point x="294" y="655"/>
      <point x="292" y="652"/>
      <point x="292" y="646" type="curve" smooth="yes"/>
      <point x="292" y="269" type="line" smooth="yes"/>
      <point x="292" y="222"/>
      <point x="295" y="143"/>
      <point x="298" y="96" type="curve"/>
      <point x="296" y="96" type="line"/>
      <point x="289" y="140"/>
      <point x="274" y="218"/>
      <point x="262" y="264" type="curve" smooth="yes"/>
      <point x="161" y="648" type="line" smooth="yes"/>
      <point x="160" y="653"/>
      <point x="156" y="655"/>
      <point x="152" y="655" type="curve" smooth="yes"/>
      <point x="57" y="655" type="line" smooth="yes"/>
      <point x="52" y="655"/>
      <point x="49" y="651"/>
      <point x="49" y="645" type="curve" smooth="yes"/>
      <point x="49" y="10" type="line" smooth="yes"/>
      <point x="49" y="4"/>
      <point x="52" y="0"/>
    </contour>
  </outline>
</glyph>
<glyph name="O" format="2">
  <advance width="400"/>
  <unicode hex="004F"/>
  <anchor x="200" y="-28" name="bottom"/>
  <anchor x="200" y="356" name="center"/>
  <anchor x="356" y="10" name="ogonek"/>
  <anchor x="200" y="655" name="top"/>
  <anchor x="35" y="655" name="topleft"/>
  <anchor x="383" y="655" name="topright"/>
  <outline>
    <contour>
      <point x="200" y="-6" type="curve" smooth="yes"/>
      <point x="302" y="-6"/>
      <point x="360" y="55"/>
      <point x="360" y="181" type="curve" smooth="yes"/>
      <point x="360" y="472" type="line" smooth="yes"/>
      <point x="360" y="600"/>
      <point x="302" y="661"/>
      <point x="200" y="661" type="curve" smooth="yes"/>
      <point x="98" y="661"/>
      <point x="40" y="600"/>
      <point x="40" y="472" type="curve" smooth="yes"/>
      <point x="40" y="181" type="line" smooth="yes"/>
      <point x="40" y="55"/>
      <point x="98" y="-6"/>
    </contour>
    <contour>
      <point x="200" y="66" type="curve" smooth="yes"/>
      <point x="145" y="66"/>
      <point x="115" y="103"/>
      <point x="115" y="186" type="curve" smooth="yes"/>
      <point x="115" y="467" type="line" smooth="yes"/>
      <point x="115" y="552"/>
      <point x="145" y="589"/>
      <point x="200" y="589" type="curve" smooth="yes"/>
      <point x="255" y="589"/>
      <point x="285" y="552"/>
      <point x="285" y="467" type="curve" smooth="yes"/>
      <point x="285" y="186" type="line" smooth="yes"/>
      <point x="285" y="103"/>
      <point x="255" y="66"/>
    </contour>
  </outline>
</glyph>
<glyph name="P" format="2">
  <advance width="346"/>
  <unicode hex="0050"/>
  <anchor x="173" y="0" name="bottom"/>
  <anchor x="173" y="655" name="top"/>
  <outline>
    <contour>
      <point x="57" y="0" type="curve" smooth="yes"/>
      <point x="116" y="0" type="line" smooth="yes"/>
      <point x="121" y="0"/>
      <point x="124" y="4"/>
      <point x="124" y="10" type="curve" smooth="yes"/>
      <point x="124" y="249" type="line"/>
      <point x="164" y="249" type="line" smooth="yes"/>
      <point x="267" y="249"/>
      <point x="323" y="320"/>
      <point x="323" y="452" type="curve" smooth="yes"/>
      <point x="323" y="590"/>
      <point x="273" y="655"/>
      <point x="158" y="655" type="curve" smooth="yes"/>
      <point x="57" y="655" type="line" smooth="yes"/>
      <point x="52" y="655"/>
      <point x="49" y="651"/>
      <point x="49" y="645" type="curve" smooth="yes"/>
      <point x="49" y="10" type="line" smooth="yes"/>
      <point x="49" y="4"/>
      <point x="52" y="0"/>
    </contour>
    <contour>
      <point x="124" y="321" type="line"/>
      <point x="124" y="584" type="line"/>
      <point x="162" y="584" type="line" smooth="yes"/>
      <point x="221" y="584"/>
      <point x="248" y="546"/>
      <point x="248" y="449" type="curve" smooth="yes"/>
      <point x="248" y="360"/>
      <point x="219" y="321"/>
      <point x="158" y="321" type="curve" smooth="yes"/>
    </contour>
  </outline>
</glyph>
<glyph name="Q" format="2">
  <advance width="400"/>
  <unicode hex="0051"/>
  <guideline x="492" y="-145" angle="90"/>
  <anchor x="195" y="0" name="bottom"/>
  <anchor x="195" y="655" name="top"/>
  <outline>
    <contour>
      <point x="275" y="-182" type="curve" smooth="yes"/>
      <point x="291" y="-182"/>
      <point x="302" y="-179"/>
      <point x="309" y="-176" type="curve" smooth="yes"/>
      <point x="316" y="-173"/>
      <point x="317" y="-169"/>
      <point x="317" y="-163" type="curve" smooth="yes"/>
      <point x="317" y="-114" type="line" smooth="yes"/>
      <point x="317" y="-107"/>
      <point x="315" y="-104"/>
      <point x="310" y="-105" type="curve" smooth="yes"/>
      <point x="303" y="-106"/>
      <point x="297" y="-109"/>
      <point x="290" y="-109" type="curve" smooth="yes"/>
      <point x="266" y="-109"/>
      <point x="253" y="-89"/>
      <point x="254" y="28" type="curve" smooth="yes"/>
      <point x="254" y="35"/>
      <point x="252" y="39"/>
      <point x="248" y="39" type="curve" smooth="yes"/>
      <point x="189" y="35" type="line" smooth="yes"/>
      <point x="185" y="35"/>
      <point x="179" y="32"/>
      <point x="179" y="26" type="curve" smooth="yes"/>
      <point x="177" y="-140"/>
      <point x="217" y="-182"/>
    </contour>
    <component base="O"/>
  </outline>
</glyph>
<glyph name="R" format="2">
  <advance width="375"/>
  <unicode hex="0052"/>
  <guideline x="529" y="312" angle="90"/>
  <anchor x="194" y="0" name="bottom"/>
  <anchor x="169" y="655" name="top"/>
  <outline>
    <contour>
      <point x="57" y="0" type="curve" smooth="yes"/>
      <point x="116" y="0" type="line" smooth="yes"/>
      <point x="121" y="0"/>
      <point x="124" y="4"/>
      <point x="124" y="10" type="curve" smooth="yes"/>
      <point x="124" y="281" type="line"/>
      <point x="182" y="281" type="line"/>
      <point x="276" y="7" type="line" smooth="yes"/>
      <point x="278" y="2"/>
      <point x="281" y="0"/>
      <point x="285" y="0" type="curve" smooth="yes"/>
      <point x="349" y="0" type="line" smooth="yes"/>
      <point x="356" y="0"/>
      <point x="358" y="5"/>
      <point x="356" y="12" type="curve" smooth="yes"/>
      <point x="256" y="297" type="line"/>
      <point x="256" y="298" type="line"/>
      <point x="303" y="320"/>
      <point x="334" y="376"/>
      <point x="334" y="477" type="curve" smooth="yes"/>
      <point x="334" y="596"/>
      <point x="283" y="655"/>
      <point x="170" y="655" type="curve" smooth="yes"/>
      <point x="57" y="655" type="line" smooth="yes"/>
      <point x="52" y="655"/>
      <point x="49" y="651"/>
      <point x="49" y="645" type="curve" smooth="yes"/>
      <point x="49" y="10" type="line" smooth="yes"/>
      <point x="49" y="4"/>
      <point x="52" y="0"/>
    </contour>
    <contour>
      <point x="124" y="350" type="line"/>
      <point x="124" y="583" type="line"/>
      <point x="169" y="583" type="line" smooth="yes"/>
      <point x="230" y="583"/>
      <point x="259" y="553"/>
      <point x="259" y="470" type="curve" smooth="yes"/>
      <point x="259" y="388"/>
      <point x="233" y="350"/>
      <point x="170" y="350" type="curve" smooth="yes"/>
    </contour>
  </outline>
</glyph>
<glyph name="S" format="2">
  <advance width="343"/>
  <unicode hex="0053"/>
  <anchor x="173" y="0" name="bottom"/>
  <anchor x="173" y="655" name="top"/>
  <outline>
    <contour>
      <point x="168" y="-6" type="curve" smooth="yes"/>
      <point x="270" y="-6"/>
      <point x="317" y="58"/>
      <point x="317" y="160" type="curve" smooth="yes"/>
      <point x="317" y="243"/>
      <point x="294" y="292"/>
      <point x="239" y="335" type="curve" smooth="yes"/>
      <point x="159" y="398" type="line" smooth="yes"/>
      <point x="123" y="427"/>
      <point x="105" y="459"/>
      <point x="106" y="510" type="curve" smooth="yes"/>
      <point x="107" y="564"/>
      <point x="131" y="589"/>
      <point x="170" y="589" type="curve" smooth="yes"/>
      <point x="217" y="589"/>
      <point x="241" y="549"/>
      <point x="233" y="480" type="curve" smooth="yes"/>
      <point x="232" y="471"/>
      <point x="235" y="467"/>
      <point x="240" y="467" type="curve" smooth="yes"/>
      <point x="299" y="467" type="line" smooth="yes"/>
      <point x="304" y="467"/>
      <point x="306" y="471"/>
      <point x="307" y="480" type="curve" smooth="yes"/>
      <point x="319" y="591"/>
      <point x="270" y="661"/>
      <point x="169" y="661" type="curve" smooth="yes"/>
      <point x="83" y="661"/>
      <point x="32" y="605"/>
      <point x="31" y="508" type="curve" smooth="yes"/>
      <point x="30" y="432"/>
      <point x="56" y="379"/>
      <point x="110" y="336" type="curve" smooth="yes"/>
      <point x="194" y="270" type="line" smooth="yes"/>
      <point x="229" y="243"/>
      <point x="242" y="209"/>
      <point x="242" y="156" type="curve" smooth="yes"/>
      <point x="242" y="95"/>
      <point x="218" y="66"/>
      <point x="171" y="66" type="curve" smooth="yes"/>
      <point x="119" y="66"/>
      <point x="91" y="103"/>
      <point x="101" y="180" type="curve" smooth="yes"/>
      <point x="102" y="188"/>
      <point x="99" y="192"/>
      <point x="93" y="192" type="curve" smooth="yes"/>
      <point x="35" y="192" type="line" smooth="yes"/>
      <point x="30" y="192"/>
      <point x="28" y="190"/>
      <point x="27" y="180" type="curve" smooth="yes"/>
      <point x="17" y="77"/>
      <point x="56" y="-6"/>
    </contour>
  </outline>
</glyph>
<glyph name="T" format="2">
  <advance width="325"/>
  <unicode hex="0054"/>
  <anchor x="164" y="0" name="bottom"/>
  <anchor x="165" y="328" name="center"/>
  <anchor x="165" y="655" name="top"/>
  <outline>
    <contour>
      <point x="133" y="0" type="curve" smooth="yes"/>
      <point x="192" y="0" type="line" smooth="yes"/>
      <point x="197" y="0"/>
      <point x="200" y="4"/>
      <point x="200" y="10" type="curve" smooth="yes"/>
      <point x="200" y="583" type="line"/>
      <point x="301" y="583" type="line" smooth="yes"/>
      <point x="307" y="583"/>
      <point x="309" y="587"/>
      <point x="309" y="593" type="curve" smooth="yes"/>
      <point x="309" y="645" type="line" smooth="yes"/>
      <point x="309" y="651"/>
      <point x="307" y="655"/>
      <point x="301" y="655" type="curve" smooth="yes"/>
      <point x="24" y="655" type="line" smooth="yes"/>
      <point x="19" y="655"/>
      <point x="16" y="651"/>
      <point x="16" y="645" type="curve" smooth="yes"/>
      <point x="16" y="593" type="line" smooth="yes"/>
      <point x="16" y="587"/>
      <point x="19" y="583"/>
      <point x="24" y="583" type="curve" smooth="yes"/>
      <point x="125" y="583" type="line"/>
      <point x="125" y="10" type="line" smooth="yes"/>
      <point x="125" y="4"/>
      <point x="128" y="0"/>
    </contour>
  </outline>
</glyph>
<glyph name="U" format="2">
  <advance width="402"/>
  <unicode hex="0055"/>
  <anchor x="201" y="0" name="bottom"/>
  <anchor x="266" y="10" name="ogonek"/>
  <anchor x="201" y="655" name="top"/>
  <anchor x="49" y="655" name="topleft"/>
  <anchor x="384" y="655" name="topright"/>
  <outline>
    <contour>
      <point x="201" y="-6" type="curve" smooth="yes"/>
      <point x="306" y="-6"/>
      <point x="357" y="61"/>
      <point x="357" y="200" type="curve" smooth="yes"/>
      <point x="357" y="646" type="line" smooth="yes"/>
      <point x="357" y="652"/>
      <point x="354" y="655"/>
      <point x="349" y="655" type="curve" smooth="yes"/>
      <point x="290" y="655" type="line" smooth="yes"/>
      <point x="284" y="655"/>
      <point x="282" y="652"/>
      <point x="282" y="646" type="curve" smooth="yes"/>
      <point x="282" y="201" type="line" smooth="yes"/>
      <point x="282" y="106"/>
      <point x="258" y="66"/>
      <point x="201" y="66" type="curve" smooth="yes"/>
      <point x="144" y="66"/>
      <point x="120" y="107"/>
      <point x="120" y="201" type="curve" smooth="yes"/>
      <point x="120" y="646" type="line" smooth="yes"/>
      <point x="120" y="652"/>
      <point x="117" y="655"/>
      <point x="112" y="655" type="curve" smooth="yes"/>
      <point x="53" y="655" type="line" smooth="yes"/>
      <point x="47" y="655"/>
      <point x="45" y="652"/>
      <point x="45" y="646" type="curve" smooth="yes"/>
      <point x="45" y="200" type="line" smooth="yes"/>
      <point x="45" y="61"/>
      <point x="93" y="-6"/>
    </contour>
  </outline>
</glyph>
<glyph name="V" format="2">
  <advance width="370"/>
  <unicode hex="0056"/>
  <anchor x="185" y="0" name="bottom"/>
  <anchor x="185" y="655" name="top"/>
  <outline>
    <contour>
      <point x="140" y="0" type="curve" smooth="yes"/>
      <point x="229" y="0" type="line" smooth="yes"/>
      <point x="233" y="0"/>
      <point x="236" y="3"/>
      <point x="237" y="8" type="curve" smooth="yes"/>
      <point x="359" y="644" type="line" smooth="yes"/>
      <point x="361" y="652"/>
      <point x="358" y="655"/>
      <point x="353" y="655" type="curve" smooth="yes"/>
      <point x="289" y="655" type="line" smooth="yes"/>
      <point x="285" y="655"/>
      <point x="282" y="652"/>
      <point x="281" y="647" type="curve" smooth="yes"/>
      <point x="207" y="230" type="line" smooth="yes"/>
      <point x="199" y="183"/>
      <point x="191" y="136"/>
      <point x="185" y="89" type="curve"/>
      <point x="183" y="89" type="line"/>
      <point x="177" y="136"/>
      <point x="170" y="183"/>
      <point x="162" y="230" type="curve" smooth="yes"/>
      <point x="89" y="648" type="line" smooth="yes"/>
      <point x="88" y="652"/>
      <point x="85" y="655"/>
      <point x="80" y="655" type="curve" smooth="yes"/>
      <point x="16" y="655" type="line" smooth="yes"/>
      <point x="11" y="655"/>
      <point x="9" y="651"/>
      <point x="10" y="644" type="curve" smooth="yes"/>
      <point x="132" y="7" type="line" smooth="yes"/>
      <point x="133" y="3"/>
      <point x="136" y="0"/>
    </contour>
  </outline>
</glyph>
<glyph name="W" format="2">
  <advance width="531"/>
  <unicode hex="0057"/>
  <anchor x="265" y="0" name="bottom"/>
  <anchor x="266" y="655" name="top"/>
  <outline>
    <contour>
      <point x="124" y="0" type="curve" smooth="yes"/>
      <point x="198" y="0" type="line" smooth="yes"/>
      <point x="202" y="0"/>
      <point x="205" y="3"/>
      <point x="206" y="8" type="curve" smooth="yes"/>
      <point x="251" y="259" type="line" smooth="yes"/>
      <point x="258" y="298"/>
      <point x="264" y="336"/>
      <point x="269" y="375" type="curve"/>
      <point x="271" y="375" type="line"/>
      <point x="274" y="336"/>
      <point x="279" y="298"/>
      <point x="285" y="259" type="curve" smooth="yes"/>
      <point x="323" y="8" type="line" smooth="yes"/>
      <point x="324" y="3"/>
      <point x="327" y="0"/>
      <point x="331" y="0" type="curve" smooth="yes"/>
      <point x="409" y="0" type="line" smooth="yes"/>
      <point x="413" y="0"/>
      <point x="415" y="3"/>
      <point x="416" y="8" type="curve" smooth="yes"/>
      <point x="518" y="644" type="line" smooth="yes"/>
      <point x="519" y="651"/>
      <point x="517" y="655"/>
      <point x="512" y="655" type="curve" smooth="yes"/>
      <point x="449" y="655" type="line" smooth="yes"/>
      <point x="445" y="655"/>
      <point x="442" y="652"/>
      <point x="441" y="647" type="curve" smooth="yes"/>
      <point x="386" y="267" type="line" smooth="yes"/>
      <point x="377" y="202"/>
      <point x="373" y="138"/>
      <point x="370" y="93" type="curve"/>
      <point x="368" y="93" type="line"/>
      <point x="364" y="138"/>
      <point x="358" y="183"/>
      <point x="351" y="228" type="curve" smooth="yes"/>
      <point x="289" y="636" type="line" smooth="yes"/>
      <point x="288" y="642"/>
      <point x="285" y="645"/>
      <point x="280" y="645" type="curve" smooth="yes"/>
      <point x="219" y="645" type="line" smooth="yes"/>
      <point x="214" y="645"/>
      <point x="211" y="642"/>
      <point x="212" y="635" type="curve" smooth="yes"/>
      <point x="233" y="508" type="line"/>
      <point x="186" y="228" type="line" smooth="yes"/>
      <point x="178" y="183"/>
      <point x="171" y="138"/>
      <point x="165" y="93" type="curve"/>
      <point x="163" y="93" type="line"/>
      <point x="160" y="138"/>
      <point x="154" y="213"/>
      <point x="146" y="268" type="curve" smooth="yes"/>
      <point x="89" y="647" type="line" smooth="yes"/>
      <point x="88" y="652"/>
      <point x="85" y="655"/>
      <point x="81" y="655" type="curve" smooth="yes"/>
      <point x="19" y="655" type="line" smooth="yes"/>
      <point x="14" y="655"/>
      <point x="12" y="651"/>
      <point x="13" y="644" type="curve" smooth="yes"/>
      <point x="117" y="8" type="line" smooth="yes"/>
      <point x="118" y="2"/>
      <point x="120" y="0"/>
    </contour>
  </outline>
</glyph>
<glyph name="X" format="2">
  <advance width="344"/>
  <unicode hex="0058"/>
  <anchor x="172" y="0" name="bottom"/>
  <anchor x="172" y="655" name="top"/>
  <outline>
    <contour>
      <point x="6" y="0" type="curve" smooth="yes"/>
      <point x="76" y="0" type="line" smooth="yes"/>
      <point x="80" y="0"/>
      <point x="83" y="3"/>
      <point x="84" y="7" type="curve" smooth="yes"/>
      <point x="135" y="158" type="line" smooth="yes"/>
      <point x="148" y="196"/>
      <point x="160" y="235"/>
      <point x="171" y="273" type="curve"/>
      <point x="172" y="273" type="line"/>
      <point x="182" y="235"/>
      <point x="194" y="196"/>
      <point x="207" y="158" type="curve" smooth="yes"/>
      <point x="258" y="6" type="line" smooth="yes"/>
      <point x="259" y="2"/>
      <point x="262" y="0"/>
      <point x="266" y="0" type="curve" smooth="yes"/>
      <point x="339" y="0" type="line" smooth="yes"/>
      <point x="344" y="0"/>
      <point x="346" y="5"/>
      <point x="343" y="12" type="curve" smooth="yes"/>
      <point x="220" y="336" type="line"/>
      <point x="336" y="643" type="line" smooth="yes"/>
      <point x="339" y="650"/>
      <point x="338" y="655"/>
      <point x="332" y="655" type="curve" smooth="yes"/>
      <point x="263" y="655" type="line" smooth="yes"/>
      <point x="260" y="655"/>
      <point x="256" y="653"/>
      <point x="255" y="649" type="curve" smooth="yes"/>
      <point x="210" y="513" type="line" smooth="yes"/>
      <point x="197" y="475"/>
      <point x="185" y="438"/>
      <point x="174" y="400" type="curve"/>
      <point x="173" y="400" type="line"/>
      <point x="162" y="437"/>
      <point x="150" y="475"/>
      <point x="138" y="512" type="curve" smooth="yes"/>
      <point x="93" y="650" type="line" smooth="yes"/>
      <point x="92" y="653"/>
      <point x="89" y="655"/>
      <point x="86" y="655" type="curve" smooth="yes"/>
      <point x="13" y="655" type="line" smooth="yes"/>
      <point x="8" y="655"/>
      <point x="6" y="650"/>
      <point x="9" y="643" type="curve" smooth="yes"/>
      <point x="126" y="338" type="line"/>
      <point x="1" y="12" type="line" smooth="yes"/>
      <point x="-2" y="5"/>
      <point x="0" y="0"/>
    </contour>
  </outline>
</glyph>
<glyph name="Y" format="2">
  <advance width="348"/>
  <unicode hex="0059"/>
  <anchor x="174" y="0" name="bottom"/>
  <anchor x="174" y="655" name="top"/>
  <anchor x="13" y="655" name="topleft"/>
  <outline>
    <contour>
      <point x="144" y="0" type="curve" smooth="yes"/>
      <point x="205" y="0" type="line" smooth="yes"/>
      <point x="210" y="0"/>
      <point x="212" y="4"/>
      <point x="212" y="10" type="curve" smooth="yes"/>
      <point x="212" y="225" type="line"/>
      <point x="340" y="643" type="line" smooth="yes"/>
      <point x="342" y="650"/>
      <point x="340" y="655"/>
      <point x="334" y="655" type="curve" smooth="yes"/>
      <point x="267" y="655" type="line" smooth="yes"/>
      <point x="264" y="655"/>
      <point x="260" y="653"/>
      <point x="259" y="648" type="curve" smooth="yes"/>
      <point x="205" y="438" type="line" smooth="yes"/>
      <point x="195" y="398"/>
      <point x="184" y="359"/>
      <point x="175" y="319" type="curve"/>
      <point x="174" y="319" type="line"/>
      <point x="165" y="358"/>
      <point x="154" y="398"/>
      <point x="144" y="437" type="curve" smooth="yes"/>
      <point x="90" y="648" type="line" smooth="yes"/>
      <point x="89" y="653"/>
      <point x="86" y="655"/>
      <point x="82" y="655" type="curve" smooth="yes"/>
      <point x="13" y="655" type="line" smooth="yes"/>
      <point x="8" y="655"/>
      <point x="6" y="650"/>
      <point x="8" y="643" type="curve" smooth="yes"/>
      <point x="137" y="224" type="line"/>
      <point x="137" y="10" type="line" smooth="yes"/>
      <point x="137" y="4"/>
      <point x="140" y="0"/>
    </contour>
  </outline>
</glyph>
<glyph name="Z" format="2">
  <advance width="338"/>
  <unicode hex="005A"/>
  <anchor x="168" y="0" name="bottom"/>
  <anchor x="173" y="655" name="top"/>
  <outline>
    <contour>
      <point x="17" y="0" type="curve" smooth="yes"/>
      <point x="302" y="0" type="line" smooth="yes"/>
      <point x="307" y="0"/>
      <point x="310" y="4"/>
      <point x="310" y="10" type="curve" smooth="yes"/>
      <point x="310" y="62" type="line" smooth="yes"/>
      <point x="310" y="68"/>
      <point x="307" y="72"/>
      <point x="302" y="72" type="curve" smooth="yes"/>
      <point x="186" y="72" type="line" smooth="yes"/>
      <point x="161" y="72"/>
      <point x="144" y="72"/>
      <point x="111" y="71" type="curve"/>
      <point x="111" y="73" type="line"/>
      <point x="122" y="101"/>
      <point x="132" y="128"/>
      <point x="143" y="156" type="curve" smooth="yes"/>
      <point x="324" y="632" type="line" smooth="yes"/>
      <point x="326" y="637"/>
      <point x="326" y="641"/>
      <point x="326" y="645" type="curve" smooth="yes"/>
      <point x="326" y="647" type="line" smooth="yes"/>
      <point x="326" y="652"/>
      <point x="324" y="655"/>
      <point x="319" y="655" type="curve" smooth="yes"/>
      <point x="37" y="655" type="line" smooth="yes"/>
      <point x="32" y="655"/>
      <point x="29" y="651"/>
      <point x="29" y="645" type="curve" smooth="yes"/>
      <point x="29" y="593" type="line" smooth="yes"/>
      <point x="29" y="587"/>
      <point x="32" y="583"/>
      <point x="37" y="583" type="curve" smooth="yes"/>
      <point x="148" y="583" type="line" smooth="yes"/>
      <point x="173" y="583"/>
      <point x="197" y="583"/>
      <point x="224" y="584" type="curve"/>
      <point x="224" y="582" type="line"/>
      <point x="210" y="546"/>
      <point x="196" y="512"/>
      <point x="183" y="476" type="curve" smooth="yes"/>
      <point x="13" y="23" type="line" smooth="yes"/>
      <point x="11" y="19"/>
      <point x="10" y="15"/>
      <point x="10" y="11" type="curve" smooth="yes"/>
      <point x="10" y="8" type="line" smooth="yes"/>
      <point x="10" y="3"/>
      <point x="13" y="0"/>
    </contour>
  </outline>
</glyph>
<glyph name="bracketleft" format="2">
  <advance width="168"/>
  <unicode hex="005B"/>
  <outline>
    <contour>
      <point x="47" y="-139" type="curve" smooth="yes"/>
      <point x="163" y="-139" type="line" smooth="yes"/>
      <point x="169" y="-139"/>
      <point x="173" y="-135"/>
      <point x="173" y="-129" type="curve" smooth="yes"/>
      <point x="173" y="-82" type="line" smooth="yes"/>
      <point x="173" y="-76"/>
      <point x="169" y="-72"/>
      <point x="163" y="-72" type="curve" smooth="yes"/>
      <point x="107" y="-72" type="line"/>
      <point x="107" y="627" type="line"/>
      <point x="163" y="627" type="line" smooth="yes"/>
      <point x="169" y="627"/>
      <point x="173" y="631"/>
      <point x="173" y="637" type="curve" smooth="yes"/>
      <point x="173" y="685" type="line" smooth="yes"/>
      <point x="173" y="691"/>
      <point x="169" y="695"/>
      <point x="163" y="695" type="curve" smooth="yes"/>
      <point x="47" y="695" type="line" smooth="yes"/>
      <point x="41" y="695"/>
      <point x="37" y="691"/>
      <point x="37" y="685" type="curve" smooth="yes"/>
      <point x="37" y="-129" type="line" smooth="yes"/>
      <point x="37" y="-135"/>
      <point x="41" y="-139"/>
    </contour>
  </outline>
</glyph>
<glyph name="backslash" format="2">
  <advance width="248"/>
  <unicode hex="005C"/>
  <outline>
    <contour>
      <point x="181" y="0" type="curve" smooth="yes"/>
      <point x="236" y="0" type="line" smooth="yes"/>
      <point x="241" y="0"/>
      <point x="244" y="4"/>
      <point x="242" y="11" type="curve" smooth="yes"/>
      <point x="76" y="647" type="line" smooth="yes"/>
      <point x="74" y="654"/>
      <point x="71" y="655"/>
      <point x="64" y="655" type="curve" smooth="yes"/>
      <point x="13" y="655" type="line" smooth="yes"/>
      <point x="7" y="655"/>
      <point x="4" y="651"/>
      <point x="6" y="644" type="curve" smooth="yes"/>
      <point x="172" y="8" type="line" smooth="yes"/>
      <point x="173" y="3"/>
      <point x="177" y="0"/>
    </contour>
  </outline>
</glyph>
<glyph name="bracketright" format="2">
  <advance width="168"/>
  <unicode hex="005D"/>
  <outline>
    <contour>
      <point x="5" y="-139" type="curve" smooth="yes"/>
      <point x="121" y="-139" type="line" smooth="yes"/>
      <point x="127" y="-139"/>
      <point x="131" y="-135"/>
      <point x="131" y="-129" type="curve" smooth="yes"/>
      <point x="131" y="685" type="line" smooth="yes"/>
      <point x="131" y="691"/>
      <point x="127" y="695"/>
      <point x="121" y="695" type="curve" smooth="yes"/>
      <point x="5" y="695" type="line" smooth="yes"/>
      <point x="-1" y="695"/>
      <point x="-5" y="691"/>
      <point x="-5" y="685" type="curve" smooth="yes"/>
      <point x="-5" y="637" type="line" smooth="yes"/>
      <point x="-5" y="631"/>
      <point x="-1" y="627"/>
      <point x="5" y="627" type="curve" smooth="yes"/>
      <point x="61" y="627" type="line"/>
      <point x="61" y="-72" type="line"/>
      <point x="5" y="-72" type="line" smooth="yes"/>
      <point x="-1" y="-72"/>
      <point x="-5" y="-76"/>
      <point x="-5" y="-82" type="curve" smooth="yes"/>
      <point x="-5" y="-129" type="line" smooth="yes"/>
      <point x="-5" y="-135"/>
      <point x="-1" y="-139"/>
    </contour>
  </outline>
</glyph>
<glyph name="asciicircum" format="2">
  <advance width="315"/>
  <unicode hex="005E"/>
  <outline>
    <contour>
      <point x="30" y="350" type="curve" smooth="yes"/>
      <point x="86" y="350" type="line" smooth="yes"/>
      <point x="90" y="350"/>
      <point x="94" y="352"/>
      <point x="95" y="357" type="curve" smooth="yes"/>
      <point x="157" y="597" type="line"/>
      <point x="220" y="357" type="line" smooth="yes"/>
      <point x="221" y="352"/>
      <point x="225" y="350"/>
      <point x="229" y="350" type="curve" smooth="yes"/>
      <point x="285" y="350" type="line" smooth="yes"/>
      <point x="290" y="350"/>
      <point x="292" y="355"/>
      <point x="290" y="362" type="curve" smooth="yes"/>
      <point x="191" y="676" type="line" smooth="yes"/>
      <point x="189" y="681"/>
      <point x="186" y="683"/>
      <point x="182" y="683" type="curve" smooth="yes"/>
      <point x="134" y="683" type="line" smooth="yes"/>
      <point x="130" y="683"/>
      <point x="127" y="681"/>
      <point x="125" y="676" type="curve" smooth="yes"/>
      <point x="25" y="361" type="line" smooth="yes"/>
      <point x="23" y="355"/>
      <point x="25" y="350"/>
    </contour>
  </outline>
</glyph>
<glyph name="underscore" format="2">
  <advance width="327"/>
  <unicode hex="005F"/>
  <outline>
    <contour>
      <point x="15" y="-126" type="curve" smooth="yes"/>
      <point x="312" y="-126" type="line" smooth="yes"/>
      <point x="318" y="-126"/>
      <point x="322" y="-122"/>
      <point x="322" y="-116" type="curve" smooth="yes"/>
      <point x="322" y="-74" type="line" smooth="yes"/>
      <point x="322" y="-68"/>
      <point x="318" y="-64"/>
      <point x="312" y="-64" type="curve" smooth="yes"/>
      <point x="15" y="-64" type="line" smooth="yes"/>
      <point x="9" y="-64"/>
      <point x="5" y="-68"/>
      <point x="5" y="-74" type="curve" smooth="yes"/>
      <point x="5" y="-116" type="line" smooth="yes"/>
      <point x="5" y="-122"/>
      <point x="9" y="-126"/>
    </contour>
  </outline>
</glyph>
<glyph name="a" format="2">
  <advance width="320"/>
  <unicode hex="0061"/>
  <anchor x="163" y="0" name="bottom"/>
  <anchor x="284" y="10" name="ogonek"/>
  <anchor x="162" y="488" name="top"/>
  <outline>
    <contour>
      <point x="221" y="0" type="curve" smooth="yes"/>
      <point x="274" y="0" type="line" smooth="yes"/>
      <point x="279" y="0"/>
      <point x="281" y="4"/>
      <point x="280" y="12" type="curve" smooth="yes"/>
      <point x="278" y="28"/>
      <point x="277" y="64"/>
      <point x="277" y="122" type="curve" smooth="yes"/>
      <point x="277" y="359" type="line" smooth="yes"/>
      <point x="277" y="460"/>
      <point x="244" y="494"/>
      <point x="160" y="494" type="curve" smooth="yes"/>
      <point x="78" y="494"/>
      <point x="38" y="447"/>
      <point x="45" y="367" type="curve" smooth="yes"/>
      <point x="46" y="357"/>
      <point x="49" y="353"/>
      <point x="58" y="353" type="curve" smooth="yes"/>
      <point x="109" y="353" type="line" smooth="yes"/>
      <point x="114" y="353"/>
      <point x="117" y="358"/>
      <point x="117" y="364" type="curve" smooth="yes"/>
      <point x="114" y="405"/>
      <point x="126" y="422"/>
      <point x="159" y="422" type="curve" smooth="yes"/>
      <point x="194" y="422"/>
      <point x="202" y="407"/>
      <point x="202" y="357" type="curve" smooth="yes"/>
      <point x="202" y="109" type="line"/>
      <point x="207" y="103" type="line"/>
      <point x="207" y="76"/>
      <point x="210" y="31"/>
      <point x="213" y="10" type="curve" smooth="yes"/>
      <point x="214" y="2"/>
      <point x="216" y="0"/>
    </contour>
    <contour>
      <point x="116" y="-6" type="curve" smooth="yes"/>
      <point x="155" y="-6"/>
      <point x="179" y="15"/>
      <point x="216" y="60" type="curve"/>
      <point x="213" y="126" type="line"/>
      <point x="178" y="81"/>
      <point x="161" y="66"/>
      <point x="139" y="66" type="curve" smooth="yes"/>
      <point x="119" y="66"/>
      <point x="107" y="91"/>
      <point x="107" y="132" type="curve" smooth="yes"/>
      <point x="107" y="190"/>
      <point x="129" y="219"/>
      <point x="172" y="225" type="curve" smooth="yes"/>
      <point x="211" y="230" type="line"/>
      <point x="211" y="291" type="line"/>
      <point x="163" y="286" type="line" smooth="yes"/>
      <point x="69" y="276"/>
      <point x="32" y="217"/>
      <point x="32" y="126" type="curve" smooth="yes"/>
      <point x="32" y="41"/>
      <point x="63" y="-6"/>
    </contour>
  </outline>
</glyph>
<glyph name="b" format="2">
  <advance width="339"/>
  <unicode hex="0062"/>
  <outline>
    <contour>
      <point x="175" y="-6" type="curve" smooth="yes"/>
      <point x="264" y="-6"/>
      <point x="301" y="41"/>
      <point x="301" y="168" type="curve" smooth="yes"/>
      <point x="301" y="373" type="line" smooth="yes"/>
      <point x="301" y="455"/>
      <point x="275" y="494"/>
      <point x="215" y="494" type="curve" smooth="yes"/>
      <point x="175" y="494"/>
      <point x="134" y="469"/>
      <point x="98" y="422" type="curve"/>
      <point x="104" y="356" type="line"/>
      <point x="132" y="398"/>
      <point x="164" y="422"/>
      <point x="189" y="422" type="curve" smooth="yes"/>
      <point x="215" y="422"/>
      <point x="226" y="407"/>
      <point x="226" y="369" type="curve" smooth="yes"/>
      <point x="226" y="171" type="line" smooth="yes"/>
      <point x="226" y="91"/>
      <point x="210" y="66"/>
      <point x="168" y="66" type="curve" smooth="yes"/>
      <point x="152" y="66"/>
      <point x="133" y="70"/>
      <point x="118" y="73" type="curve"/>
      <point x="118" y="673" type="line" smooth="yes"/>
      <point x="118" y="679"/>
      <point x="115" y="683"/>
      <point x="110" y="683" type="curve" smooth="yes"/>
      <point x="51" y="683" type="line" smooth="yes"/>
      <point x="46" y="683"/>
      <point x="43" y="679"/>
      <point x="43" y="673" type="curve" smooth="yes"/>
      <point x="43" y="12" type="line"/>
      <point x="92" y="7"/>
      <point x="128" y="-6"/>
    </contour>
  </outline>
</glyph>
<glyph name="c" format="2">
  <advance width="330"/>
  <unicode hex="0063"/>
  <anchor x="176" y="0" name="bottom"/>
  <anchor x="207" y="10" name="ogonek"/>
  <anchor x="171" y="488" name="top"/>
  <outline>
    <contour>
      <point x="171" y="-6" type="curve" smooth="yes"/>
      <point x="253.082" y="-6"/>
      <point x="294" y="42.902"/>
      <point x="294" y="141" type="curve" smooth="yes"/>
      <point x="294" y="147.938"/>
      <point x="291.046" y="152"/>
      <point x="286" y="152" type="curve" smooth="yes"/>
      <point x="231" y="152" type="line" smooth="yes"/>
      <point x="224.385" y="152"/>
      <point x="222" y="148.556"/>
      <point x="222" y="139" type="curve" smooth="yes"/>
      <point x="224.021" y="89.481"/>
      <point x="207.616" y="66"/>
      <point x="171" y="66" type="curve" smooth="yes"/>
      <point x="127.618" y="66"/>
      <point x="111" y="94.25"/>
      <point x="111" y="165" type="curve" smooth="yes"/>
      <point x="111" y="322" type="line" smooth="yes"/>
      <point x="111" y="396"/>
      <point x="127.529" y="422"/>
      <point x="171" y="422" type="curve" smooth="yes"/>
      <point x="208.085" y="422"/>
      <point x="227.886" y="393.607"/>
      <point x="224" y="346" type="curve" smooth="yes"/>
      <point x="223.042" y="339.292"/>
      <point x="225.773" y="335"/>
      <point x="231" y="335" type="curve" smooth="yes"/>
      <point x="286" y="335" type="line" smooth="yes"/>
      <point x="292.036" y="335"/>
      <point x="294.006" y="338.065"/>
      <point x="295" y="349" type="curve" smooth="yes"/>
      <point x="300.976" y="440.633"/>
      <point x="255.338" y="494"/>
      <point x="171" y="494" type="curve" smooth="yes"/>
      <point x="79.35" y="494"/>
      <point x="36" y="438.448"/>
      <point x="36" y="324" type="curve" smooth="yes"/>
      <point x="36" y="164" type="line" smooth="yes"/>
      <point x="36" y="48.552"/>
      <point x="78.569" y="-6"/>
    </contour>
  </outline>
</glyph>
<glyph name="d" format="2">
  <advance width="340"/>
  <unicode hex="0064"/>
  <anchor x="170" y="0" name="bottom"/>
  <anchor x="170" y="244" name="center"/>
  <anchor x="170" y="488" name="top"/>
  <anchor x="320" y="488" name="topright"/>
  <outline>
    <contour>
      <point x="126" y="-6" type="curve" smooth="yes"/>
      <point x="170" y="-6"/>
      <point x="201" y="16"/>
      <point x="237" y="64" type="curve"/>
      <point x="234" y="131" type="line"/>
      <point x="201" y="85"/>
      <point x="176" y="66"/>
      <point x="151" y="66" type="curve" smooth="yes"/>
      <point x="125" y="66"/>
      <point x="113" y="82"/>
      <point x="113" y="123" type="curve" smooth="yes"/>
      <point x="113" y="339" type="line" smooth="yes"/>
      <point x="113" y="396"/>
      <point x="130" y="422"/>
      <point x="165" y="422" type="curve" smooth="yes"/>
      <point x="182" y="422"/>
      <point x="204" y="416"/>
      <point x="233" y="401" type="curve"/>
      <point x="233" y="472" type="line"/>
      <point x="213" y="482"/>
      <point x="185" y="494"/>
      <point x="147" y="494" type="curve" smooth="yes"/>
      <point x="78" y="494"/>
      <point x="38" y="443"/>
      <point x="38" y="350" type="curve" smooth="yes"/>
      <point x="38" y="123" type="line" smooth="yes"/>
      <point x="38" y="38"/>
      <point x="68" y="-6"/>
    </contour>
    <contour>
      <point x="242" y="0" type="curve" smooth="yes"/>
      <point x="293" y="0" type="line" smooth="yes"/>
      <point x="298" y="0"/>
      <point x="301" y="4"/>
      <point x="300" y="13" type="curve" smooth="yes"/>
      <point x="298" y="29"/>
      <point x="297" y="62"/>
      <point x="297" y="122" type="curve" smooth="yes"/>
      <point x="297" y="673" type="line" smooth="yes"/>
      <point x="297" y="679"/>
      <point x="294" y="683"/>
      <point x="289" y="683" type="curve" smooth="yes"/>
      <point x="230" y="683" type="line" smooth="yes"/>
      <point x="225" y="683"/>
      <point x="222" y="679"/>
      <point x="222" y="673" type="curve" smooth="yes"/>
      <point x="222" y="109" type="line"/>
      <point x="227" y="103" type="line"/>
      <point x="227" y="84"/>
      <point x="230" y="37"/>
      <point x="233" y="10" type="curve" smooth="yes"/>
      <point x="234" y="3"/>
      <point x="236" y="0"/>
    </contour>
  </outline>
</glyph>
<glyph name="e" format="2">
  <advance width="331"/>
  <unicode hex="0065"/>
  <anchor x="169" y="0" name="bottom"/>
  <anchor x="231" y="11" name="ogonek"/>
  <anchor x="166" y="488" name="top"/>
  <outline>
    <contour>
      <point x="171" y="-6" type="curve" smooth="yes"/>
      <point x="250.125" y="-6"/>
      <point x="294.075" y="41.946"/>
      <point x="292" y="126" type="curve" smooth="yes"/>
      <point x="292" y="131.312"/>
      <point x="288.722" y="135"/>
      <point x="284" y="135" type="curve" smooth="yes"/>
      <point x="228" y="135" type="line" smooth="yes"/>
      <point x="223.273" y="135"/>
      <point x="220.133" y="130.067"/>
      <point x="221" y="124" type="curve" smooth="yes"/>
      <point x="223.934" y="85.863"/>
      <point x="206.81" y="66"/>
      <point x="171" y="66" type="curve" smooth="yes"/>
      <point x="127.611" y="66"/>
      <point x="111" y="95.9"/>
      <point x="111" y="172" type="curve" smooth="yes"/>
      <point x="111" y="224" type="line"/>
      <point x="290" y="224" type="line" smooth="yes"/>
      <point x="294.333" y="224"/>
      <point x="297" y="227.429"/>
      <point x="297" y="233" type="curve" smooth="yes"/>
      <point x="297" y="334" type="line" smooth="yes"/>
      <point x="297" y="439"/>
      <point x="252" y="494"/>
      <point x="167" y="494" type="curve" smooth="yes"/>
      <point x="78.607" y="494"/>
      <point x="36" y="444"/>
      <point x="36" y="331" type="curve" smooth="yes"/>
      <point x="36" y="171" type="line" smooth="yes"/>
      <point x="36" y="51.17"/>
      <point x="79.117" y="-6"/>
    </contour>
    <contour>
      <point x="111" y="294" type="line"/>
      <point x="111" y="332" type="line" smooth="yes"/>
      <point x="111" y="396"/>
      <point x="126.438" y="422"/>
      <point x="167" y="422" type="curve" smooth="yes"/>
      <point x="207.73" y="422"/>
      <point x="222" y="398"/>
      <point x="222" y="332" type="curve" smooth="yes"/>
      <point x="222" y="294" type="line"/>
    </contour>
  </outline>
</glyph>
<glyph name="f" format="2">
  <advance width="244"/>
  <unicode hex="0066"/>
  <anchor x="122" y="0" name="bottom"/>
  <anchor x="122" y="488" name="top"/>
  <outline>
    <contour>
      <point x="75" y="0" type="curve" smooth="yes"/>
      <point x="134" y="0" type="line" smooth="yes"/>
      <point x="139" y="0"/>
      <point x="142" y="4"/>
      <point x="142" y="10" type="curve" smooth="yes"/>
      <point x="142" y="416" type="line"/>
      <point x="215" y="416" type="line" smooth="yes"/>
      <point x="221" y="416"/>
      <point x="224" y="419"/>
      <point x="224" y="425" type="curve" smooth="yes"/>
      <point x="224" y="478" type="line" smooth="yes"/>
      <point x="224" y="484"/>
      <point x="221" y="488"/>
      <point x="215" y="488" type="curve" smooth="yes"/>
      <point x="142" y="488" type="line"/>
      <point x="142" y="555" type="line" smooth="yes"/>
      <point x="142" y="601"/>
      <point x="155" y="617"/>
      <point x="183" y="617" type="curve" smooth="yes"/>
      <point x="202" y="617"/>
      <point x="217" y="612"/>
      <point x="230" y="606" type="curve" smooth="yes"/>
      <point x="238" y="602"/>
      <point x="244" y="605"/>
      <point x="244" y="612" type="curve" smooth="yes"/>
      <point x="244" y="661" type="line" smooth="yes"/>
      <point x="244" y="668"/>
      <point x="243" y="671"/>
      <point x="235" y="676" type="curve" smooth="yes"/>
      <point x="223" y="683"/>
      <point x="197" y="689"/>
      <point x="166" y="689" type="curve" smooth="yes"/>
      <point x="100" y="689"/>
      <point x="67" y="644"/>
      <point x="67" y="556" type="curve" smooth="yes"/>
      <point x="67" y="488" type="line"/>
      <point x="25" y="488" type="line" smooth="yes"/>
      <point x="19" y="488"/>
      <point x="16" y="484"/>
      <point x="16" y="478" type="curve" smooth="yes"/>
      <point x="16" y="425" type="line" smooth="yes"/>
      <point x="16" y="419"/>
      <point x="19" y="416"/>
      <point x="25" y="416" type="curve" smooth="yes"/>
      <point x="67" y="416" type="line"/>
      <point x="67" y="10" type="line" smooth="yes"/>
      <point x="67" y="4"/>
      <point x="70" y="0"/>
    </contour>
  </outline>
</glyph>
<glyph name="g" format="2">
  <advance width="328"/>
  <unicode hex="0067"/>
  <guideline x="89" y="247" angle="90"/>
  <anchor x="166" y="0" name="bottom"/>
  <anchor x="166" y="488" name="top"/>
  <outline>
    <contour>
      <point x="162" y="-191" type="curve" smooth="yes"/>
      <point x="266" y="-191"/>
      <point x="311" y="-147"/>
      <point x="311" y="-55" type="curve" smooth="yes"/>
      <point x="311" y="35"/>
      <point x="279" y="76"/>
      <point x="209" y="83" type="curve" smooth="yes"/>
      <point x="143" y="90" type="line" smooth="yes"/>
      <point x="118" y="93"/>
      <point x="109" y="105"/>
      <point x="109" y="124" type="curve" smooth="yes"/>
      <point x="109" y="146"/>
      <point x="126" y="163"/>
      <point x="150" y="170" type="curve"/>
      <point x="105" y="201" type="line"/>
      <point x="84" y="189"/>
      <point x="40" y="162"/>
      <point x="40" y="106" type="curve" smooth="yes"/>
      <point x="40" y="59"/>
      <point x="68" y="26"/>
      <point x="119" y="22" type="curve" smooth="yes"/>
      <point x="184" y="17" type="line" smooth="yes"/>
      <point x="222" y="14"/>
      <point x="237" y="-7"/>
      <point x="237" y="-50" type="curve" smooth="yes"/>
      <point x="237" y="-97"/>
      <point x="218" y="-120"/>
      <point x="165" y="-120" type="curve" smooth="yes"/>
      <point x="117" y="-120"/>
      <point x="96" y="-102"/>
      <point x="96" y="-57" type="curve" smooth="yes"/>
      <point x="96" y="-20"/>
      <point x="117" y="13"/>
      <point x="141" y="25" type="curve"/>
      <point x="93" y="52" type="line"/>
      <point x="48" y="26"/>
      <point x="21" y="-13"/>
      <point x="21" y="-70" type="curve" smooth="yes"/>
      <point x="21" y="-149"/>
      <point x="64" y="-191"/>
    </contour>
    <contour>
      <point x="168" y="158" type="curve" smooth="yes"/>
      <point x="252" y="158"/>
      <point x="287" y="207"/>
      <point x="287" y="326" type="curve" smooth="yes"/>
      <point x="287" y="445"/>
      <point x="252" y="494"/>
      <point x="168" y="494" type="curve" smooth="yes"/>
      <point x="84" y="494"/>
      <point x="49" y="445"/>
      <point x="49" y="326" type="curve" smooth="yes"/>
      <point x="49" y="207"/>
      <point x="87" y="158"/>
    </contour>
    <contour>
      <point x="168" y="228" type="curve" smooth="yes"/>
      <point x="131" y="228"/>
      <point x="122" y="252"/>
      <point x="122" y="326" type="curve" smooth="yes"/>
      <point x="122" y="400"/>
      <point x="131" y="424"/>
      <point x="168" y="424" type="curve" smooth="yes"/>
      <point x="205" y="424"/>
      <point x="214" y="400"/>
      <point x="214" y="326" type="curve" smooth="yes"/>
      <point x="214" y="252"/>
      <point x="205" y="228"/>
    </contour>
    <contour>
      <point x="250" y="443" type="line"/>
      <point x="253" y="524"/>
      <point x="261" y="567"/>
      <point x="268" y="608" type="curve" smooth="yes"/>
      <point x="269" y="614"/>
      <point x="268" y="618"/>
      <point x="262" y="618" type="curve" smooth="yes"/>
      <point x="211" y="618" type="line" smooth="yes"/>
      <point x="207" y="618"/>
      <point x="205" y="614"/>
      <point x="204" y="606" type="curve" smooth="yes"/>
      <point x="200" y="577"/>
      <point x="196" y="536"/>
      <point x="193" y="473" type="curve"/>
    </contour>
  </outline>
</glyph>
<glyph name="h" format="2">
  <advance width="348"/>
  <unicode hex="0068"/>
  <anchor x="176" y="0" name="bottom"/>
  <anchor x="173" y="244" name="center"/>
  <anchor x="161" y="661" name="top"/>
  <outline>
    <contour>
      <point x="238" y="0" type="curve" smooth="yes"/>
      <point x="297" y="0" type="line" smooth="yes"/>
      <point x="302" y="0"/>
      <point x="305" y="4"/>
      <point x="305" y="10" type="curve" smooth="yes"/>
      <point x="305" y="373" type="line" smooth="yes"/>
      <point x="305" y="454"/>
      <point x="277" y="494"/>
      <point x="221" y="494" type="curve" smooth="yes"/>
      <point x="178" y="494"/>
      <point x="142" y="471"/>
      <point x="104" y="424" type="curve"/>
      <point x="110" y="363" type="line"/>
      <point x="142" y="404"/>
      <point x="169" y="422"/>
      <point x="192" y="422" type="curve" smooth="yes"/>
      <point x="218" y="422"/>
      <point x="230" y="406"/>
      <point x="230" y="368" type="curve" smooth="yes"/>
      <point x="230" y="10" type="line" smooth="yes"/>
      <point x="230" y="4"/>
      <point x="233" y="0"/>
    </contour>
    <contour>
      <point x="51" y="0" type="curve" smooth="yes"/>
      <point x="110" y="0" type="line" smooth="yes"/>
      <point x="115" y="0"/>
      <point x="118" y="4"/>
      <point x="118" y="10" type="curve" smooth="yes"/>
      <point x="118" y="673" type="line" smooth="yes"/>
      <point x="118" y="679"/>
      <point x="115" y="683"/>
      <point x="110" y="683" type="curve" smooth="yes"/>
      <point x="51" y="683" type="line" smooth="yes"/>
      <point x="46" y="683"/>
      <point x="43" y="679"/>
      <point x="43" y="673" type="curve" smooth="yes"/>
      <point x="43" y="10" type="line" smooth="yes"/>
      <point x="43" y="4"/>
      <point x="46" y="0"/>
    </contour>
  </outline>
</glyph>
<glyph name="k" format="2">
  <advance width="317"/>
  <unicode hex="006B"/>
  <anchor x="173" y="0" name="bottom"/>
  <anchor x="163" y="488" name="top"/>
  <outline>
    <contour>
      <point x="50" y="0" type="curve" smooth="yes"/>
      <point x="111" y="0" type="line" smooth="yes"/>
      <point x="115" y="0"/>
      <point x="118" y="4"/>
      <point x="118" y="10" type="curve" smooth="yes"/>
      <point x="118" y="167" type="line"/>
      <point x="153" y="231" type="line"/>
      <point x="230" y="7" type="line"/>
      <point x="231" y="3"/>
      <point x="235" y="0"/>
      <point x="239" y="0" type="curve" smooth="yes"/>
      <point x="306" y="0" type="line" smooth="yes"/>
      <point x="311" y="0"/>
      <point x="314" y="5"/>
      <point x="311" y="12" type="curve"/>
      <point x="202" y="308" type="line"/>
      <point x="302" y="476" type="line"/>
      <point x="305" y="482"/>
      <point x="303" y="488"/>
      <point x="297" y="488" type="curve" smooth="yes"/>
      <point x="228" y="488" type="line" smooth="yes"/>
      <point x="224" y="488"/>
      <point x="222" y="487"/>
      <point x="220" y="483" type="curve" smooth="yes"/>
      <point x="164" y="377" type="line" smooth="yes"/>
      <point x="146" y="344"/>
      <point x="132" y="317"/>
      <point x="118" y="283" type="curve"/>
      <point x="117" y="283" type="line"/>
      <point x="118" y="321"/>
      <point x="118" y="346"/>
      <point x="118" y="384" type="curve" smooth="yes"/>
      <point x="118" y="673" type="line" smooth="yes"/>
      <point x="118" y="679"/>
      <point x="115" y="683"/>
      <point x="110" y="683" type="curve" smooth="yes"/>
      <point x="51" y="683" type="line" smooth="yes"/>
      <point x="46" y="683"/>
      <point x="43" y="679"/>
      <point x="43" y="673" type="curve" smooth="yes"/>
      <point x="43" y="10" type="line" smooth="yes"/>
      <point x="43" y="4"/>
      <point x="46" y="0"/>
    </contour>
  </outline>
</glyph>
<glyph name="l" format="2">
  <advance width="161"/>
  <unicode hex="006C"/>
  <anchor x="81" y="0" name="bottom"/>
  <anchor x="81" y="244" name="center"/>
  <anchor x="81" y="683" name="top"/>
  <anchor x="141" y="488" name="topright"/>
  <outline>
    <contour>
      <point x="51" y="0" type="curve" smooth="yes"/>
      <point x="110" y="0" type="line" smooth="yes"/>
      <point x="115" y="0"/>
      <point x="118" y="4"/>
      <point x="118" y="10" type="curve" smooth="yes"/>
      <point x="118" y="673" type="line" smooth="yes"/>
      <point x="118" y="679"/>
      <point x="115" y="683"/>
      <point x="110" y="683" type="curve" smooth="yes"/>
      <point x="51" y="683" type="line" smooth="yes"/>
      <point x="46" y="683"/>
      <point x="43" y="679"/>
      <point x="43" y="673" type="curve" smooth="yes"/>
      <point x="43" y="10" type="line" smooth="yes"/>
      <point x="43" y="4"/>
      <point x="46" y="0"/>
    </contour>
  </outline>
</glyph>
<glyph name="m" format="2">
  <advance width="515"/>
  <unicode hex="006D"/>
  <anchor x="258" y="0" name="bottom"/>
  <anchor x="258" y="488" name="top"/>
  <outline>
    <contour>
      <point x="51" y="0" type="curve" smooth="yes"/>
      <point x="110" y="0" type="line" smooth="yes"/>
      <point x="115" y="0"/>
      <point x="118" y="4"/>
      <point x="118" y="10" type="curve" smooth="yes"/>
      <point x="118" y="373" type="line"/>
      <point x="142" y="403"/>
      <point x="165" y="422"/>
      <point x="187" y="422" type="curve" smooth="yes"/>
      <point x="209" y="422"/>
      <point x="220" y="409"/>
      <point x="220" y="373" type="curve" smooth="yes"/>
      <point x="220" y="10" type="line" smooth="yes"/>
      <point x="220" y="4"/>
      <point x="223" y="0"/>
      <point x="228" y="0" type="curve" smooth="yes"/>
      <point x="287" y="0" type="line" smooth="yes"/>
      <point x="292" y="0"/>
      <point x="295" y="4"/>
      <point x="295" y="10" type="curve" smooth="yes"/>
      <point x="295" y="373" type="line"/>
      <point x="319" y="403"/>
      <point x="342" y="422"/>
      <point x="364" y="422" type="curve" smooth="yes"/>
      <point x="386" y="422"/>
      <point x="397" y="409"/>
      <point x="397" y="373" type="curve" smooth="yes"/>
      <point x="397" y="10" type="line" smooth="yes"/>
      <point x="397" y="4"/>
      <point x="400" y="0"/>
      <point x="405" y="0" type="curve" smooth="yes"/>
      <point x="464" y="0" type="line" smooth="yes"/>
      <point x="469" y="0"/>
      <point x="472" y="4"/>
      <point x="472" y="10" type="curve" smooth="yes"/>
      <point x="472" y="383" type="line" smooth="yes"/>
      <point x="472" y="455"/>
      <point x="442" y="494"/>
      <point x="394" y="494" type="curve" smooth="yes"/>
      <point x="352" y="494"/>
      <point x="320" y="470"/>
      <point x="289" y="433" type="curve"/>
      <point x="278" y="473"/>
      <point x="252" y="494"/>
      <point x="217" y="494" type="curve" smooth="yes"/>
      <point x="174" y="494"/>
      <point x="143" y="470"/>
      <point x="111" y="432" type="curve"/>
      <point x="110" y="449"/>
      <point x="109" y="461"/>
      <point x="107" y="478" type="curve" smooth="yes"/>
      <point x="106" y="485"/>
      <point x="104" y="488"/>
      <point x="100" y="488" type="curve" smooth="yes"/>
      <point x="47" y="488" type="line" smooth="yes"/>
      <point x="41" y="488"/>
      <point x="39" y="484"/>
      <point x="40" y="475" type="curve" smooth="yes"/>
      <point x="42" y="459"/>
      <point x="43" y="426"/>
      <point x="43" y="366" type="curve" smooth="yes"/>
      <point x="43" y="10" type="line" smooth="yes"/>
      <point x="43" y="4"/>
      <point x="46" y="0"/>
    </contour>
  </outline>
</glyph>
<glyph name="n" format="2">
  <advance width="348"/>
  <unicode hex="006E"/>
  <anchor x="53" y="488" name="apo"/>
  <anchor x="175" y="0" name="bottom"/>
  <anchor x="177" y="488" name="top"/>
  <outline>
    <contour>
      <point x="238" y="0" type="curve" smooth="yes"/>
      <point x="297" y="0" type="line" smooth="yes"/>
      <point x="302" y="0"/>
      <point x="305" y="4"/>
      <point x="305" y="10" type="curve" smooth="yes"/>
      <point x="305" y="373" type="line" smooth="yes"/>
      <point x="305" y="454"/>
      <point x="277" y="494"/>
      <point x="221" y="494" type="curve" smooth="yes"/>
      <point x="178" y="494"/>
      <point x="142" y="471"/>
      <point x="104" y="424" type="curve"/>
      <point x="110" y="363" type="line"/>
      <point x="142" y="404"/>
      <point x="169" y="422"/>
      <point x="192" y="422" type="curve" smooth="yes"/>
      <point x="218" y="422"/>
      <point x="230" y="406"/>
      <point x="230" y="368" type="curve" smooth="yes"/>
      <point x="230" y="10" type="line" smooth="yes"/>
      <point x="230" y="4"/>
      <point x="233" y="0"/>
    </contour>
    <contour>
      <point x="51" y="0" type="curve" smooth="yes"/>
      <point x="110" y="0" type="line" smooth="yes"/>
      <point x="115" y="0"/>
      <point x="118" y="4"/>
      <point x="118" y="10" type="curve" smooth="yes"/>
      <point x="118" y="378" type="line"/>
      <point x="113" y="385" type="line"/>
      <point x="113" y="405"/>
      <point x="111" y="451"/>
      <point x="107" y="478" type="curve" smooth="yes"/>
      <point x="106" y="485"/>
      <point x="103" y="488"/>
      <point x="97" y="488" type="curve" smooth="yes"/>
      <point x="47" y="488" type="line" smooth="yes"/>
      <point x="41" y="488"/>
      <point x="39" y="484"/>
      <point x="40" y="475" type="curve" smooth="yes"/>
      <point x="42" y="459"/>
      <point x="43" y="426"/>
      <point x="43" y="366" type="curve" smooth="yes"/>
      <point x="43" y="10" type="line" smooth="yes"/>
      <point x="43" y="4"/>
      <point x="46" y="0"/>
    </contour>
  </outline>
</glyph>
<glyph name="o" format="2">
  <advance width="342"/>
  <unicode hex="006F"/>
  <anchor x="171" y="-21" name="bottom"/>
  <anchor x="171" y="265" name="center"/>
  <anchor x="300" y="10" name="ogonek"/>
  <anchor x="171" y="488" name="top"/>
  <anchor x="321" y="488" name="topright"/>
  <outline>
    <contour>
      <point x="171" y="-6" type="curve" smooth="yes"/>
      <point x="263" y="-6"/>
      <point x="306" y="47"/>
      <point x="306" y="160" type="curve" smooth="yes"/>
      <point x="306" y="327" type="line" smooth="yes"/>
      <point x="306" y="441"/>
      <point x="263" y="494"/>
      <point x="171" y="494" type="curve" smooth="yes"/>
      <point x="79" y="494"/>
      <point x="36" y="441"/>
      <point x="36" y="327" type="curve" smooth="yes"/>
      <point x="36" y="160" type="line" smooth="yes"/>
      <point x="36" y="47"/>
      <point x="79" y="-6"/>
    </contour>
    <contour>
      <point x="171" y="66" type="curve" smooth="yes"/>
      <point x="128" y="66"/>
      <point x="111" y="92"/>
      <point x="111" y="161" type="curve" smooth="yes"/>
      <point x="111" y="325" type="line" smooth="yes"/>
      <point x="111" y="395"/>
      <point x="127" y="422"/>
      <point x="171" y="422" type="curve" smooth="yes"/>
      <point x="215" y="422"/>
      <point x="231" y="395"/>
      <point x="231" y="325" type="curve" smooth="yes"/>
      <point x="231" y="161" type="line" smooth="yes"/>
      <point x="231" y="92"/>
      <point x="214" y="66"/>
    </contour>
  </outline>
</glyph>
<glyph name="p" format="2">
  <advance width="337"/>
  <unicode hex="0070"/>
  <anchor x="168" y="0" name="bottom"/>
  <anchor x="168" y="488" name="top"/>
  <outline>
    <contour>
      <point x="199" y="-6" type="curve" smooth="yes"/>
      <point x="264" y="-6"/>
      <point x="299" y="49"/>
      <point x="299" y="160" type="curve" smooth="yes"/>
      <point x="299" y="374" type="line" smooth="yes"/>
      <point x="299" y="457"/>
      <point x="271" y="494"/>
      <point x="214" y="494" type="curve" smooth="yes"/>
      <point x="171" y="494"/>
      <point x="134" y="468"/>
      <point x="98" y="421" type="curve"/>
      <point x="104" y="356" type="line"/>
      <point x="132" y="396"/>
      <point x="162" y="422"/>
      <point x="190" y="422" type="curve" smooth="yes"/>
      <point x="213" y="422"/>
      <point x="224" y="407"/>
      <point x="224" y="367" type="curve" smooth="yes"/>
      <point x="224" y="162" type="line" smooth="yes"/>
      <point x="224" y="93"/>
      <point x="209" y="66"/>
      <point x="178" y="66" type="curve" smooth="yes"/>
      <point x="151" y="66"/>
      <point x="126" y="78"/>
      <point x="107" y="89" type="curve"/>
      <point x="108" y="19" type="line"/>
      <point x="131" y="5"/>
      <point x="167" y="-6"/>
    </contour>
    <contour>
      <point x="51" y="-185" type="curve" smooth="yes"/>
      <point x="110" y="-185" type="line" smooth="yes"/>
      <point x="115" y="-185"/>
      <point x="118" y="-181"/>
      <point x="118" y="-175" type="curve" smooth="yes"/>
      <point x="118" y="386" type="line"/>
      <point x="112" y="415" type="line" smooth="yes"/>
      <point x="111" y="441"/>
      <point x="109" y="467"/>
      <point x="107" y="478" type="curve" smooth="yes"/>
      <point x="106" y="485"/>
      <point x="103" y="488"/>
      <point x="97" y="488" type="curve" smooth="yes"/>
      <point x="47" y="488" type="line" smooth="yes"/>
      <point x="41" y="488"/>
      <point x="39" y="484"/>
      <point x="40" y="476" type="curve" smooth="yes"/>
      <point x="42" y="455"/>
      <point x="43" y="426"/>
      <point x="43" y="375" type="curve" smooth="yes"/>
      <point x="43" y="-175" type="line" smooth="yes"/>
      <point x="43" y="-181"/>
      <point x="46" y="-185"/>
    </contour>
  </outline>
</glyph>
<glyph name="q" format="2">
  <advance width="339"/>
  <unicode hex="0071"/>
  <anchor x="151" y="0" name="bottom"/>
  <anchor x="151" y="488" name="top"/>
  <outline>
    <contour>
      <point x="228" y="-185" type="curve" smooth="yes"/>
      <point x="289" y="-185" type="line" smooth="yes"/>
      <point x="293" y="-185"/>
      <point x="296" y="-181"/>
      <point x="296" y="-175" type="curve" smooth="yes"/>
      <point x="296" y="476" type="line"/>
      <point x="247" y="481"/>
      <point x="207" y="494"/>
      <point x="160" y="494" type="curve" smooth="yes"/>
      <point x="83" y="494"/>
      <point x="38" y="448"/>
      <point x="38" y="332" type="curve" smooth="yes"/>
      <point x="38" y="113" type="line" smooth="yes"/>
      <point x="38" y="31"/>
      <point x="64" y="-6"/>
      <point x="124" y="-6" type="curve" smooth="yes"/>
      <point x="164" y="-6"/>
      <point x="205" y="19"/>
      <point x="241" y="66" type="curve"/>
      <point x="235" y="132" type="line"/>
      <point x="207" y="90"/>
      <point x="174" y="66"/>
      <point x="150" y="66" type="curve" smooth="yes"/>
      <point x="123" y="66"/>
      <point x="113" y="79"/>
      <point x="113" y="118" type="curve" smooth="yes"/>
      <point x="113" y="329" type="line" smooth="yes"/>
      <point x="113" y="392"/>
      <point x="127" y="422"/>
      <point x="169" y="422" type="curve" smooth="yes"/>
      <point x="184" y="422"/>
      <point x="206" y="418"/>
      <point x="221" y="415" type="curve"/>
      <point x="221" y="-175" type="line" smooth="yes"/>
      <point x="221" y="-181"/>
      <point x="224" y="-185"/>
    </contour>
  </outline>
</glyph>
<glyph name="r" format="2">
  <advance width="246"/>
  <unicode hex="0072"/>
  <anchor x="83" y="0" name="bottom"/>
  <anchor x="140" y="488" name="top"/>
  <outline>
    <contour>
      <point x="51" y="0" type="curve" smooth="yes"/>
      <point x="110" y="0" type="line" smooth="yes"/>
      <point x="115" y="0"/>
      <point x="118" y="4"/>
      <point x="118" y="10" type="curve" smooth="yes"/>
      <point x="118" y="378" type="line"/>
      <point x="113" y="385" type="line"/>
      <point x="113" y="405"/>
      <point x="110" y="451"/>
      <point x="107" y="478" type="curve" smooth="yes"/>
      <point x="106" y="485"/>
      <point x="104" y="488"/>
      <point x="100" y="488" type="curve" smooth="yes"/>
      <point x="47" y="488" type="line" smooth="yes"/>
      <point x="41" y="488"/>
      <point x="39" y="484"/>
      <point x="40" y="475" type="curve" smooth="yes"/>
      <point x="42" y="459"/>
      <point x="43" y="426"/>
      <point x="43" y="366" type="curve" smooth="yes"/>
      <point x="43" y="10" type="line" smooth="yes"/>
      <point x="43" y="4"/>
      <point x="46" y="0"/>
    </contour>
    <contour>
      <point x="112" y="348" type="line"/>
      <point x="134" y="383"/>
      <point x="168" y="401"/>
      <point x="194" y="401" type="curve" smooth="yes"/>
      <point x="203" y="401"/>
      <point x="210" y="400"/>
      <point x="217" y="398" type="curve" smooth="yes"/>
      <point x="222" y="397"/>
      <point x="224" y="399"/>
      <point x="225" y="404" type="curve" smooth="yes"/>
      <point x="228" y="430"/>
      <point x="229" y="453"/>
      <point x="228" y="480" type="curve" smooth="yes"/>
      <point x="228" y="488"/>
      <point x="226" y="492"/>
      <point x="221" y="493" type="curve" smooth="yes"/>
      <point x="215" y="494"/>
      <point x="213" y="494"/>
      <point x="206" y="494" type="curve" smooth="yes"/>
      <point x="165" y="494"/>
      <point x="131" y="457"/>
      <point x="108" y="420" type="curve"/>
    </contour>
  </outline>
</glyph>
<glyph name="s" format="2">
  <advance width="297"/>
  <unicode hex="0073"/>
  <anchor x="159" y="0" name="bottom"/>
  <anchor x="148" y="488" name="top"/>
  <outline>
    <contour>
      <point x="149" y="-6" type="curve" smooth="yes"/>
      <point x="227" y="-6"/>
      <point x="268" y="41"/>
      <point x="268" y="129" type="curve" smooth="yes"/>
      <point x="268" y="187"/>
      <point x="254" y="218"/>
      <point x="208" y="255" type="curve" smooth="yes"/>
      <point x="145" y="306" type="line" smooth="yes"/>
      <point x="121" y="326"/>
      <point x="109" y="347"/>
      <point x="109" y="377" type="curve" smooth="yes"/>
      <point x="109" y="406"/>
      <point x="122" y="423"/>
      <point x="149" y="423" type="curve" smooth="yes"/>
      <point x="179" y="423"/>
      <point x="192" y="401"/>
      <point x="189" y="366" type="curve" smooth="yes"/>
      <point x="188" y="354"/>
      <point x="192" y="355"/>
      <point x="196" y="355" type="curve" smooth="yes"/>
      <point x="254" y="355" type="line" smooth="yes"/>
      <point x="259" y="355"/>
      <point x="261" y="358"/>
      <point x="262" y="364" type="curve" smooth="yes"/>
      <point x="271" y="443"/>
      <point x="228" y="494"/>
      <point x="151" y="494" type="curve" smooth="yes"/>
      <point x="77" y="494"/>
      <point x="36" y="452"/>
      <point x="36" y="377" type="curve" smooth="yes"/>
      <point x="36" y="319"/>
      <point x="55" y="278"/>
      <point x="96" y="246" type="curve" smooth="yes"/>
      <point x="161" y="195" type="line" smooth="yes"/>
      <point x="185" y="176"/>
      <point x="195" y="156"/>
      <point x="195" y="126" type="curve" smooth="yes"/>
      <point x="195" y="85"/>
      <point x="181" y="65"/>
      <point x="151" y="65" type="curve" smooth="yes"/>
      <point x="115" y="65"/>
      <point x="107" y="87"/>
      <point x="107" y="147" type="curve" smooth="yes"/>
      <point x="107" y="152"/>
      <point x="104" y="155"/>
      <point x="100" y="155" type="curve" smooth="yes"/>
      <point x="42" y="155" type="line" smooth="yes"/>
      <point x="37" y="155"/>
      <point x="34" y="151"/>
      <point x="34" y="146" type="curve" smooth="yes"/>
      <point x="26" y="48"/>
      <point x="65" y="-6"/>
    </contour>
  </outline>
</glyph>
<glyph name="t" format="2">
  <advance width="256"/>
  <unicode hex="0074"/>
  <guideline x="358" y="117" angle="90"/>
  <anchor x="161" y="0" name="bottom"/>
  <anchor x="137" y="265" name="center"/>
  <anchor x="131" y="488" name="top"/>
  <anchor x="230" y="484" name="topright"/>
  <outline>
    <contour>
      <point x="165" y="-6" type="curve" smooth="yes"/>
      <point x="189" y="-6"/>
      <point x="211" y="-2"/>
      <point x="229" y="4" type="curve" smooth="yes"/>
      <point x="235" y="6"/>
      <point x="236" y="10"/>
      <point x="236" y="16" type="curve" smooth="yes"/>
      <point x="236" y="69" type="line" smooth="yes"/>
      <point x="236" y="75"/>
      <point x="234" y="77"/>
      <point x="228" y="75" type="curve" smooth="yes"/>
      <point x="215" y="70"/>
      <point x="199" y="65"/>
      <point x="182" y="65" type="curve" smooth="yes"/>
      <point x="152" y="65"/>
      <point x="141" y="83"/>
      <point x="141" y="134" type="curve" smooth="yes"/>
      <point x="141" y="416" type="line"/>
      <point x="227" y="416" type="line" smooth="yes"/>
      <point x="233" y="416"/>
      <point x="236" y="419"/>
      <point x="236" y="425" type="curve" smooth="yes"/>
      <point x="236" y="478" type="line" smooth="yes"/>
      <point x="236" y="484"/>
      <point x="233" y="488"/>
      <point x="227" y="488" type="curve" smooth="yes"/>
      <point x="141" y="488" type="line"/>
      <point x="141" y="606" type="line" smooth="yes"/>
      <point x="141" y="612"/>
      <point x="139" y="615"/>
      <point x="134" y="615" type="curve" smooth="yes"/>
      <point x="86" y="615" type="line" smooth="yes"/>
      <point x="81" y="615"/>
      <point x="78" y="614"/>
      <point x="77" y="607" type="curve" smooth="yes"/>
      <point x="68" y="488" type="line"/>
      <point x="24" y="488" type="line" smooth="yes"/>
      <point x="18" y="488"/>
      <point x="15" y="484"/>
      <point x="15" y="478" type="curve" smooth="yes"/>
      <point x="15" y="425" type="line" smooth="yes"/>
      <point x="15" y="419"/>
      <point x="18" y="416"/>
      <point x="24" y="416" type="curve" smooth="yes"/>
      <point x="66" y="416" type="line"/>
      <point x="66" y="132" type="line" smooth="yes"/>
      <point x="66" y="32"/>
      <point x="94" y="-6"/>
    </contour>
  </outline>
</glyph>
<glyph name="v" format="2">
  <advance width="323"/>
  <unicode hex="0076"/>
  <anchor x="162" y="0" name="bottom"/>
  <anchor x="162" y="488" name="top"/>
  <outline>
    <contour>
      <point x="122" y="0" type="curve" smooth="yes"/>
      <point x="200" y="0" type="line" smooth="yes"/>
      <point x="204" y="0"/>
      <point x="208" y="2"/>
      <point x="209" y="8" type="curve" smooth="yes"/>
      <point x="304" y="476" type="line" smooth="yes"/>
      <point x="306" y="484"/>
      <point x="304" y="488"/>
      <point x="299" y="488" type="curve" smooth="yes"/>
      <point x="234" y="488" type="line" smooth="yes"/>
      <point x="231" y="488"/>
      <point x="227" y="485"/>
      <point x="226" y="480" type="curve" smooth="yes"/>
      <point x="180" y="213" type="line" smooth="yes"/>
      <point x="172" y="169"/>
      <point x="166" y="124"/>
      <point x="162" y="80" type="curve"/>
      <point x="160" y="80" type="line"/>
      <point x="156" y="124"/>
      <point x="149" y="168"/>
      <point x="142" y="212" type="curve" smooth="yes"/>
      <point x="98" y="480" type="line" smooth="yes"/>
      <point x="97" y="485"/>
      <point x="94" y="488"/>
      <point x="90" y="488" type="curve" smooth="yes"/>
      <point x="24" y="488" type="line" smooth="yes"/>
      <point x="19" y="488"/>
      <point x="17" y="485"/>
      <point x="19" y="477" type="curve" smooth="yes"/>
      <point x="114" y="7" type="line" smooth="yes"/>
      <point x="115" y="3"/>
      <point x="118" y="0"/>
    </contour>
  </outline>
</glyph>
<glyph name="w" format="2">
  <advance width="469"/>
  <unicode hex="0077"/>
  <anchor x="234" y="0" name="bottom"/>
  <anchor x="235" y="488" name="top"/>
  <outline>
    <contour>
      <point x="114" y="0" type="curve" smooth="yes"/>
      <point x="193" y="0" type="line" smooth="yes"/>
      <point x="198" y="0"/>
      <point x="201" y="2"/>
      <point x="202" y="8" type="curve" smooth="yes"/>
      <point x="218" y="116" type="line" smooth="yes"/>
      <point x="224" y="155"/>
      <point x="229" y="193"/>
      <point x="233" y="252" type="curve"/>
      <point x="237" y="252" type="line"/>
      <point x="240" y="193"/>
      <point x="244" y="155"/>
      <point x="250" y="117" type="curve" smooth="yes"/>
      <point x="267" y="7" type="line" smooth="yes"/>
      <point x="268" y="2"/>
      <point x="271" y="0"/>
      <point x="277" y="0" type="curve" smooth="yes"/>
      <point x="355" y="0" type="line" smooth="yes"/>
      <point x="361" y="0"/>
      <point x="364" y="3"/>
      <point x="365" y="9" type="curve" smooth="yes"/>
      <point x="449" y="477" type="line" smooth="yes"/>
      <point x="450" y="484"/>
      <point x="448" y="488"/>
      <point x="443" y="488" type="curve" smooth="yes"/>
      <point x="381" y="488" type="line" smooth="yes"/>
      <point x="377" y="488"/>
      <point x="374" y="485"/>
      <point x="373" y="478" type="curve" smooth="yes"/>
      <point x="331" y="210" type="line" smooth="yes"/>
      <point x="324" y="168"/>
      <point x="320" y="122"/>
      <point x="315" y="79" type="curve"/>
      <point x="312" y="79" type="line"/>
      <point x="309" y="121"/>
      <point x="305" y="164"/>
      <point x="299" y="206" type="curve" smooth="yes"/>
      <point x="260" y="470" type="line" smooth="yes"/>
      <point x="259" y="475"/>
      <point x="256" y="478"/>
      <point x="252" y="478" type="curve" smooth="yes"/>
      <point x="193" y="478" type="line" smooth="yes"/>
      <point x="188" y="478"/>
      <point x="186" y="474"/>
      <point x="187" y="467" type="curve" smooth="yes"/>
      <point x="204" y="365" type="line"/>
      <point x="175" y="205" type="line" smooth="yes"/>
      <point x="168" y="164"/>
      <point x="162" y="120"/>
      <point x="156" y="79" type="curve"/>
      <point x="153" y="79" type="line"/>
      <point x="150" y="121"/>
      <point x="146" y="166"/>
      <point x="139" y="208" type="curve" smooth="yes"/>
      <point x="96" y="478" type="line" smooth="yes"/>
      <point x="95" y="485"/>
      <point x="92" y="488"/>
      <point x="88" y="488" type="curve" smooth="yes"/>
      <point x="26" y="488" type="line" smooth="yes"/>
      <point x="20" y="488"/>
      <point x="19" y="484"/>
      <point x="20" y="477" type="curve" smooth="yes"/>
      <point x="104" y="8" type="line" smooth="yes"/>
      <point x="105" y="3"/>
      <point x="108" y="0"/>
    </contour>
  </outline>
</glyph>
<glyph name="x" format="2">
  <advance width="315"/>
  <unicode hex="0078"/>
  <anchor x="158" y="0" name="bottom"/>
  <anchor x="158" y="488" name="top"/>
  <outline>
    <contour>
      <point x="16" y="0" type="curve" smooth="yes"/>
      <point x="77" y="0" type="line" smooth="yes"/>
      <point x="83" y="0"/>
      <point x="86" y="1"/>
      <point x="88" y="6" type="curve" smooth="yes"/>
      <point x="126" y="109" type="line" smooth="yes"/>
      <point x="136" y="137"/>
      <point x="147" y="170"/>
      <point x="156" y="198" type="curve"/>
      <point x="157" y="198" type="line"/>
      <point x="167" y="170"/>
      <point x="178" y="138"/>
      <point x="188" y="110" type="curve" smooth="yes"/>
      <point x="224" y="6" type="line" smooth="yes"/>
      <point x="226" y="1"/>
      <point x="229" y="0"/>
      <point x="234" y="0" type="curve" smooth="yes"/>
      <point x="299" y="0" type="line" smooth="yes"/>
      <point x="305" y="0"/>
      <point x="306" y="6"/>
      <point x="304" y="12" type="curve" smooth="yes"/>
      <point x="202" y="253" type="line"/>
      <point x="296" y="476" type="line" smooth="yes"/>
      <point x="299" y="482"/>
      <point x="297" y="488"/>
      <point x="291" y="488" type="curve" smooth="yes"/>
      <point x="229" y="488" type="line" smooth="yes"/>
      <point x="224" y="488"/>
      <point x="221" y="487"/>
      <point x="219" y="482" type="curve" smooth="yes"/>
      <point x="186" y="389" type="line" smooth="yes"/>
      <point x="177" y="363"/>
      <point x="167" y="330"/>
      <point x="158" y="304" type="curve"/>
      <point x="157" y="304" type="line"/>
      <point x="148" y="330"/>
      <point x="137" y="363"/>
      <point x="128" y="389" type="curve" smooth="yes"/>
      <point x="97" y="481" type="line" smooth="yes"/>
      <point x="95" y="487"/>
      <point x="92" y="488"/>
      <point x="86" y="488" type="curve" smooth="yes"/>
      <point x="23" y="488" type="line" smooth="yes"/>
      <point x="17" y="488"/>
      <point x="15" y="482"/>
      <point x="18" y="476" type="curve" smooth="yes"/>
      <point x="112" y="251" type="line"/>
      <point x="11" y="12" type="line" smooth="yes"/>
      <point x="8" y="6"/>
      <point x="10" y="0"/>
    </contour>
  </outline>
</glyph>
<glyph name="z" format="2">
  <advance width="296"/>
  <unicode hex="007A"/>
  <guideline x="436" y="390" angle="90"/>
  <anchor x="147" y="0" name="bottom"/>
  <anchor x="155" y="488" name="top"/>
  <outline>
    <contour>
      <point x="24" y="0" type="curve" smooth="yes"/>
      <point x="262" y="0" type="line" smooth="yes"/>
      <point x="267" y="0"/>
      <point x="270" y="4"/>
      <point x="270" y="10" type="curve" smooth="yes"/>
      <point x="270" y="62" type="line" smooth="yes"/>
      <point x="270" y="68"/>
      <point x="267" y="72"/>
      <point x="262" y="72" type="curve" smooth="yes"/>
      <point x="177" y="72" type="line" smooth="yes"/>
      <point x="154" y="72"/>
      <point x="138" y="72"/>
      <point x="115" y="72" type="curve"/>
      <point x="115" y="73" type="line"/>
      <point x="126" y="101"/>
      <point x="138" y="130"/>
      <point x="149" y="158" type="curve" smooth="yes"/>
      <point x="276" y="465" type="line" smooth="yes"/>
      <point x="278" y="469"/>
      <point x="279" y="474"/>
      <point x="279" y="479" type="curve" smooth="yes"/>
      <point x="279" y="481" type="line" smooth="yes"/>
      <point x="279" y="486"/>
      <point x="275" y="488"/>
      <point x="271" y="488" type="curve" smooth="yes"/>
      <point x="40" y="488" type="line" smooth="yes"/>
      <point x="35" y="488"/>
      <point x="32" y="484"/>
      <point x="32" y="478" type="curve" smooth="yes"/>
      <point x="32" y="425" type="line" smooth="yes"/>
      <point x="32" y="419"/>
      <point x="35" y="416"/>
      <point x="40" y="416" type="curve" smooth="yes"/>
      <point x="116" y="416" type="line" smooth="yes"/>
      <point x="139" y="416"/>
      <point x="159" y="416"/>
      <point x="180" y="416" type="curve"/>
      <point x="180" y="415" type="line"/>
      <point x="169" y="386"/>
      <point x="158" y="358"/>
      <point x="146" y="329" type="curve" smooth="yes"/>
      <point x="20" y="24" type="line" smooth="yes"/>
      <point x="18" y="20"/>
      <point x="17" y="15"/>
      <point x="17" y="10" type="curve" smooth="yes"/>
      <point x="17" y="8" type="line" smooth="yes"/>
      <point x="17" y="3"/>
      <point x="20" y="0"/>
    </contour>
  </outline>
</glyph>
<glyph name="braceleft" format="2">
  <advance width="176"/>
  <unicode hex="007B"/>
  <outline>
    <contour>
      <point x="168" y="-142" type="curve" smooth="yes"/>
      <point x="174" y="-142"/>
      <point x="178" y="-138"/>
      <point x="178" y="-132" type="curve" smooth="yes"/>
      <point x="178" y="-85" type="line" smooth="yes"/>
      <point x="178" y="-79"/>
      <point x="174" y="-75"/>
      <point x="168" y="-75" type="curve" smooth="yes"/>
      <point x="134" y="-75"/>
      <point x="126" y="-59"/>
      <point x="126" y="-5" type="curve" smooth="yes"/>
      <point x="126" y="182" type="line" smooth="yes"/>
      <point x="126" y="230"/>
      <point x="112" y="263"/>
      <point x="86" y="277" type="curve"/>
      <point x="112" y="291"/>
      <point x="126" y="324"/>
      <point x="126" y="372" type="curve" smooth="yes"/>
      <point x="126" y="560" type="line" smooth="yes"/>
      <point x="126" y="614"/>
      <point x="134" y="630"/>
      <point x="168" y="630" type="curve" smooth="yes"/>
      <point x="174" y="630"/>
      <point x="178" y="634"/>
      <point x="178" y="640" type="curve" smooth="yes"/>
      <point x="178" y="687" type="line" smooth="yes"/>
      <point x="178" y="693"/>
      <point x="174" y="697"/>
      <point x="168" y="697" type="curve" smooth="yes"/>
      <point x="85" y="697"/>
      <point x="56" y="671"/>
      <point x="56" y="550" type="curve" smooth="yes"/>
      <point x="56" y="373" type="line" smooth="yes"/>
      <point x="56" y="330"/>
      <point x="48" y="310"/>
      <point x="26" y="310" type="curve" smooth="yes"/>
      <point x="16" y="310" type="line" smooth="yes"/>
      <point x="10" y="310"/>
      <point x="6" y="306"/>
      <point x="6" y="300" type="curve" smooth="yes"/>
      <point x="6" y="254" type="line" smooth="yes"/>
      <point x="6" y="248"/>
      <point x="10" y="244"/>
      <point x="16" y="244" type="curve" smooth="yes"/>
      <point x="26" y="244" type="line" smooth="yes"/>
      <point x="48" y="244"/>
      <point x="56" y="224"/>
      <point x="56" y="181" type="curve" smooth="yes"/>
      <point x="56" y="5" type="line" smooth="yes"/>
      <point x="56" y="-116"/>
      <point x="85" y="-142"/>
    </contour>
  </outline>
</glyph>
<glyph name="bar" format="2">
  <advance width="179"/>
  <unicode hex="007C"/>
  <outline>
    <contour>
      <point x="62" y="-185" type="curve" smooth="yes"/>
      <point x="117" y="-185" type="line" smooth="yes"/>
      <point x="123" y="-185"/>
      <point x="127" y="-181"/>
      <point x="127" y="-175" type="curve" smooth="yes"/>
      <point x="127" y="820" type="line" smooth="yes"/>
      <point x="127" y="826"/>
      <point x="123" y="830"/>
      <point x="117" y="830" type="curve" smooth="yes"/>
      <point x="62" y="830" type="line" smooth="yes"/>
      <point x="56" y="830"/>
      <point x="52" y="826"/>
      <point x="52" y="820" type="curve" smooth="yes"/>
      <point x="52" y="-175" type="line" smooth="yes"/>
      <point x="52" y="-181"/>
      <point x="56" y="-185"/>
    </contour>
  </outline>
</glyph>
<glyph name="braceright" format="2">
  <advance width="176"/>
  <unicode hex="007D"/>
  <outline>
    <contour>
      <point x="8" y="-142" type="curve" smooth="yes"/>
      <point x="91" y="-142"/>
      <point x="120" y="-116"/>
      <point x="120" y="5" type="curve" smooth="yes"/>
      <point x="120" y="181" type="line" smooth="yes"/>
      <point x="120" y="224"/>
      <point x="128" y="244"/>
      <point x="150" y="244" type="curve" smooth="yes"/>
      <point x="160" y="244" type="line" smooth="yes"/>
      <point x="166" y="244"/>
      <point x="170" y="248"/>
      <point x="170" y="254" type="curve" smooth="yes"/>
      <point x="170" y="300" type="line" smooth="yes"/>
      <point x="170" y="306"/>
      <point x="166" y="310"/>
      <point x="160" y="310" type="curve" smooth="yes"/>
      <point x="150" y="310" type="line" smooth="yes"/>
      <point x="128" y="310"/>
      <point x="120" y="330"/>
      <point x="120" y="373" type="curve" smooth="yes"/>
      <point x="120" y="550" type="line" smooth="yes"/>
      <point x="120" y="671"/>
      <point x="91" y="697"/>
      <point x="8" y="697" type="curve" smooth="yes"/>
      <point x="2" y="697"/>
      <point x="-2" y="693"/>
      <point x="-2" y="687" type="curve" smooth="yes"/>
      <point x="-2" y="640" type="line" smooth="yes"/>
      <point x="-2" y="634"/>
      <point x="2" y="630"/>
      <point x="8" y="630" type="curve" smooth="yes"/>
      <point x="42" y="630"/>
      <point x="50" y="614"/>
      <point x="50" y="560" type="curve" smooth="yes"/>
      <point x="50" y="372" type="line" smooth="yes"/>
      <point x="50" y="324"/>
      <point x="64" y="291"/>
      <point x="90" y="277" type="curve"/>
      <point x="64" y="263"/>
      <point x="50" y="230"/>
      <point x="50" y="182" type="curve" smooth="yes"/>
      <point x="50" y="-5" type="line" smooth="yes"/>
      <point x="50" y="-59"/>
      <point x="42" y="-75"/>
      <point x="8" y="-75" type="curve" smooth="yes"/>
      <point x="2" y="-75"/>
      <point x="-2" y="-79"/>
      <point x="-2" y="-85" type="curve" smooth="yes"/>
      <point x="-2" y="-132" type="line" smooth="yes"/>
      <point x="-2" y="-138"/>
      <point x="2" y="-142"/>
    </contour>
  </outline>
</glyph>
<glyph name="asciitilde" format="2">
  <advance width="420"/>
  <unicode hex="007E"/>
  <outline>
    <contour>
      <point x="263" y="252" type="curve" smooth="yes"/>
      <point x="298" y="252"/>
      <point x="322" y="268"/>
      <point x="333" y="276" type="curve" smooth="yes"/>
      <point x="337" y="279"/>
      <point x="338" y="284"/>
      <point x="338" y="289" type="curve" smooth="yes"/>
      <point x="338" y="337" type="line" smooth="yes"/>
      <point x="338" y="344"/>
      <point x="334" y="345"/>
      <point x="330" y="343" type="curve" smooth="yes"/>
      <point x="317" y="336"/>
      <point x="288" y="321"/>
      <point x="264" y="321" type="curve" smooth="yes"/>
      <point x="218" y="321"/>
      <point x="206" y="349"/>
      <point x="156" y="349" type="curve" smooth="yes"/>
      <point x="120" y="349"/>
      <point x="98" y="333"/>
      <point x="87" y="327" type="curve" smooth="yes"/>
      <point x="83" y="325"/>
      <point x="82" y="322"/>
      <point x="82" y="316" type="curve" smooth="yes"/>
      <point x="82" y="267" type="line" smooth="yes"/>
      <point x="82" y="260"/>
      <point x="86" y="258"/>
      <point x="91" y="261" type="curve" smooth="yes"/>
      <point x="102" y="268"/>
      <point x="131" y="280"/>
      <point x="155" y="280" type="curve" smooth="yes"/>
      <point x="202" y="280"/>
      <point x="214" y="252"/>
    </contour>
  </outline>
</glyph>
<glyph name="exclamdown" format="2">
  <advance width="168"/>
  <unicode hex="00A1"/>
  <outline>
    <contour>
      <point x="54" y="290" type="line" smooth="yes"/>
      <point x="49" y="290"/>
      <point x="47" y="287"/>
      <point x="47" y="280" type="curve" smooth="yes"/>
      <point x="41" y="-158" type="line" smooth="yes"/>
      <point x="41" y="-163"/>
      <point x="44" y="-167"/>
      <point x="48" y="-167" type="curve" smooth="yes"/>
      <point x="119" y="-167" type="line" smooth="yes"/>
      <point x="124" y="-167"/>
      <point x="127" y="-163"/>
      <point x="127" y="-157" type="curve" smooth="yes"/>
      <point x="121" y="280" type="line" smooth="yes"/>
      <point x="121" y="287"/>
      <point x="118" y="290"/>
      <point x="114" y="290" type="curve" smooth="yes"/>
    </contour>
    <contour>
      <point x="84" y="494" type="curve" smooth="yes"/>
      <point x="51" y="494"/>
      <point x="35" y="477"/>
      <point x="35" y="445" type="curve" smooth="yes"/>
      <point x="35" y="436" type="line" smooth="yes"/>
      <point x="35" y="404"/>
      <point x="51" y="386"/>
      <point x="84" y="386" type="curve" smooth="yes"/>
      <point x="116" y="386"/>
      <point x="133" y="404"/>
      <point x="133" y="436" type="curve" smooth="yes"/>
      <point x="133" y="445" type="line" smooth="yes"/>
      <point x="133" y="477"/>
      <point x="116" y="494"/>
    </contour>
  </outline>
</glyph>
<glyph name="cent" format="2">
  <advance width="420"/>
  <unicode hex="00A2"/>
  <outline>
    <contour>
      <point x="180" y="528" type="line"/>
      <point x="244" y="533" type="line"/>
      <point x="244" y="616" type="line" smooth="yes"/>
      <point x="244" y="622"/>
      <point x="240" y="626"/>
      <point x="234" y="626" type="curve" smooth="yes"/>
      <point x="190" y="626" type="line" smooth="yes"/>
      <point x="184" y="626"/>
      <point x="180" y="622"/>
      <point x="180" y="616" type="curve" smooth="yes"/>
    </contour>
    <contour>
      <point x="190" y="-38" type="curve" smooth="yes"/>
      <point x="234" y="-38" type="line" smooth="yes"/>
      <point x="240" y="-38"/>
      <point x="244" y="-34"/>
      <point x="244" y="-28" type="curve" smooth="yes"/>
      <point x="244" y="55" type="line"/>
      <point x="180" y="59" type="line"/>
      <point x="180" y="-28" type="line" smooth="yes"/>
      <point x="180" y="-34"/>
      <point x="184" y="-38"/>
    </contour>
    <component base="c" xOffset="44" yOffset="50"/>
  </outline>
</glyph>
<glyph name="sterling" format="2">
  <advance width="420"/>
  <unicode hex="00A3"/>
  <outline>
    <contour>
      <point x="91" y="0" type="curve" smooth="yes"/>
      <point x="347" y="0" type="line" smooth="yes"/>
      <point x="353" y="0"/>
      <point x="357" y="4"/>
      <point x="357" y="10" type="curve" smooth="yes"/>
      <point x="357" y="64" type="line" smooth="yes"/>
      <point x="357" y="70"/>
      <point x="353" y="74"/>
      <point x="347" y="74" type="curve" smooth="yes"/>
      <point x="159" y="74" type="line"/>
      <point x="174" y="96"/>
      <point x="184" y="123"/>
      <point x="184" y="180" type="curve" smooth="yes"/>
      <point x="184" y="488" type="line" smooth="yes"/>
      <point x="184" y="571"/>
      <point x="196" y="589"/>
      <point x="231" y="589" type="curve" smooth="yes"/>
      <point x="271" y="589"/>
      <point x="275" y="550"/>
      <point x="275" y="494" type="curve" smooth="yes"/>
      <point x="275" y="488"/>
      <point x="279" y="484"/>
      <point x="285" y="484" type="curve" smooth="yes"/>
      <point x="334" y="484" type="line" smooth="yes"/>
      <point x="340" y="484"/>
      <point x="344" y="488"/>
      <point x="344" y="494" type="curve" smooth="yes"/>
      <point x="344" y="619"/>
      <point x="307" y="661"/>
      <point x="228" y="661" type="curve" smooth="yes"/>
      <point x="143" y="661"/>
      <point x="109" y="601"/>
      <point x="109" y="492" type="curve" smooth="yes"/>
      <point x="109" y="167" type="line" smooth="yes"/>
      <point x="109" y="128"/>
      <point x="101" y="95"/>
      <point x="84" y="62" type="curve" smooth="yes"/>
      <point x="82" y="58"/>
      <point x="81" y="55"/>
      <point x="81" y="50" type="curve" smooth="yes"/>
      <point x="81" y="10" type="line" smooth="yes"/>
      <point x="81" y="4"/>
      <point x="85" y="0"/>
    </contour>
    <contour>
      <point x="73" y="307" type="curve" smooth="yes"/>
      <point x="266" y="307" type="line" smooth="yes"/>
      <point x="272" y="307"/>
      <point x="276" y="311"/>
      <point x="276" y="317" type="curve" smooth="yes"/>
      <point x="276" y="365" type="line" smooth="yes"/>
      <point x="276" y="371"/>
      <point x="272" y="375"/>
      <point x="266" y="375" type="curve" smooth="yes"/>
      <point x="73" y="375" type="line" smooth="yes"/>
      <point x="67" y="375"/>
      <point x="63" y="371"/>
      <point x="63" y="365" type="curve" smooth="yes"/>
      <point x="63" y="317" type="line" smooth="yes"/>
      <point x="63" y="311"/>
      <point x="67" y="307"/>
    </contour>
  </outline>
</glyph>
<glyph name="currency" format="2">
  <advance width="420"/>
  <unicode hex="00A4"/>
  <outline>
    <contour>
      <point x="105" y="119" type="curve"/>
      <point x="138" y="158" type="line"/>
      <point x="157" y="140"/>
      <point x="181" y="131"/>
      <point x="210" y="131" type="curve" smooth="yes"/>
      <point x="239" y="131"/>
      <point x="263" y="140"/>
      <point x="282" y="158" type="curve"/>
      <point x="315" y="119" type="line"/>
      <point x="319" y="115"/>
      <point x="323" y="114"/>
      <point x="327" y="118" type="curve" smooth="yes"/>
      <point x="360" y="151" type="line" smooth="yes"/>
      <point x="364" y="155"/>
      <point x="363" y="160"/>
      <point x="359" y="165" type="curve"/>
      <point x="316" y="215" type="line"/>
      <point x="325" y="242"/>
      <point x="329" y="275"/>
      <point x="329" y="314" type="curve" smooth="yes"/>
      <point x="329" y="353"/>
      <point x="325" y="386"/>
      <point x="316" y="413" type="curve"/>
      <point x="359" y="463" type="line"/>
      <point x="363" y="468"/>
      <point x="364" y="473"/>
      <point x="360" y="477" type="curve" smooth="yes"/>
      <point x="327" y="510" type="line" smooth="yes"/>
      <point x="323" y="514"/>
      <point x="319" y="514"/>
      <point x="315" y="509" type="curve" smooth="yes"/>
      <point x="282" y="470" type="line"/>
      <point x="263" y="488"/>
      <point x="239" y="497"/>
      <point x="210" y="497" type="curve" smooth="yes"/>
      <point x="181" y="497"/>
      <point x="157" y="488"/>
      <point x="138" y="470" type="curve"/>
      <point x="105" y="509" type="line"/>
      <point x="101" y="513"/>
      <point x="96" y="513"/>
      <point x="92" y="509" type="curve" smooth="yes"/>
      <point x="60" y="477" type="line" smooth="yes"/>
      <point x="56" y="473"/>
      <point x="57" y="468"/>
      <point x="61" y="463" type="curve"/>
      <point x="104" y="413" type="line"/>
      <point x="95" y="386"/>
      <point x="91" y="353"/>
      <point x="91" y="314" type="curve" smooth="yes"/>
      <point x="91" y="275"/>
      <point x="95" y="242"/>
      <point x="104" y="215" type="curve"/>
      <point x="61" y="165" type="line"/>
      <point x="57" y="160"/>
      <point x="56" y="155"/>
      <point x="60" y="151" type="curve" smooth="yes"/>
      <point x="93" y="118" type="line" smooth="yes"/>
      <point x="97" y="114"/>
      <point x="101" y="115"/>
    </contour>
    <contour>
      <point x="210" y="193" type="curve" smooth="yes"/>
      <point x="165" y="193"/>
      <point x="155" y="233"/>
      <point x="155" y="314" type="curve" smooth="yes"/>
      <point x="155" y="395"/>
      <point x="165" y="435"/>
      <point x="210" y="435" type="curve" smooth="yes"/>
      <point x="255" y="435"/>
      <point x="265" y="395"/>
      <point x="265" y="314" type="curve" smooth="yes"/>
      <point x="265" y="233"/>
      <point x="255" y="193"/>
    </contour>
  </outline>
</glyph>
<glyph name="yen" format="2">
  <advance width="420"/>
  <unicode hex="00A5"/>
  <outline>
    <contour>
      <point x="180" y="0" type="curve" smooth="yes"/>
      <point x="241" y="0" type="line" smooth="yes"/>
      <point x="246" y="0"/>
      <point x="248" y="4"/>
      <point x="248" y="10" type="curve" smooth="yes"/>
      <point x="248" y="225" type="line"/>
      <point x="368" y="643" type="line" smooth="yes"/>
      <point x="370" y="650"/>
      <point x="369" y="655"/>
      <point x="363" y="655" type="curve" smooth="yes"/>
      <point x="295" y="655" type="line" smooth="yes"/>
      <point x="291" y="655"/>
      <point x="288" y="653"/>
      <point x="287" y="648" type="curve" smooth="yes"/>
      <point x="235" y="433" type="line" smooth="yes"/>
      <point x="226" y="395"/>
      <point x="219" y="357"/>
      <point x="211" y="319" type="curve"/>
      <point x="210" y="319" type="line"/>
      <point x="202" y="357"/>
      <point x="195" y="395"/>
      <point x="186" y="433" type="curve" smooth="yes"/>
      <point x="134" y="647" type="line" smooth="yes"/>
      <point x="133" y="652"/>
      <point x="131" y="655"/>
      <point x="126" y="655" type="curve" smooth="yes"/>
      <point x="59" y="655" type="line" smooth="yes"/>
      <point x="53" y="655"/>
      <point x="50" y="650"/>
      <point x="52" y="643" type="curve" smooth="yes"/>
      <point x="173" y="224" type="line"/>
      <point x="173" y="10" type="line" smooth="yes"/>
      <point x="173" y="4"/>
      <point x="176" y="0"/>
    </contour>
    <contour>
      <point x="111" y="109" type="curve" smooth="yes"/>
      <point x="310" y="109" type="line" smooth="yes"/>
      <point x="316" y="109"/>
      <point x="320" y="113"/>
      <point x="320" y="119" type="curve" smooth="yes"/>
      <point x="320" y="159" type="line" smooth="yes"/>
      <point x="320" y="165"/>
      <point x="316" y="169"/>
      <point x="310" y="169" type="curve" smooth="yes"/>
      <point x="111" y="169" type="line" smooth="yes"/>
      <point x="105" y="169"/>
      <point x="101" y="165"/>
      <point x="101" y="159" type="curve" smooth="yes"/>
      <point x="101" y="119" type="line" smooth="yes"/>
      <point x="101" y="113"/>
      <point x="105" y="109"/>
    </contour>
    <contour>
      <point x="111" y="225" type="curve" smooth="yes"/>
      <point x="310" y="225" type="line" smooth="yes"/>
      <point x="316" y="225"/>
      <point x="320" y="229"/>
      <point x="320" y="235" type="curve" smooth="yes"/>
      <point x="320" y="275" type="line" smooth="yes"/>
      <point x="320" y="281"/>
      <point x="316" y="285"/>
      <point x="310" y="285" type="curve" smooth="yes"/>
      <point x="111" y="285" type="line" smooth="yes"/>
      <point x="105" y="285"/>
      <point x="101" y="281"/>
      <point x="101" y="275" type="curve" smooth="yes"/>
      <point x="101" y="235" type="line" smooth="yes"/>
      <point x="101" y="229"/>
      <point x="105" y="225"/>
    </contour>
  </outline>
</glyph>
<glyph name="brokenbar" format="2">
  <advance width="179"/>
  <unicode hex="00A6"/>
  <outline>
    <contour>
      <point x="62" y="392" type="curve" smooth="yes"/>
      <point x="117" y="392" type="line" smooth="yes"/>
      <point x="123" y="392"/>
      <point x="127" y="396"/>
      <point x="127" y="402" type="curve" smooth="yes"/>
      <point x="127" y="820" type="line" smooth="yes"/>
      <point x="127" y="826"/>
      <point x="123" y="830"/>
      <point x="117" y="830" type="curve" smooth="yes"/>
      <point x="62" y="830" type="line" smooth="yes"/>
      <point x="56" y="830"/>
      <point x="52" y="826"/>
      <point x="52" y="820" type="curve" smooth="yes"/>
      <point x="52" y="402" type="line" smooth="yes"/>
      <point x="52" y="396"/>
      <point x="56" y="392"/>
    </contour>
    <contour>
      <point x="62" y="-185" type="curve" smooth="yes"/>
      <point x="117" y="-185" type="line" smooth="yes"/>
      <point x="123" y="-185"/>
      <point x="127" y="-181"/>
      <point x="127" y="-175" type="curve" smooth="yes"/>
      <point x="127" y="243" type="line" smooth="yes"/>
      <point x="127" y="249"/>
      <point x="123" y="253"/>
      <point x="117" y="253" type="curve" smooth="yes"/>
      <point x="62" y="253" type="line" smooth="yes"/>
      <point x="56" y="253"/>
      <point x="52" y="249"/>
      <point x="52" y="243" type="curve" smooth="yes"/>
      <point x="52" y="-175" type="line" smooth="yes"/>
      <point x="52" y="-181"/>
      <point x="56" y="-185"/>
    </contour>
  </outline>
</glyph>
<glyph name="section" format="2">
  <advance width="299"/>
  <unicode hex="00A7"/>
  <outline>
    <contour>
      <point x="179" y="115" type="line"/>
      <point x="243" y="131"/>
      <point x="282" y="187"/>
      <point x="282" y="260" type="curve" smooth="yes"/>
      <point x="282" y="315"/>
      <point x="266" y="361"/>
      <point x="231" y="397" type="curve" smooth="yes"/>
      <point x="146" y="486" type="line" smooth="yes"/>
      <point x="123" y="511"/>
      <point x="114" y="531"/>
      <point x="114" y="564" type="curve" smooth="yes"/>
      <point x="114" y="598"/>
      <point x="129" y="617"/>
      <point x="156" y="617" type="curve" smooth="yes"/>
      <point x="184" y="617"/>
      <point x="200" y="597"/>
      <point x="200" y="561" type="curve" smooth="yes"/>
      <point x="200" y="554"/>
      <point x="202" y="551"/>
      <point x="207" y="551" type="curve" smooth="yes"/>
      <point x="264" y="551" type="line" smooth="yes"/>
      <point x="268" y="551"/>
      <point x="271" y="554"/>
      <point x="271" y="560" type="curve" smooth="yes"/>
      <point x="271" y="641"/>
      <point x="227" y="689"/>
      <point x="154" y="689" type="curve" smooth="yes"/>
      <point x="80" y="689"/>
      <point x="38" y="643"/>
      <point x="38" y="561" type="curve" smooth="yes"/>
      <point x="38" y="508"/>
      <point x="52" y="473"/>
      <point x="88" y="437" type="curve" smooth="yes"/>
      <point x="161" y="362" type="line" smooth="yes"/>
      <point x="196" y="326"/>
      <point x="208" y="299"/>
      <point x="208" y="257" type="curve" smooth="yes"/>
      <point x="208" y="214"/>
      <point x="186" y="178"/>
      <point x="151" y="165" type="curve"/>
    </contour>
    <contour>
      <point x="145" y="-118" type="curve" smooth="yes"/>
      <point x="219.156" y="-118"/>
      <point x="261" y="-71.828"/>
      <point x="261" y="10" type="curve" smooth="yes"/>
      <point x="261" y="62.96"/>
      <point x="246.784" y="98.216"/>
      <point x="211" y="134" type="curve" smooth="yes"/>
      <point x="138" y="209" type="line" smooth="yes"/>
      <point x="103.362" y="244.756"/>
      <point x="91" y="272.372"/>
      <point x="91" y="314" type="curve" smooth="yes"/>
      <point x="91" y="356.939"/>
      <point x="113.138" y="392.671"/>
      <point x="148" y="406" type="curve"/>
      <point x="120" y="456" type="line"/>
      <point x="56.136" y="439.55"/>
      <point x="17" y="384.456"/>
      <point x="17" y="311" type="curve" smooth="yes"/>
      <point x="17" y="256.451"/>
      <point x="33.808" y="211.301"/>
      <point x="68" y="174" type="curve" smooth="yes"/>
      <point x="153" y="85" type="line" smooth="yes"/>
      <point x="176.451" y="60.432"/>
      <point x="185" y="39.594"/>
      <point x="185" y="7" type="curve" smooth="yes"/>
      <point x="185" y="-26.667"/>
      <point x="169.679" y="-46"/>
      <point x="143" y="-46" type="curve" smooth="yes"/>
      <point x="115" y="-46"/>
      <point x="99" y="-25.636"/>
      <point x="99" y="10" type="curve" smooth="yes"/>
      <point x="99" y="16.571"/>
      <point x="96.6" y="20"/>
      <point x="92" y="20" type="curve" smooth="yes"/>
      <point x="35" y="20" type="line" smooth="yes"/>
      <point x="30.667" y="20"/>
      <point x="28" y="16.571"/>
      <point x="28" y="11" type="curve" smooth="yes"/>
      <point x="28" y="-69.705"/>
      <point x="71.802" y="-118"/>
    </contour>
  </outline>
</glyph>
<glyph name="copyright" format="2">
  <advance width="420"/>
  <unicode hex="00A9"/>
  <outline>
    <contour>
      <point x="210" y="-6" type="curve" smooth="yes"/>
      <point x="333" y="-6"/>
      <point x="384" y="67"/>
      <point x="384" y="214" type="curve" smooth="yes"/>
      <point x="384" y="390" type="line" smooth="yes"/>
      <point x="384" y="537"/>
      <point x="333" y="610"/>
      <point x="210" y="610" type="curve" smooth="yes"/>
      <point x="87" y="610"/>
      <point x="36" y="537"/>
      <point x="36" y="390" type="curve" smooth="yes"/>
      <point x="36" y="214" type="line" smooth="yes"/>
      <point x="36" y="67"/>
      <point x="87" y="-6"/>
    </contour>
    <contour>
      <point x="210" y="46" type="curve" smooth="yes"/>
      <point x="129" y="46"/>
      <point x="90" y="89"/>
      <point x="90" y="211" type="curve" smooth="yes"/>
      <point x="90" y="393" type="line" smooth="yes"/>
      <point x="90" y="515"/>
      <point x="129" y="558"/>
      <point x="210" y="558" type="curve" smooth="yes"/>
      <point x="291" y="558"/>
      <point x="330" y="515"/>
      <point x="330" y="393" type="curve" smooth="yes"/>
      <point x="330" y="211" type="line" smooth="yes"/>
      <point x="330" y="89"/>
      <point x="291" y="46"/>
    </contour>
    <contour>
      <point x="211" y="126" type="curve" smooth="yes"/>
      <point x="272" y="126"/>
      <point x="293" y="169"/>
      <point x="293" y="242" type="curve" smooth="yes"/>
      <point x="293" y="249"/>
      <point x="291" y="252"/>
      <point x="286" y="252" type="curve" smooth="yes"/>
      <point x="249" y="252" type="line" smooth="yes"/>
      <point x="244" y="252"/>
      <point x="242" y="250"/>
      <point x="242" y="242" type="curve" smooth="yes"/>
      <point x="242" y="193"/>
      <point x="233" y="174"/>
      <point x="211" y="174" type="curve" smooth="yes"/>
      <point x="188" y="174"/>
      <point x="178" y="192"/>
      <point x="178" y="234" type="curve" smooth="yes"/>
      <point x="178" y="368" type="line" smooth="yes"/>
      <point x="178" y="410"/>
      <point x="188" y="428"/>
      <point x="211" y="428" type="curve" smooth="yes"/>
      <point x="233" y="428"/>
      <point x="242" y="409"/>
      <point x="242" y="360" type="curve" smooth="yes"/>
      <point x="242" y="352"/>
      <point x="244" y="350"/>
      <point x="249" y="350" type="curve" smooth="yes"/>
      <point x="286" y="350" type="line" smooth="yes"/>
      <point x="291" y="350"/>
      <point x="293" y="353"/>
      <point x="293" y="360" type="curve" smooth="yes"/>
      <point x="293" y="433"/>
      <point x="272" y="476"/>
      <point x="211" y="476" type="curve" smooth="yes"/>
      <point x="151" y="476"/>
      <point x="128" y="432"/>
      <point x="128" y="370" type="curve" smooth="yes"/>
      <point x="128" y="230" type="line" smooth="yes"/>
      <point x="128" y="168"/>
      <point x="151" y="126"/>
    </contour>
  </outline>
</glyph>
<glyph name="ordfeminine" format="2">
  <advance width="242"/>
  <unicode hex="00AA"/>
  <outline>
    <contour>
      <point x="87" y="323" type="curve" smooth="yes"/>
      <point x="115" y="323"/>
      <point x="134" y="341"/>
      <point x="153" y="363" type="curve"/>
      <point x="154" y="351"/>
      <point x="156" y="342"/>
      <point x="157" y="337" type="curve" smooth="yes"/>
      <point x="158" y="331"/>
      <point x="161" y="330"/>
      <point x="165" y="330" type="curve" smooth="yes"/>
      <point x="203" y="330" type="line" smooth="yes"/>
      <point x="208" y="330"/>
      <point x="209" y="333"/>
      <point x="209" y="340" type="curve" smooth="yes"/>
      <point x="209" y="358"/>
      <point x="207" y="384"/>
      <point x="207" y="416" type="curve" smooth="yes"/>
      <point x="207" y="570" type="line" smooth="yes"/>
      <point x="207" y="631"/>
      <point x="183" y="661"/>
      <point x="123" y="661" type="curve" smooth="yes"/>
      <point x="64" y="661"/>
      <point x="35" y="618"/>
      <point x="40" y="571" type="curve" smooth="yes"/>
      <point x="41" y="562"/>
      <point x="45" y="561"/>
      <point x="52" y="561" type="curve" smooth="yes"/>
      <point x="88" y="561" type="line" smooth="yes"/>
      <point x="92" y="561"/>
      <point x="95" y="564"/>
      <point x="94" y="570" type="curve" smooth="yes"/>
      <point x="90" y="593"/>
      <point x="102" y="606"/>
      <point x="122" y="606" type="curve" smooth="yes"/>
      <point x="144" y="606"/>
      <point x="150" y="594"/>
      <point x="150" y="563" type="curve" smooth="yes"/>
      <point x="150" y="525" type="line"/>
      <point x="123" y="522" type="line" smooth="yes"/>
      <point x="69" y="516"/>
      <point x="29" y="488"/>
      <point x="29" y="416" type="curve" smooth="yes"/>
      <point x="29" y="354"/>
      <point x="54" y="323"/>
    </contour>
    <contour>
      <point x="43" y="207" type="curve" smooth="yes"/>
      <point x="205" y="207" type="line" smooth="yes"/>
      <point x="209" y="207"/>
      <point x="213" y="211"/>
      <point x="213" y="217" type="curve" smooth="yes"/>
      <point x="213" y="257" type="line" smooth="yes"/>
      <point x="213" y="263"/>
      <point x="209" y="267"/>
      <point x="205" y="267" type="curve" smooth="yes"/>
      <point x="43" y="267" type="line" smooth="yes"/>
      <point x="38" y="267"/>
      <point x="35" y="263"/>
      <point x="35" y="257" type="curve" smooth="yes"/>
      <point x="35" y="217" type="line" smooth="yes"/>
      <point x="35" y="211"/>
      <point x="38" y="207"/>
    </contour>
    <contour>
      <point x="108" y="378" type="curve" smooth="yes"/>
      <point x="94" y="378"/>
      <point x="86" y="385"/>
      <point x="86" y="418" type="curve" smooth="yes"/>
      <point x="86" y="453"/>
      <point x="102" y="471"/>
      <point x="124" y="474" type="curve" smooth="yes"/>
      <point x="150" y="477" type="line"/>
      <point x="150" y="406" type="line"/>
      <point x="134" y="387"/>
      <point x="119" y="378"/>
    </contour>
  </outline>
</glyph>
<glyph name="guillemetleft" format="2">
  <advance width="339"/>
  <unicode hex="00AB"/>
  <outline>
    <contour>
      <point x="241" y="93" type="curve" smooth="yes"/>
      <point x="300" y="93" type="line" smooth="yes"/>
      <point x="305" y="93"/>
      <point x="308" y="98"/>
      <point x="305" y="105" type="curve" smooth="yes"/>
      <point x="232" y="262" type="line"/>
      <point x="305" y="421" type="line" smooth="yes"/>
      <point x="308" y="428"/>
      <point x="305" y="432"/>
      <point x="300" y="432" type="curve" smooth="yes"/>
      <point x="241" y="432" type="line" smooth="yes"/>
      <point x="238" y="432"/>
      <point x="235" y="429"/>
      <point x="233" y="425" type="curve" smooth="yes"/>
      <point x="157" y="269" type="line" smooth="yes"/>
      <point x="156" y="266"/>
      <point x="155" y="260"/>
      <point x="157" y="256" type="curve" smooth="yes"/>
      <point x="233" y="100" type="line" smooth="yes"/>
      <point x="235" y="96"/>
      <point x="238" y="93"/>
    </contour>
    <contour>
      <point x="116" y="93" type="curve" smooth="yes"/>
      <point x="175" y="93" type="line" smooth="yes"/>
      <point x="180" y="93"/>
      <point x="183" y="98"/>
      <point x="180" y="105" type="curve" smooth="yes"/>
      <point x="107" y="262" type="line"/>
      <point x="180" y="421" type="line" smooth="yes"/>
      <point x="183" y="428"/>
      <point x="180" y="432"/>
      <point x="175" y="432" type="curve" smooth="yes"/>
      <point x="116" y="432" type="line" smooth="yes"/>
      <point x="113" y="432"/>
      <point x="110" y="429"/>
      <point x="108" y="425" type="curve" smooth="yes"/>
      <point x="32" y="269" type="line" smooth="yes"/>
      <point x="31" y="266"/>
      <point x="30" y="260"/>
      <point x="32" y="256" type="curve" smooth="yes"/>
      <point x="108" y="100" type="line" smooth="yes"/>
      <point x="110" y="96"/>
      <point x="113" y="93"/>
    </contour>
  </outline>
</glyph>
<glyph name="logicalnot" format="2">
  <advance width="420"/>
  <unicode hex="00AC"/>
  <outline>
    <contour>
      <point x="276" y="144" type="curve" smooth="yes"/>
      <point x="328" y="144" type="line" smooth="yes"/>
      <point x="334" y="144"/>
      <point x="338" y="148"/>
      <point x="338" y="154" type="curve" smooth="yes"/>
      <point x="338" y="325" type="line" smooth="yes"/>
      <point x="338" y="331"/>
      <point x="334" y="335"/>
      <point x="328" y="335" type="curve" smooth="yes"/>
      <point x="92" y="335" type="line" smooth="yes"/>
      <point x="86" y="335"/>
      <point x="82" y="331"/>
      <point x="82" y="325" type="curve" smooth="yes"/>
      <point x="82" y="276" type="line" smooth="yes"/>
      <point x="82" y="270"/>
      <point x="86" y="266"/>
      <point x="92" y="266" type="curve" smooth="yes"/>
      <point x="266" y="266" type="line"/>
      <point x="266" y="154" type="line" smooth="yes"/>
      <point x="266" y="148"/>
      <point x="270" y="144"/>
    </contour>
  </outline>
</glyph>
<glyph name="registered" format="2">
  <advance width="348"/>
  <unicode hex="00AE"/>
  <guideline x="271" y="618" angle="0"/>
  <guideline x="284" y="580" angle="0"/>
  <outline>
    <contour>
      <point x="174" y="309" type="curve" smooth="yes"/>
      <point x="265" y="309"/>
      <point x="318" y="371"/>
      <point x="318" y="481" type="curve" smooth="yes"/>
      <point x="318" y="525" type="line" smooth="yes"/>
      <point x="318" y="635"/>
      <point x="265" y="697"/>
      <point x="174" y="697" type="curve" smooth="yes"/>
      <point x="83" y="697"/>
      <point x="30" y="635"/>
      <point x="30" y="525" type="curve" smooth="yes"/>
      <point x="30" y="481" type="line" smooth="yes"/>
      <point x="30" y="371"/>
      <point x="83" y="309"/>
    </contour>
    <contour>
      <point x="174" y="353" type="curve" smooth="yes"/>
      <point x="111" y="353"/>
      <point x="78" y="394"/>
      <point x="78" y="478" type="curve" smooth="yes"/>
      <point x="78" y="528" type="line" smooth="yes"/>
      <point x="78" y="612"/>
      <point x="111" y="653"/>
      <point x="174" y="653" type="curve" smooth="yes"/>
      <point x="237" y="653"/>
      <point x="270" y="612"/>
      <point x="270" y="528" type="curve" smooth="yes"/>
      <point x="270" y="478" type="line" smooth="yes"/>
      <point x="270" y="394"/>
      <point x="237" y="353"/>
    </contour>
    <contour>
      <point x="126" y="392" type="curve" smooth="yes"/>
      <point x="154" y="392" type="line" smooth="yes"/>
      <point x="157" y="392"/>
      <point x="158" y="393"/>
      <point x="158" y="396" type="curve" smooth="yes"/>
      <point x="158" y="476" type="line"/>
      <point x="171" y="476" type="line"/>
      <point x="196" y="397" type="line" smooth="yes"/>
      <point x="197" y="394"/>
      <point x="199" y="392"/>
      <point x="201" y="392" type="curve" smooth="yes"/>
      <point x="231" y="392" type="line" smooth="yes"/>
      <point x="234" y="392"/>
      <point x="235" y="394"/>
      <point x="234" y="398" type="curve" smooth="yes"/>
      <point x="205" y="485" type="line"/>
      <point x="223" y="497"/>
      <point x="231" y="515"/>
      <point x="231" y="548" type="curve" smooth="yes"/>
      <point x="231" y="593"/>
      <point x="210" y="615"/>
      <point x="167" y="615" type="curve" smooth="yes"/>
      <point x="128" y="615" type="line" smooth="yes"/>
      <point x="123" y="615"/>
      <point x="122" y="614"/>
      <point x="122" y="608" type="curve" smooth="yes"/>
      <point x="122" y="396" type="line" smooth="yes"/>
      <point x="122" y="393"/>
      <point x="123" y="392"/>
    </contour>
    <contour>
      <point x="158" y="508" type="line"/>
      <point x="158" y="582" type="line"/>
      <point x="170" y="582" type="line" smooth="yes"/>
      <point x="187" y="582"/>
      <point x="194" y="574"/>
      <point x="194" y="554" type="curve" smooth="yes"/>
      <point x="194" y="536" type="line" smooth="yes"/>
      <point x="194" y="516"/>
      <point x="187" y="508"/>
      <point x="170" y="508" type="curve" smooth="yes"/>
    </contour>
  </outline>
</glyph>
<glyph name="degree" format="2">
  <advance width="240"/>
  <unicode hex="00B0"/>
  <outline>
    <contour>
      <point x="120" y="413" type="curve" smooth="yes"/>
      <point x="186" y="413"/>
      <point x="214" y="461"/>
      <point x="214" y="522" type="curve" smooth="yes"/>
      <point x="214" y="580" type="line" smooth="yes"/>
      <point x="214" y="641"/>
      <point x="186" y="689"/>
      <point x="120" y="689" type="curve" smooth="yes"/>
      <point x="54" y="689"/>
      <point x="26" y="641"/>
      <point x="26" y="580" type="curve" smooth="yes"/>
      <point x="26" y="522" type="line" smooth="yes"/>
      <point x="26" y="461"/>
      <point x="54" y="413"/>
    </contour>
    <contour>
      <point x="120" y="464" type="curve" smooth="yes"/>
      <point x="89" y="464"/>
      <point x="80" y="487"/>
      <point x="80" y="522" type="curve" smooth="yes"/>
      <point x="80" y="580" type="line" smooth="yes"/>
      <point x="80" y="615"/>
      <point x="89" y="638"/>
      <point x="120" y="638" type="curve" smooth="yes"/>
      <point x="151" y="638"/>
      <point x="160" y="615"/>
      <point x="160" y="580" type="curve" smooth="yes"/>
      <point x="160" y="522" type="line" smooth="yes"/>
      <point x="160" y="487"/>
      <point x="151" y="464"/>
    </contour>
  </outline>
</glyph>
<glyph name="plusminus" format="2">
  <advance width="420"/>
  <unicode hex="00B1"/>
  <outline>
    <contour>
      <point x="186" y="170" type="curve" smooth="yes"/>
      <point x="235" y="170" type="line" smooth="yes"/>
      <point x="241" y="170"/>
      <point x="245" y="174"/>
      <point x="245" y="180" type="curve" smooth="yes"/>
      <point x="245" y="266" type="line"/>
      <point x="331" y="266" type="line" smooth="yes"/>
      <point x="337" y="266"/>
      <point x="341" y="270"/>
      <point x="341" y="276" type="curve" smooth="yes"/>
      <point x="341" y="325" type="line" smooth="yes"/>
      <point x="341" y="331"/>
      <point x="337" y="335"/>
      <point x="331" y="335" type="curve" smooth="yes"/>
      <point x="245" y="335" type="line"/>
      <point x="245" y="422" type="line" smooth="yes"/>
      <point x="245" y="428"/>
      <point x="241" y="432"/>
      <point x="235" y="432" type="curve" smooth="yes"/>
      <point x="186" y="432" type="line" smooth="yes"/>
      <point x="180" y="432"/>
      <point x="176" y="428"/>
      <point x="176" y="422" type="curve" smooth="yes"/>
      <point x="176" y="335" type="line"/>
      <point x="89" y="335" type="line" smooth="yes"/>
      <point x="83" y="335"/>
      <point x="79" y="331"/>
      <point x="79" y="325" type="curve" smooth="yes"/>
      <point x="79" y="276" type="line" smooth="yes"/>
      <point x="79" y="270"/>
      <point x="83" y="266"/>
      <point x="89" y="266" type="curve" smooth="yes"/>
      <point x="176" y="266" type="line"/>
      <point x="176" y="180" type="line" smooth="yes"/>
      <point x="176" y="174"/>
      <point x="180" y="170"/>
    </contour>
    <contour>
      <point x="93" y="62" type="curve" smooth="yes"/>
      <point x="327" y="62" type="line" smooth="yes"/>
      <point x="333" y="62"/>
      <point x="337" y="66"/>
      <point x="337" y="72" type="curve" smooth="yes"/>
      <point x="337" y="121" type="line" smooth="yes"/>
      <point x="337" y="127"/>
      <point x="333" y="131"/>
      <point x="327" y="131" type="curve" smooth="yes"/>
      <point x="93" y="131" type="line" smooth="yes"/>
      <point x="87" y="131"/>
      <point x="83" y="127"/>
      <point x="83" y="121" type="curve" smooth="yes"/>
      <point x="83" y="72" type="line" smooth="yes"/>
      <point x="83" y="66"/>
      <point x="87" y="62"/>
    </contour>
  </outline>
</glyph>
<glyph name="paragraph" format="2">
  <advance width="370"/>
  <unicode hex="00B6"/>
  <outline>
    <contour>
      <point x="131" y="-185" type="curve" smooth="yes"/>
      <point x="181" y="-185" type="line" smooth="yes"/>
      <point x="187" y="-185"/>
      <point x="191" y="-181"/>
      <point x="191" y="-175" type="curve" smooth="yes"/>
      <point x="191" y="609" type="line"/>
      <point x="261" y="609" type="line"/>
      <point x="261" y="-175" type="line" smooth="yes"/>
      <point x="261" y="-182"/>
      <point x="265" y="-185"/>
      <point x="271" y="-185" type="curve" smooth="yes"/>
      <point x="321" y="-185" type="line" smooth="yes"/>
      <point x="327" y="-185"/>
      <point x="331" y="-181"/>
      <point x="331" y="-175" type="curve" smooth="yes"/>
      <point x="331" y="673" type="line" smooth="yes"/>
      <point x="331" y="678.857"/>
      <point x="328.1" y="683"/>
      <point x="324" y="683" type="curve" smooth="yes"/>
      <point x="105" y="683" type="line" smooth="yes"/>
      <point x="42" y="683"/>
      <point x="12" y="645"/>
      <point x="12" y="560" type="curve" smooth="yes"/>
      <point x="12" y="437" type="line" smooth="yes"/>
      <point x="12" y="352"/>
      <point x="42" y="314"/>
      <point x="105" y="314" type="curve" smooth="yes"/>
      <point x="121" y="314" type="line"/>
      <point x="121" y="-175" type="line" smooth="yes"/>
      <point x="121" y="-181"/>
      <point x="125" y="-185"/>
    </contour>
  </outline>
</glyph>
<glyph name="ordmasculine" format="2">
  <advance width="242"/>
  <unicode hex="00BA"/>
  <outline>
    <contour>
      <point x="121" y="323" type="curve" smooth="yes"/>
      <point x="180.286" y="323"/>
      <point x="211" y="358.833"/>
      <point x="211" y="428" type="curve" smooth="yes"/>
      <point x="211" y="556" type="line" smooth="yes"/>
      <point x="211" y="625.167"/>
      <point x="180.286" y="661"/>
      <point x="121" y="661" type="curve" smooth="yes"/>
      <point x="61.714" y="661"/>
      <point x="31" y="625.167"/>
      <point x="31" y="556" type="curve" smooth="yes"/>
      <point x="31" y="428" type="line" smooth="yes"/>
      <point x="31" y="358.833"/>
      <point x="61.714" y="323"/>
    </contour>
    <contour>
      <point x="44" y="207" type="curve" smooth="yes"/>
      <point x="198" y="207" type="line" smooth="yes"/>
      <point x="203" y="207"/>
      <point x="206" y="211"/>
      <point x="206" y="217" type="curve" smooth="yes"/>
      <point x="206" y="257" type="line" smooth="yes"/>
      <point x="206" y="263"/>
      <point x="203" y="267"/>
      <point x="198" y="267" type="curve" smooth="yes"/>
      <point x="44" y="267" type="line" smooth="yes"/>
      <point x="38" y="267"/>
      <point x="36" y="263"/>
      <point x="36" y="257" type="curve" smooth="yes"/>
      <point x="36" y="217" type="line" smooth="yes"/>
      <point x="36" y="211"/>
      <point x="38" y="207"/>
    </contour>
    <contour>
      <point x="121" y="378" type="curve" smooth="yes"/>
      <point x="98.75" y="378"/>
      <point x="88" y="392.333"/>
      <point x="88" y="422" type="curve" smooth="yes"/>
      <point x="88" y="562" type="line" smooth="yes"/>
      <point x="88" y="591.667"/>
      <point x="98.75" y="606"/>
      <point x="121" y="606" type="curve" smooth="yes"/>
      <point x="143.25" y="606"/>
      <point x="154" y="591.667"/>
      <point x="154" y="562" type="curve" smooth="yes"/>
      <point x="154" y="422" type="line" smooth="yes"/>
      <point x="154" y="392.333"/>
      <point x="143.25" y="378"/>
    </contour>
  </outline>
</glyph>
<glyph name="guillemetright" format="2">
  <advance width="339"/>
  <unicode hex="00BB"/>
  <outline>
    <contour>
      <point x="164" y="93" type="curve" smooth="yes"/>
      <point x="223" y="93" type="line" smooth="yes"/>
      <point x="226" y="93"/>
      <point x="229" y="96"/>
      <point x="231" y="100" type="curve" smooth="yes"/>
      <point x="307" y="256" type="line" smooth="yes"/>
      <point x="309" y="260"/>
      <point x="308" y="266"/>
      <point x="307" y="269" type="curve" smooth="yes"/>
      <point x="231" y="425" type="line" smooth="yes"/>
      <point x="229" y="429"/>
      <point x="226" y="432"/>
      <point x="223" y="432" type="curve" smooth="yes"/>
      <point x="164" y="432" type="line" smooth="yes"/>
      <point x="159" y="432"/>
      <point x="156" y="428"/>
      <point x="159" y="421" type="curve" smooth="yes"/>
      <point x="232" y="262" type="line"/>
      <point x="159" y="105" type="line" smooth="yes"/>
      <point x="156" y="98"/>
      <point x="159" y="93"/>
    </contour>
    <contour>
      <point x="39" y="93" type="curve" smooth="yes"/>
      <point x="98" y="93" type="line" smooth="yes"/>
      <point x="101" y="93"/>
      <point x="104" y="96"/>
      <point x="106" y="100" type="curve" smooth="yes"/>
      <point x="182" y="256" type="line" smooth="yes"/>
      <point x="184" y="260"/>
      <point x="183" y="266"/>
      <point x="182" y="269" type="curve" smooth="yes"/>
      <point x="106" y="425" type="line" smooth="yes"/>
      <point x="104" y="429"/>
      <point x="101" y="432"/>
      <point x="98" y="432" type="curve" smooth="yes"/>
      <point x="39" y="432" type="line" smooth="yes"/>
      <point x="34" y="432"/>
      <point x="31" y="428"/>
      <point x="34" y="421" type="curve" smooth="yes"/>
      <point x="107" y="262" type="line"/>
      <point x="34" y="105" type="line" smooth="yes"/>
      <point x="31" y="98"/>
      <point x="34" y="93"/>
    </contour>
  </outline>
</glyph>
